<?xml version="1.0" encoding="UTF-8" standalone="no"?>
<!-- Created with Inkscape (http://www.inkscape.org/) -->

<svg
   width="297mm"
   height="210mm"
   viewBox="0 0 297 210"
   version="1.1"
   id="svg1"
   inkscape:version="1.3.2 (1:1.3.2+202311252150+091e20ef0f)"
   sodipodi:docname="Reto1_Tetris.svg"
   xmlns:inkscape="http://www.inkscape.org/namespaces/inkscape"
   xmlns:sodipodi="http://sodipodi.sourceforge.net/DTD/sodipodi-0.dtd"
   xmlns="http://www.w3.org/2000/svg"
   xmlns:svg="http://www.w3.org/2000/svg">
  <sodipodi:namedview
     id="namedview1"
     pagecolor="#ffffff"
     bordercolor="#000000"
     borderopacity="0.25"
     inkscape:showpageshadow="2"
     inkscape:pageopacity="0.0"
     inkscape:pagecheckerboard="0"
     inkscape:deskcolor="#d1d1d1"
     inkscape:document-units="mm"
     inkscape:zoom="0.48756441"
     inkscape:cx="479.93659"
     inkscape:cy="393.79412"
     inkscape:window-width="1162"
     inkscape:window-height="1016"
     inkscape:window-x="20"
     inkscape:window-y="20"
     inkscape:window-maximized="0"
     inkscape:current-layer="layer1" />
  <defs
     id="defs1" />
  <g
     inkscape:label="Capa 1"
     inkscape:groupmode="layer"
     id="layer1">
    <path
       id="rect1"
       style="fill:#0000ff;stroke:#000000;stroke-width:2.24225;stroke-linejoin:bevel"
       d="m 25.329887,30.244062 c -0.277835,0 -0.501931,0.25178 -0.501931,0.564657 v 55.385118 c 0,0.312877 0.224096,0.564657 0.501931,0.564657 h 21.667084 c 0.06021,0.0287 0.126308,0.04473 0.196026,0.04473 h 48.644414 c 0.277836,0 0.501415,-0.25178 0.501415,-0.564657 v -23.56743 c 0,-0.312876 -0.223579,-0.564656 -0.501415,-0.564656 H 47.53759 V 30.808719 c 0,-0.312877 -0.22358,-0.564657 -0.501414,-0.564657 z" />
    <rect
       style="fill:#ff0000;stroke:#000000;stroke-width:2.11667;stroke-linejoin:bevel"
       id="rect3"
       width="52.663784"
       height="54.777199"
       x="23.921705"
       y="115.43467"
       ry="0.50238752" />
    <path
       id="rect4"
       style="fill:#008000;stroke:#000000;stroke-width:2.11667;stroke-linejoin:bevel"
       d="m 150.44051,112.11291 c -0.27832,0 -0.5023,0.22397 -0.5023,0.50229 v 29.39097 H 97.463384 c -0.27832,0 -0.50281,0.22398 -0.50281,0.5023 v 26.50794 c 0,0.27832 0.22449,0.5023 0.50281,0.5023 h 77.123456 c 0.11869,0 0.22323,-0.0469 0.30902,-0.11524 0.26085,-0.0189 0.46716,-0.22924 0.46716,-0.49506 V 112.6152 c 0,-0.27832 -0.22397,-0.50229 -0.5023,-0.50229 z" />
    <path
       id="rect5"
       style="fill:#ff6600;stroke:#000000;stroke-width:2.20146;stroke-linejoin:bevel"
       d="m 148.99668,33.466204 c -0.27728,0 -0.50075,0.223465 -0.50075,0.500745 v 27.863415 c 0,5.65e-4 5.2e-4,9.87e-4 5.2e-4,0.0016 h -23.35878 c -0.27751,0 -0.50126,0.223236 -0.50126,0.500744 v 27.88667 c 0,0.277508 0.22375,0.500745 0.50126,0.500745 h 51.22736 c 0.27751,0 0.50075,-0.223237 0.50075,-0.500745 v -27.88667 c 0,-7.41e-4 -5.2e-4,-0.0013 -5.2e-4,-0.0021 h 24.53752 c 0.27728,0 0.50075,-0.222948 0.50075,-0.500228 V 33.966949 c 0,-0.27728 -0.22347,-0.500745 -0.50075,-0.500745 z" />
    <path
       id="rect6"
       style="fill:#ffff00;stroke:#000000;stroke-width:1.97937;stroke-linejoin:bevel"
       d="m 221.97038,70.984826 c -0.27832,0 -0.50229,0.224489 -0.50229,0.502812 v 21.983154 h -23.23786 c -0.24292,0 -0.43873,0.195812 -0.43873,0.438733 v 23.446625 c 0,0.24292 0.19581,0.43873 0.43873,0.43873 h 70.85149 c 0.24292,0 0.43821,-0.19581 0.43821,-0.43873 V 93.909525 c 0,-0.242921 -0.19529,-0.438733 -0.43821,-0.438733 H 246.82054 V 71.487638 c 0,-0.278323 -0.22397,-0.502812 -0.50229,-0.502812 z" />
    <rect
       style="fill:#00ffff;stroke:#000000;stroke-width:2.11667;stroke-linejoin:bevel"
       id="rect7"
       width="95.192894"
       height="27.287909"
       x="192.42715"
       y="141.0204"
       ry="0.50238752" />
  </g>
</svg>
