<?xml version="1.0" encoding="UTF-8" standalone="no"?>
<!-- Created with Inkscape (http://www.inkscape.org/) -->

<svg
   width="210mm"
   height="297mm"
   viewBox="0 0 210 297"
   version="1.1"
   id="svg1"
   inkscape:version="1.3.2 (1:1.3.2+202311252150+091e20ef0f)"
   sodipodi:docname="inkscape tutorial.svg"
   xmlns:inkscape="http://www.inkscape.org/namespaces/inkscape"
   xmlns:sodipodi="http://sodipodi.sourceforge.net/DTD/sodipodi-0.dtd"
   xmlns:xlink="http://www.w3.org/1999/xlink"
   xmlns="http://www.w3.org/2000/svg"
   xmlns:svg="http://www.w3.org/2000/svg">
  <sodipodi:namedview
     id="namedview1"
     pagecolor="#ffffff"
     bordercolor="#000000"
     borderopacity="0.25"
     inkscape:showpageshadow="2"
     inkscape:pageopacity="0.0"
     inkscape:pagecheckerboard="0"
     inkscape:deskcolor="#d1d1d1"
     inkscape:document-units="mm"
     inkscape:zoom="0.72693603"
     inkscape:cx="336.34321"
     inkscape:cy="513.11255"
     inkscape:window-width="1174"
     inkscape:window-height="1016"
     inkscape:window-x="20"
     inkscape:window-y="20"
     inkscape:window-maximized="0"
     inkscape:current-layer="layer1" />
  <defs
     id="defs1">
    <linearGradient
       id="linearGradient117"
       inkscape:swatch="gradient">
      <stop
         style="stop-color:#ffff00;stop-opacity:1;"
         offset="0"
         id="stop117" />
      <stop
         style="stop-color:#ffff00;stop-opacity:0;"
         offset="1"
         id="stop118" />
    </linearGradient>
    <pattern
       inkscape:collect="always"
       xlink:href="#shading25"
       preserveAspectRatio="xMidYMid"
       id="pattern116"
       patternTransform="matrix(0.5,0,0,0.5,212.539,1618.645)"
       x="0"
       y="0" />
    <clipPath
       clipPathUnits="userSpaceOnUse"
       id="clipPath55">
      <path
         id="path55"
         style="stroke-width:0.1;stroke-linecap:square;paint-order:markers fill stroke;stop-color:#000000"
         d="m 1736.6147,-745.57287 h 1589.4765 v 72.46715 H 1736.6147 Z" />
    </clipPath>
    <pattern
       patternUnits="userSpaceOnUse"
       width="495.03794"
       height="21.076199"
       patternTransform="translate(212.539,1618.645) scale(0.5)"
       preserveAspectRatio="xMidYMid"
       id="shading25"
       style="fill:#000000"
       inkscape:label="Sombreado de líneas onduladas verticales 2"
       inkscape:collect="always"
       inkscape:isstock="true">
      <path
         style="fill-rule:nonzero;stroke:none;stroke-width:0.1;stroke-linecap:square;paint-order:markers fill stroke;stop-color:#000000"
         d="m 1805.253,-746.46472 c 1.0402,-0.0242 3.4108,4.37455 7.0577,8.18013 3.6876,3.84796 8.2993,6.92727 9.9087,6.245 1.531,-0.64902 3.0145,-1.36996 4.4515,-2.15084 5.8889,-3.20018 11.0505,-7.43632 15.6328,-12.00267 4.3906,-4.37518 8.4523,-9.25871 12.2865,-14.23213 3.6922,-4.78921 7.2651,-9.78331 10.7748,-14.62266 3.4058,-4.6961 6.7283,-9.21352 10.0799,-13.3336 3.2557,-4.00218 6.3873,-7.43989 9.4721,-10.20426 2.9933,-2.68228 5.6959,-4.5067 8.158,-5.63611 2.2943,-1.05247 4.4882,-1.55745 6.8189,-1.52963 2.4726,0.0315 4.7773,0.56548 7.1494,1.65702 2.4006,1.10461 5.029,2.85654 7.9759,5.49201 2.898,2.59171 5.871,5.82507 9.093,9.75261 3.1863,3.88411 6.2917,8.03984 9.7797,12.70057 3.2964,4.40464 6.9595,9.29382 10.7928,13.90719 3.7847,4.55502 8.0601,9.24326 12.8803,13.42238 4.7547,4.12228 10.3006,7.98005 16.7646,10.73225 6.452,2.74706 13.6016,4.29685 21.42,4.07349 7.5156,-0.21566 14.4174,-1.96117 20.7144,-4.81717 6.1374,-2.78363 11.476,-6.51214 16.2006,-10.60748 4.6296,-4.01305 8.7793,-8.48023 12.5486,-12.92455 3.7074,-4.37132 7.2367,-8.95064 10.5272,-13.20627 3.3192,-4.2927 6.3996,-8.26161 9.522,-11.90417 3.0769,-3.58935 5.9852,-6.611 8.8614,-9.04008 2.8248,-2.38578 5.4557,-4.05991 7.9864,-5.13602 2.4346,-1.03522 5.0005,-1.61631 7.933,-1.59518 3.0817,0.0247 5.8857,0.6131 8.6066,1.69966 2.7483,1.0975 5.5865,2.78047 8.5796,5.11224 2.9985,2.33606 6.025,5.21606 9.2431,8.63728 3.2167,3.41977 6.3603,7.0907 9.8296,11.13483 3.3388,3.89195 6.9881,8.13964 10.8098,12.15108 3.8127,4.00187 8.0461,8.03782 12.7656,11.60074 4.7053,3.55225 10.0353,6.74354 16.0995,8.97542 6.0736,2.23531 12.6744,3.42962 19.8243,3.2099 6.9419,-0.21445 13.3238,-1.6569 19.1948,-4.01012 5.7932,-2.32202 10.9188,-5.46111 15.5007,-8.94633 4.5346,-3.44928 8.6232,-7.30489 12.3531,-11.15543 3.6873,-3.80671 7.2085,-7.80438 10.478,-11.50262 3.3236,-3.75943 6.4052,-7.23018 9.5382,-10.42425 3.0993,-3.15966 6.0686,-5.85947 9.0513,-8.05878 2.9446,-2.17128 5.8117,-3.79138 8.7521,-4.8787 2.8764,-1.06364 5.9921,-1.67724 9.537,-1.64997 3.6739,0.0303 6.992,0.64706 10.1148,1.72267 3.1385,1.08099 6.212,2.67175 9.3417,4.76753 3.1347,2.09912 6.2423,4.64756 9.4813,7.60447 3.2525,2.9692 6.4282,6.15345 9.8838,9.60958 3.359,3.35956 6.9795,6.9727 10.7676,10.37975 3.7965,3.41461 7.9437,6.79117 12.5139,9.73902 4.5755,2.95131 9.6316,5.51048 15.2702,7.2663 5.6465,1.75829 11.7139,2.65945 18.264,2.44908 6.4036,-0.20674 12.2913,-1.37409 17.7421,-3.26594 5.4168,-1.88005 10.2799,-4.43255 14.702,-7.31946 8.6334,-5.63613 16.037,-12.88591 22.4929,-19.12205 6.7212,-6.49249 12.5433,-12.01959 18.9588,-16.04554 3.1167,-1.95583 6.2817,-3.48998 9.6171,-4.53345 3.3151,-1.03713 6.9363,-1.63324 11.0187,-1.59676 4.1886,0.0389 7.9706,0.64206 11.4829,1.6634 3.5211,1.02387 6.8647,2.49545 10.1535,4.34416 6.7293,3.78274 12.7884,8.8578 19.7448,14.67605 6.6797,5.58683 14.1794,11.84981 22.8466,16.49445 4.3993,2.35758 9.1632,4.34037 14.3945,5.67572 5.2392,1.3374 10.8382,1.99731 16.8856,1.79742 5.9509,-0.19758 11.4118,-1.12805 16.4807,-2.61218 5.062,-1.4821 9.6585,-3.49432 13.8987,-5.80208 8.3583,-4.54909 15.5942,-10.41733 22.0798,-15.60264 6.6984,-5.35543 12.7208,-10.08986 19.4484,-13.56586 3.3178,-1.71422 6.77,-3.09761 10.4797,-4.04609 3.7099,-0.94855 7.7574,-1.48277 12.2753,-1.43641 4.6033,0.0482 8.7691,0.59795 12.6207,1.51225 3.8618,0.91672 7.4642,2.21344 10.9267,3.79023 7.0358,3.20405 13.3135,7.46389 20.1791,12.08794 6.7504,4.54652 13.9988,9.39282 22.3166,12.94721 4.2052,1.79694 8.6919,3.27054 13.5684,4.2442 4.8908,0.97651 10.1111,1.43761 15.765,1.24836 11.2624,-0.37831 20.521,-2.93562 28.6567,-6.47523 8.072,-3.51191 15.1221,-8.04208 21.6404,-12.16339 6.6963,-4.23381 12.9442,-8.1134 20.0005,-10.97371 3.5223,-1.42776 7.2309,-2.5925 11.2464,-3.38941 4.0328,-0.80036 8.409,-1.23639 13.2487,-1.17981 9.8114,0.11585 17.8542,1.85503 25.0516,4.36762 7.3305,2.55909 13.8374,5.93583 20.6026,9.3952 6.8064,3.48043 13.7906,6.99804 21.7652,9.54609 8.1103,2.59142 17.0871,4.1297 27.8305,3.77392 10.7829,-0.35782 19.616,-2.22314 27.397,-4.75151 7.8298,-2.54421 14.7241,-5.81193 21.2574,-8.84427 6.7362,-3.1265 13.1864,-6.05206 20.5241,-8.20536 7.4291,-2.18015 15.6984,-3.54041 25.7353,-3.4038 10.2558,0.14005 18.6371,1.44063 26.0454,3.2451 7.5622,1.84195 14.2792,4.25488 20.9188,6.5816 6.8632,2.40506 13.6102,4.70565 21.2999,6.34646 7.8788,1.68112 16.5313,2.61777 26.873,2.29501 10.572,-0.33017 19.1698,-1.57317 26.6821,-3.17078 7.6977,-1.63702 14.5554,-3.71973 21.0333,-5.62279 6.8635,-2.01634 13.4186,-3.86892 20.9005,-5.21157 7.7662,-1.39367 16.2621,-2.18128 26.3973,-2.00285 10.5688,0.18612 19.571,1.0009 27.4886,2.03127 8.2949,1.07948 15.8964,2.4683 22.7063,3.70019 7.5417,1.36427 14.2298,2.55761 21.3722,3.41275 7.6698,0.91828 15.2607,1.36253 23.4948,1.17118 -8.2329,0.19132 -15.8265,-0.27549 -23.4867,-1.23711 -7.127,-0.89468 -13.8174,-2.14555 -21.3362,-3.5838 -6.7871,-1.2983 -14.3958,-2.77846 -22.6833,-3.95633 -7.9184,-1.1254 -16.9372,-2.05108 -27.5366,-2.35688 -10.1846,-0.29378 -18.7526,0.37309 -26.617,1.64579 -7.5758,1.22599 -14.2201,2.96175 -21.1376,4.83776 -6.5443,1.7748 -13.3629,3.68433 -21.0048,5.14881 -7.4367,1.42516 -15.9178,2.48706 -26.3321,2.64466 -10.1332,0.15313 -18.5407,-0.9331 -26.1414,-2.73417 -7.4344,-1.76168 -13.9556,-4.16646 -20.7382,-6.74008 -6.5218,-2.47465 -13.3737,-5.14188 -21.1194,-7.22722 -7.6372,-2.05614 -16.3276,-3.6051 -26.9688,-3.95086 -10.5199,-0.34138 -19.3093,0.88492 -27.279,3.00593 -7.8222,2.08173 -14.6821,4.97623 -21.514,7.91838 -6.7081,2.88878 -13.3235,5.79307 -20.7808,8.00175 -7.3234,2.16904 -15.5587,3.69804 -25.6171,3.82499 -9.8657,0.12375 -17.9469,-1.48692 -25.1838,-4.01635 -7.2078,-2.51921 -13.5637,-5.93582 -20.273,-9.61486 -6.5298,-3.58059 -13.4941,-7.469 -21.4355,-10.48802 -7.9484,-3.02169 -16.9719,-5.2211 -27.9626,-5.58943 -5.4993,-0.1838 -10.5688,0.19085 -15.3165,1.00812 -4.7274,0.81379 -9.0913,2.0587 -13.2027,3.59348 -8.1421,3.03939 -15.2576,7.20841 -22.0376,11.22444 -6.8169,4.03789 -13.2099,7.86617 -20.3976,10.75701 -7.0422,2.83228 -14.8483,4.75672 -24.3578,4.86239 -4.6935,0.0514 -8.9184,-0.43774 -12.8001,-1.31922 -3.8729,-0.8795 -7.4591,-2.16207 -10.8806,-3.73959 -6.8934,-3.1783 -13.028,-7.49576 -19.7215,-12.28814 -6.5027,-4.6558 -13.6455,-9.84707 -21.859,-13.86966 -4.1472,-2.03108 -8.6183,-3.79464 -13.5224,-5.09639 -4.901,-1.30092 -10.1811,-2.12636 -15.9446,-2.31929 -5.8367,-0.19458 -11.234,0.36122 -16.2897,1.51082 -5.0454,1.14727 -9.6669,2.86675 -13.9695,4.93859 -8.4949,4.09058 -15.8728,9.63636 -22.5897,14.70674 -6.912,5.21764 -13.0774,9.89183 -19.9584,13.3922 -3.3754,1.71707 -6.8517,3.10868 -10.5503,4.08535 -3.6901,0.97447 -7.6753,1.55546 -12.0844,1.59901 -4.3139,0.0414 -8.1595,-0.52884 -11.6795,-1.52946 -3.5292,-1.00322 -6.8396,-2.47028 -10.0546,-4.30985 -6.5663,-3.7571 -12.4832,-8.89278 -19.1915,-14.81524 -6.4693,-5.71144 -13.7933,-12.2677 -22.2933,-17.35597 -4.333,-2.59382 -9.0615,-4.86936 -14.2957,-6.54431 -5.2532,-1.68101 -10.9174,-2.7252 -17.0821,-2.92743 -6.2858,-0.20518 -12.109,0.56945 -17.5467,2.10978 -5.4303,1.53828 -10.3404,3.80131 -14.8319,6.45301 -8.8295,5.21272 -16.4405,12.20616 -23.0792,18.30141 -6.999,6.426 -12.9605,11.8926 -19.5454,15.94722 -3.2061,1.97409 -6.4061,3.50888 -9.7469,4.56976 -3.3219,1.05488 -6.8806,1.67013 -10.8233,1.70458 -3.8254,0.0317 -7.202,-0.57916 -10.301,-1.6371 -3.1329,-1.06953 -6.153,-2.65546 -9.179,-4.72114 -3.0565,-2.08651 -6.0722,-4.62957 -9.1911,-7.57594 -3.1489,-2.97464 -6.2412,-6.20303 -9.5654,-9.68937 -3.2664,-3.42563 -6.7777,-7.12294 -10.4493,-10.64018 -3.7085,-3.55253 -7.7548,-7.09325 -12.2236,-10.25212 -4.5059,-3.18505 -9.5028,-6.0264 -15.1076,-8.12276 -5.6582,-2.11629 -11.7864,-3.4165 -18.4502,-3.62744 -6.8393,-0.21536 -13.1675,0.82531 -19.0283,2.81585 -5.8515,1.98743 -11.0491,4.8568 -15.6969,8.10956 -4.6501,3.25435 -8.8452,6.96068 -12.6539,10.67137 -3.8076,3.70975 -7.4445,7.64004 -10.7947,11.26687 -3.4626,3.7487 -6.6218,7.17598 -9.855,10.3693 -3.2261,3.18624 -6.2897,5.89928 -9.352,8.11634 -3.0629,2.21748 -6.0067,3.85164 -8.9486,4.94482 -2.9204,1.08524 -5.9851,1.69279 -9.3701,1.71963 -3.2453,0.0235 -6.0885,-0.58022 -8.741,-1.63558 -2.7235,-1.08361 -5.4717,-2.73602 -8.3495,-5.01373 -2.9215,-2.31224 -5.8543,-5.17046 -8.9396,-8.54449 -3.124,-3.41627 -6.201,-7.1331 -9.5232,-11.16224 -3.2767,-3.97399 -6.8041,-8.26688 -10.5034,-12.35915 -3.7494,-4.14756 -7.8727,-8.31359 -12.4619,-12.04955 -4.6496,-3.78508 -9.8951,-7.22632 -15.8695,-9.77971 -6.0857,-2.60092 -12.7284,-4.19334 -19.9586,-4.40985 -7.4783,-0.22285 -14.3566,1.1405 -20.6322,3.62995 -6.2726,2.48823 -11.6981,5.99226 -16.4627,9.85403 -4.7765,3.87151 -9.0375,8.23511 -12.8438,12.52019 -3.8304,4.31226 -7.4882,8.87832 -10.811,13.03126 -3.4768,4.34559 -6.604,8.26031 -9.8058,11.90992 -3.216,3.66558 -6.2124,6.71783 -9.1565,9.17735 -2.9675,2.47902 -5.6832,4.18663 -8.2487,5.28547 -2.5332,1.08496 -5.0783,1.64671 -7.8507,1.67186 -2.6179,0.0214 -4.9128,-0.52472 -7.1451,-1.53131 -2.3604,-1.06434 -4.8951,-2.76005 -7.6846,-5.25871 -2.8527,-2.55534 -5.7515,-5.75015 -8.8246,-9.55288 -3.1323,-3.87594 -6.2284,-8.10789 -9.5403,-12.6505 -3.3176,-4.55029 -6.8423,-9.39908 -10.5533,-14.03769 -3.796,-4.74492 -7.9623,-9.49497 -12.6121,-13.76434 -4.7861,-4.3945 -10.2041,-8.39968 -16.4732,-11.40177 -6.5042,-3.11465 -13.6483,-5.00378 -21.4158,-5.21173 -8.1572,-0.2177 -15.574,1.54118 -22.1695,4.46464 -6.6773,2.95972 -12.4222,7.0687 -17.3191,11.37963 -5.042,4.43874 -9.5397,9.40939 -13.5027,14.21556 -4.0818,4.95023 -7.952,10.16777 -11.4019,14.87294 -3.7492,5.11334 -6.9172,9.5003 -10.2234,13.7532 -3.3736,4.33962 -6.3815,7.86576 -9.2372,10.69568 -2.986,2.959 -5.4331,4.7791 -7.4255,5.85967 -0.4711,0.2555 -0.9072,0.46433 -1.3103,0.63522 -0.3951,0.16748 0.5373,4.68782 0.2198,9.38558 -0.3174,4.69775 -2.0538,9.40888 -3.094,9.43305 z m 0,36.23359 c 1.0402,-0.0242 3.4108,4.37455 7.0577,8.18013 3.6876,3.84796 8.2993,6.92727 9.9087,6.245 1.531,-0.64902 3.0145,-1.36996 4.4515,-2.15084 5.8889,-3.20018 11.0505,-7.43632 15.6328,-12.00267 4.3906,-4.37518 8.4523,-9.25871 12.2865,-14.23213 3.6922,-4.78921 7.2651,-9.78331 10.7748,-14.62266 3.4058,-4.6961 6.7283,-9.21352 10.0799,-13.3336 3.2557,-4.00218 6.3873,-7.43989 9.4721,-10.20426 2.9933,-2.68228 5.6959,-4.5067 8.158,-5.63611 2.2943,-1.05247 4.4882,-1.55745 6.8189,-1.52963 2.4726,0.0315 4.7773,0.56548 7.1494,1.65702 2.4006,1.10461 5.029,2.85654 7.9759,5.49201 2.898,2.59171 5.871,5.82507 9.093,9.75261 3.1863,3.88411 6.2917,8.03984 9.7797,12.70057 3.2964,4.40464 6.9595,9.29382 10.7928,13.90719 3.7847,4.55502 8.0601,9.24326 12.8803,13.42238 4.7547,4.12228 10.3006,7.98005 16.7646,10.73225 6.452,2.74706 13.6016,4.29685 21.42,4.07349 7.5156,-0.21566 14.4174,-1.96117 20.7144,-4.81717 6.1374,-2.78363 11.476,-6.51214 16.2006,-10.60748 4.6296,-4.01305 8.7793,-8.48023 12.5486,-12.92455 3.7074,-4.37132 7.2367,-8.95064 10.5272,-13.20627 3.3192,-4.2927 6.3996,-8.26161 9.522,-11.90417 3.0769,-3.58935 5.9852,-6.611 8.8614,-9.04008 2.8248,-2.38578 5.4557,-4.05991 7.9864,-5.13602 2.4346,-1.03522 5.0005,-1.61631 7.933,-1.59518 3.0817,0.0247 5.8857,0.6131 8.6066,1.69966 2.7483,1.0975 5.5865,2.78047 8.5796,5.11224 2.9985,2.33606 6.025,5.21606 9.2431,8.63728 3.2167,3.41977 6.3603,7.0907 9.8296,11.13483 3.3388,3.89195 6.9881,8.13964 10.8098,12.15108 3.8127,4.00187 8.0461,8.03782 12.7656,11.60073 4.7053,3.55226 10.0353,6.74355 16.0995,8.97543 6.0736,2.23531 12.6744,3.42962 19.8243,3.2099 6.9419,-0.21445 13.3238,-1.6569 19.1948,-4.01012 5.7932,-2.32202 10.9188,-5.46111 15.5007,-8.94633 4.5346,-3.44928 8.6232,-7.30489 12.3531,-11.15543 3.6873,-3.80671 7.2085,-7.80438 10.478,-11.50262 3.3236,-3.75943 6.4052,-7.23018 9.5382,-10.42425 3.0993,-3.15966 6.0686,-5.85947 9.0513,-8.05878 2.9446,-2.17128 5.8117,-3.79138 8.7521,-4.8787 2.8764,-1.06364 5.9921,-1.67724 9.537,-1.64997 3.6739,0.0303 6.992,0.64706 10.1148,1.72267 3.1385,1.08099 6.212,2.67175 9.3417,4.76753 3.1347,2.09912 6.2423,4.64756 9.4813,7.60447 3.2525,2.9692 6.4282,6.15345 9.8838,9.60958 3.359,3.35956 6.9795,6.9727 10.7676,10.37975 3.7965,3.41461 7.9437,6.79117 12.5139,9.73902 4.5755,2.95131 9.6316,5.51048 15.2702,7.2663 5.6465,1.75829 11.7139,2.65945 18.264,2.44908 6.4036,-0.20674 12.2913,-1.37409 17.7421,-3.26594 5.4168,-1.88006 10.2799,-4.43255 14.702,-7.31946 8.6334,-5.63613 16.037,-12.88591 22.4929,-19.12205 6.7212,-6.49249 12.5433,-12.01959 18.9588,-16.04554 3.1167,-1.95583 6.2817,-3.48998 9.6171,-4.53345 3.3151,-1.03713 6.9363,-1.63324 11.0187,-1.59676 4.1886,0.0389 7.9706,0.64206 11.4829,1.6634 3.5211,1.02387 6.8647,2.49545 10.1535,4.34416 6.7293,3.78274 12.7884,8.8578 19.7448,14.67605 6.6797,5.58683 14.1794,11.84981 22.8466,16.49445 4.3993,2.35758 9.1632,4.34037 14.3945,5.67572 5.2392,1.3374 10.8382,1.99731 16.8856,1.79742 5.9509,-0.19759 11.4118,-1.12806 16.4807,-2.61218 5.062,-1.4821 9.6585,-3.49432 13.8987,-5.80208 8.3583,-4.54909 15.5942,-10.41733 22.0798,-15.60264 6.6984,-5.35543 12.7208,-10.08986 19.4484,-13.56586 3.3178,-1.71422 6.77,-3.09761 10.4797,-4.0461 3.7099,-0.94854 7.7574,-1.48276 12.2753,-1.4364 4.6033,0.0482 8.7691,0.59795 12.6207,1.51225 3.8618,0.91672 7.4642,2.21344 10.9267,3.79023 7.0358,3.20405 13.3135,7.46389 20.1791,12.08794 6.7504,4.54652 13.9988,9.39282 22.3166,12.94721 4.2052,1.79694 8.6919,3.27054 13.5684,4.2442 4.8908,0.97651 10.1111,1.43761 15.765,1.24836 11.2624,-0.37831 20.521,-2.93562 28.6567,-6.47523 8.072,-3.51191 15.1221,-8.04208 21.6404,-12.16339 6.6963,-4.23381 12.9442,-8.1134 20.0005,-10.97371 3.5223,-1.42776 7.2309,-2.5925 11.2464,-3.38941 4.0328,-0.80036 8.409,-1.23639 13.2487,-1.17981 9.8114,0.11585 17.8542,1.85503 25.0516,4.36762 7.3305,2.55909 13.8374,5.93583 20.6026,9.3952 6.8064,3.48043 13.7906,6.99803 21.7652,9.54609 8.1103,2.59142 17.0871,4.1297 27.8305,3.77392 10.7829,-0.35782 19.616,-2.22314 27.397,-4.75151 7.8298,-2.54421 14.7241,-5.81193 21.2574,-8.84427 6.7362,-3.1265 13.1864,-6.05206 20.5241,-8.20536 7.4291,-2.18015 15.6984,-3.54041 25.7353,-3.4038 10.2558,0.14005 18.6371,1.44063 26.0454,3.2451 7.5622,1.84195 14.2792,4.25488 20.9188,6.5816 6.8632,2.40506 13.6102,4.70565 21.2999,6.34646 7.8788,1.68112 16.5313,2.61777 26.873,2.29501 10.572,-0.33017 19.1698,-1.57317 26.6821,-3.17078 7.6977,-1.63702 14.5554,-3.71973 21.0333,-5.62279 6.8635,-2.01634 13.4186,-3.86892 20.9005,-5.21157 7.7662,-1.39367 16.2621,-2.18128 26.3973,-2.00285 10.5688,0.18612 19.571,1.0009 27.4886,2.03127 8.2949,1.07948 15.8964,2.4683 22.7063,3.70019 7.5417,1.36427 14.2298,2.55761 21.3722,3.41275 7.6698,0.91828 15.2607,1.36253 23.4948,1.17118 -8.2329,0.19132 -15.8265,-0.27549 -23.4867,-1.23711 -7.127,-0.89468 -13.8174,-2.14555 -21.3362,-3.5838 -6.7871,-1.2983 -14.3958,-2.77846 -22.6833,-3.95633 -7.9184,-1.1254 -16.9372,-2.05108 -27.5366,-2.35688 -10.1846,-0.29378 -18.7526,0.37309 -26.617,1.64579 -7.5758,1.22599 -14.2201,2.96175 -21.1376,4.83776 -6.5443,1.7748 -13.3629,3.68433 -21.0048,5.14881 -7.4367,1.42516 -15.9178,2.48706 -26.3321,2.64466 -10.1332,0.15313 -18.5407,-0.9331 -26.1414,-2.73417 -7.4344,-1.76168 -13.9556,-4.16646 -20.7382,-6.74008 -6.5218,-2.47465 -13.3737,-5.14188 -21.1194,-7.22722 -7.6372,-2.05614 -16.3276,-3.6051 -26.9688,-3.95086 -10.5199,-0.34138 -19.3093,0.88492 -27.279,3.00593 -7.8222,2.08173 -14.6821,4.97623 -21.514,7.91838 -6.7081,2.88878 -13.3235,5.79307 -20.7808,8.00175 -7.3234,2.16903 -15.5587,3.69804 -25.6171,3.82499 -9.8657,0.12375 -17.9469,-1.48692 -25.1838,-4.01635 -7.2078,-2.51921 -13.5637,-5.93582 -20.273,-9.61486 -6.5298,-3.58059 -13.4941,-7.469 -21.4355,-10.48802 -7.9484,-3.02169 -16.9719,-5.2211 -27.9626,-5.58943 -5.4993,-0.1838 -10.5688,0.19085 -15.3165,1.00812 -4.7274,0.81379 -9.0913,2.0587 -13.2027,3.59348 -8.1421,3.03939 -15.2576,7.20841 -22.0376,11.22444 -6.8169,4.03789 -13.2099,7.86617 -20.3976,10.75701 -7.0422,2.83228 -14.8483,4.75672 -24.3578,4.86239 -4.6935,0.0514 -8.9184,-0.43774 -12.8001,-1.31922 -3.8729,-0.8795 -7.4591,-2.16207 -10.8806,-3.73959 -6.8934,-3.1783 -13.028,-7.49576 -19.7215,-12.28814 -6.5027,-4.6558 -13.6455,-9.84707 -21.859,-13.86966 -4.1472,-2.03108 -8.6183,-3.79464 -13.5224,-5.09639 -4.901,-1.30092 -10.1811,-2.12636 -15.9446,-2.31929 -5.8367,-0.19458 -11.234,0.36122 -16.2897,1.51082 -5.0454,1.14727 -9.6669,2.86675 -13.9695,4.93859 -8.4949,4.09058 -15.8728,9.63636 -22.5897,14.70674 -6.912,5.21764 -13.0774,9.89183 -19.9584,13.3922 -3.3754,1.71707 -6.8517,3.10868 -10.5503,4.08535 -3.6901,0.97447 -7.6753,1.55546 -12.0844,1.59901 -4.3139,0.0414 -8.1595,-0.52884 -11.6795,-1.52946 -3.5292,-1.00322 -6.8396,-2.47028 -10.0546,-4.30985 -6.5663,-3.7571 -12.4832,-8.89278 -19.1915,-14.81524 -6.4693,-5.71144 -13.7933,-12.2677 -22.2933,-17.35597 -4.333,-2.59382 -9.0615,-4.86936 -14.2957,-6.54431 -5.2532,-1.68101 -10.9174,-2.7252 -17.0821,-2.92743 -6.2858,-0.20518 -12.109,0.56945 -17.5467,2.10978 -5.4303,1.53828 -10.3404,3.80131 -14.8319,6.45301 -8.8295,5.21272 -16.4405,12.20616 -23.0792,18.30141 -6.999,6.426 -12.9605,11.8926 -19.5454,15.94722 -3.2061,1.97409 -6.4061,3.50888 -9.7469,4.56976 -3.3219,1.05488 -6.8806,1.67013 -10.8233,1.70458 -3.8254,0.0317 -7.202,-0.57916 -10.301,-1.6371 -3.1329,-1.06953 -6.153,-2.65546 -9.179,-4.72114 -3.0565,-2.08651 -6.0722,-4.62957 -9.1911,-7.57594 -3.1489,-2.97464 -6.2412,-6.20303 -9.5654,-9.68937 -3.2664,-3.42563 -6.7777,-7.12294 -10.4493,-10.64018 -3.7085,-3.55253 -7.7548,-7.09325 -12.2236,-10.25212 -4.5059,-3.18505 -9.5028,-6.0264 -15.1076,-8.12276 -5.6582,-2.11629 -11.7864,-3.4165 -18.4502,-3.62745 -6.8393,-0.21535 -13.1675,0.82532 -19.0283,2.81586 -5.8515,1.98743 -11.0491,4.8568 -15.6969,8.10956 -4.6501,3.25435 -8.8452,6.96068 -12.6539,10.67137 -3.8076,3.70975 -7.4445,7.64004 -10.7947,11.26687 -3.4626,3.7487 -6.6218,7.17598 -9.855,10.3693 -3.2261,3.18624 -6.2897,5.89928 -9.352,8.11634 -3.0629,2.21748 -6.0067,3.85164 -8.9486,4.94482 -2.9204,1.08524 -5.9851,1.69279 -9.3701,1.71963 -3.2453,0.0235 -6.0885,-0.58022 -8.741,-1.63558 -2.7235,-1.08361 -5.4717,-2.73602 -8.3495,-5.01373 -2.9215,-2.31224 -5.8543,-5.17046 -8.9396,-8.54449 -3.124,-3.41627 -6.201,-7.1331 -9.5232,-11.16224 -3.2767,-3.97399 -6.8041,-8.26688 -10.5034,-12.35915 -3.7494,-4.14756 -7.8727,-8.31359 -12.4619,-12.04955 -4.6496,-3.78508 -9.8951,-7.22632 -15.8695,-9.77971 -6.0857,-2.60092 -12.7284,-4.19334 -19.9586,-4.40985 -7.4783,-0.22285 -14.3566,1.1405 -20.6322,3.62995 -6.2726,2.48823 -11.6981,5.99226 -16.4627,9.85403 -4.7765,3.87151 -9.0375,8.23511 -12.8438,12.52019 -3.8304,4.31226 -7.4882,8.87832 -10.811,13.03125 -3.4768,4.3456 -6.604,8.26032 -9.8058,11.90993 -3.216,3.66558 -6.2124,6.71783 -9.1565,9.17735 -2.9675,2.47902 -5.6832,4.18663 -8.2487,5.28547 -2.5332,1.08496 -5.0783,1.64671 -7.8507,1.67186 -2.6179,0.0214 -4.9128,-0.52472 -7.1451,-1.53131 -2.3604,-1.06434 -4.8951,-2.76005 -7.6846,-5.25871 -2.8527,-2.55534 -5.7515,-5.75015 -8.8246,-9.55288 -3.1323,-3.87594 -6.2284,-8.10789 -9.5403,-12.6505 -3.3176,-4.55029 -6.8423,-9.39908 -10.5533,-14.03769 -3.796,-4.74492 -7.9623,-9.49497 -12.6121,-13.76434 -4.7861,-4.3945 -10.2041,-8.39968 -16.4732,-11.40177 -6.5042,-3.11465 -13.6483,-5.00378 -21.4158,-5.21173 -8.1572,-0.2177 -15.574,1.54118 -22.1695,4.46464 -6.6773,2.95972 -12.4222,7.0687 -17.3191,11.37963 -5.042,4.43874 -9.5397,9.40939 -13.5027,14.21556 -4.0818,4.95023 -7.952,10.16777 -11.4019,14.87294 -3.7492,5.11334 -6.9172,9.5003 -10.2234,13.7532 -3.3736,4.33962 -6.3815,7.86576 -9.2372,10.69568 -2.986,2.959 -5.4331,4.77909 -7.4255,5.85967 -0.4711,0.2555 -0.9072,0.46433 -1.3103,0.63522 -0.3951,0.16748 0.5373,4.68782 0.2198,9.38558 -0.3174,4.69775 -2.0538,9.40888 -3.094,9.43305 z m 0,36.23359 c 1.0402,-0.0242 3.4108,4.37455 7.0577,8.18013 3.6876,3.84796 8.2993,6.92727 9.9087,6.245 1.531,-0.64902 3.0145,-1.36996 4.4515,-2.15084 5.8889,-3.20018 11.0505,-7.43632 15.6328,-12.00267 4.3906,-4.37518 8.4523,-9.25871 12.2865,-14.23213 3.6922,-4.78921 7.2651,-9.78331 10.7748,-14.62266 3.4058,-4.6961 6.7283,-9.21352 10.0799,-13.3336 3.2557,-4.00218 6.3873,-7.43989 9.4721,-10.20426 2.9933,-2.68228 5.6959,-4.5067 8.158,-5.63611 2.2943,-1.05247 4.4882,-1.55745 6.8189,-1.52963 2.4726,0.0315 4.7773,0.56548 7.1494,1.65702 2.4006,1.10461 5.029,2.85654 7.9759,5.49201 2.898,2.59171 5.871,5.82507 9.093,9.75261 3.1863,3.88411 6.2917,8.03984 9.7797,12.70057 3.2964,4.40464 6.9595,9.29382 10.7928,13.90719 3.7847,4.55502 8.0601,9.24326 12.8803,13.42238 4.7547,4.12228 10.3006,7.98005 16.7646,10.73225 6.452,2.74706 13.6016,4.29685 21.42,4.07349 7.5156,-0.21566 14.4174,-1.96117 20.7144,-4.81717 6.1374,-2.78363 11.476,-6.51214 16.2006,-10.60748 4.6296,-4.01305 8.7793,-8.48023 12.5486,-12.92455 3.7074,-4.37133 7.2367,-8.95064 10.5272,-13.20628 3.3192,-4.29269 6.3996,-8.2616 9.522,-11.90416 3.0769,-3.58935 5.9852,-6.611 8.8614,-9.04008 2.8248,-2.38578 5.4557,-4.05991 7.9864,-5.13602 2.4346,-1.03522 5.0005,-1.61631 7.933,-1.59518 3.0817,0.0247 5.8857,0.61309 8.6066,1.69966 2.7483,1.0975 5.5865,2.78047 8.5796,5.11224 2.9985,2.33606 6.025,5.21606 9.2431,8.63728 3.2167,3.41977 6.3603,7.0907 9.8296,11.13483 3.3388,3.89195 6.9881,8.13964 10.8098,12.15108 3.8127,4.00187 8.0461,8.03782 12.7656,11.60073 4.7053,3.55226 10.0353,6.74355 16.0995,8.97543 6.0736,2.23531 12.6744,3.42962 19.8243,3.2099 6.9419,-0.21445 13.3238,-1.6569 19.1948,-4.01012 5.7932,-2.32202 10.9188,-5.46111 15.5007,-8.94633 4.5346,-3.44928 8.6232,-7.30489 12.3531,-11.15543 3.6873,-3.80671 7.2085,-7.80438 10.478,-11.50262 3.3236,-3.75943 6.4052,-7.23018 9.5382,-10.42425 3.0993,-3.15966 6.0686,-5.85947 9.0513,-8.05878 2.9446,-2.17128 5.8117,-3.79138 8.7521,-4.8787 2.8764,-1.06364 5.9921,-1.67724 9.537,-1.64997 3.6739,0.0303 6.992,0.64706 10.1148,1.72267 3.1385,1.08099 6.212,2.67175 9.3417,4.76753 3.1347,2.09912 6.2423,4.64756 9.4813,7.60447 3.2525,2.9692 6.4282,6.15345 9.8838,9.60958 3.359,3.35956 6.9795,6.9727 10.7676,10.37975 3.7965,3.41461 7.9437,6.79117 12.5139,9.73902 4.5755,2.95131 9.6316,5.51048 15.2702,7.2663 5.6465,1.75829 11.7139,2.65945 18.264,2.44908 6.4036,-0.20674 12.2913,-1.37409 17.7421,-3.26594 5.4168,-1.88006 10.2799,-4.43255 14.702,-7.31946 8.6334,-5.63613 16.037,-12.88591 22.4929,-19.12205 6.7212,-6.49249 12.5433,-12.01959 18.9588,-16.04554 3.1167,-1.95583 6.2817,-3.48998 9.6171,-4.53345 3.3151,-1.03713 6.9363,-1.63324 11.0187,-1.59676 4.1886,0.0389 7.9706,0.64206 11.4829,1.6634 3.5211,1.02387 6.8647,2.49545 10.1535,4.34416 6.7293,3.78274 12.7884,8.8578 19.7448,14.67605 6.6797,5.58683 14.1794,11.84981 22.8466,16.49445 4.3993,2.35758 9.1632,4.34037 14.3945,5.67572 5.2392,1.3374 10.8382,1.99731 16.8856,1.79742 5.9509,-0.19759 11.4118,-1.12806 16.4807,-2.61218 5.062,-1.4821 9.6585,-3.49432 13.8987,-5.80208 8.3583,-4.54909 15.5942,-10.41733 22.0798,-15.60264 6.6984,-5.35543 12.7208,-10.08986 19.4484,-13.56586 3.3178,-1.71422 6.77,-3.09761 10.4797,-4.0461 3.7099,-0.94854 7.7574,-1.48276 12.2753,-1.4364 4.6033,0.0482 8.7691,0.59795 12.6207,1.51225 3.8618,0.91672 7.4642,2.21344 10.9267,3.79023 7.0358,3.20405 13.3135,7.46389 20.1791,12.08794 6.7504,4.54651 13.9988,9.39282 22.3166,12.94721 4.2052,1.79694 8.6919,3.27054 13.5684,4.2442 4.8908,0.97651 10.1111,1.43761 15.765,1.24836 11.2624,-0.37831 20.521,-2.93562 28.6567,-6.47523 8.072,-3.51191 15.1221,-8.04208 21.6404,-12.16339 6.6963,-4.23381 12.9442,-8.1134 20.0005,-10.97371 3.5223,-1.42777 7.2309,-2.5925 11.2464,-3.38941 4.0328,-0.80036 8.409,-1.23639 13.2487,-1.17981 9.8114,0.11585 17.8542,1.85503 25.0516,4.36762 7.3305,2.55909 13.8374,5.93583 20.6026,9.3952 6.8064,3.48043 13.7906,6.99803 21.7652,9.54609 8.1103,2.59142 17.0871,4.1297 27.8305,3.77392 10.7829,-0.35782 19.616,-2.22314 27.397,-4.75151 7.8298,-2.54421 14.7241,-5.81193 21.2574,-8.84427 6.7362,-3.1265 13.1864,-6.05207 20.5241,-8.20536 7.4291,-2.18015 15.6984,-3.54041 25.7353,-3.4038 10.2558,0.14005 18.6371,1.44063 26.0454,3.2451 7.5622,1.84195 14.2792,4.25488 20.9188,6.5816 6.8632,2.40506 13.6102,4.70565 21.2999,6.34646 7.8788,1.68112 16.5313,2.61777 26.873,2.29501 10.572,-0.33017 19.1698,-1.57317 26.6821,-3.17078 7.6977,-1.63702 14.5554,-3.71973 21.0333,-5.62279 6.8635,-2.01634 13.4186,-3.86892 20.9005,-5.21157 7.7662,-1.39367 16.2621,-2.18128 26.3973,-2.00285 10.5688,0.18612 19.571,1.0009 27.4886,2.03127 8.2949,1.07948 15.8964,2.4683 22.7063,3.70019 7.5417,1.36427 14.2298,2.55761 21.3722,3.41275 7.6698,0.91828 15.2607,1.36253 23.4948,1.17118 -8.2329,0.19132 -15.8265,-0.27549 -23.4867,-1.23711 -7.127,-0.89468 -13.8174,-2.14555 -21.3362,-3.5838 -6.7871,-1.2983 -14.3958,-2.77846 -22.6833,-3.95633 -7.9184,-1.1254 -16.9372,-2.05108 -27.5366,-2.35688 -10.1846,-0.29378 -18.7526,0.37309 -26.617,1.64579 -7.5758,1.22599 -14.2201,2.96175 -21.1376,4.83776 -6.5443,1.7748 -13.3629,3.68433 -21.0048,5.14881 -7.4367,1.42516 -15.9178,2.48706 -26.3321,2.64466 -10.1332,0.15313 -18.5407,-0.9331 -26.1414,-2.73417 -7.4344,-1.76168 -13.9556,-4.16646 -20.7382,-6.74008 -6.5218,-2.47465 -13.3737,-5.14188 -21.1194,-7.22722 -7.6372,-2.05614 -16.3276,-3.6051 -26.9688,-3.95086 -10.5199,-0.34138 -19.3093,0.88492 -27.279,3.00593 -7.8222,2.08173 -14.6821,4.97623 -21.514,7.91838 -6.7081,2.88878 -13.3235,5.79307 -20.7808,8.00175 -7.3234,2.16903 -15.5587,3.69804 -25.6171,3.82499 -9.8657,0.12375 -17.9469,-1.48692 -25.1838,-4.01635 -7.2078,-2.51921 -13.5637,-5.93582 -20.273,-9.61486 -6.5298,-3.58059 -13.4941,-7.469 -21.4355,-10.48803 -7.9484,-3.02168 -16.9719,-5.22109 -27.9626,-5.58942 -5.4993,-0.1838 -10.5688,0.19085 -15.3165,1.00812 -4.7274,0.81379 -9.0913,2.0587 -13.2027,3.59348 -8.1421,3.03939 -15.2576,7.20841 -22.0376,11.22444 -6.8169,4.03789 -13.2099,7.86617 -20.3976,10.75701 -7.0422,2.83228 -14.8483,4.75672 -24.3578,4.86239 -4.6935,0.0514 -8.9184,-0.43774 -12.8001,-1.31922 -3.8729,-0.8795 -7.4591,-2.16207 -10.8806,-3.73959 -6.8934,-3.1783 -13.028,-7.49576 -19.7215,-12.28814 -6.5027,-4.6558 -13.6455,-9.84707 -21.859,-13.86966 -4.1472,-2.03108 -8.6183,-3.79464 -13.5224,-5.09639 -4.901,-1.30092 -10.1811,-2.12636 -15.9446,-2.31929 -5.8367,-0.19458 -11.234,0.36122 -16.2897,1.51082 -5.0454,1.14727 -9.6669,2.86675 -13.9695,4.93859 -8.4949,4.09058 -15.8728,9.63636 -22.5897,14.70673 -6.912,5.21765 -13.0774,9.89184 -19.9584,13.39221 -3.3754,1.71707 -6.8517,3.10868 -10.5503,4.08535 -3.6901,0.97447 -7.6753,1.55546 -12.0844,1.59901 -4.3139,0.0414 -8.1595,-0.52884 -11.6795,-1.52946 -3.5292,-1.00322 -6.8396,-2.47028 -10.0546,-4.30985 -6.5663,-3.7571 -12.4832,-8.89278 -19.1915,-14.81524 -6.4693,-5.71144 -13.7933,-12.2677 -22.2933,-17.35597 -4.333,-2.59382 -9.0615,-4.86936 -14.2957,-6.54431 -5.2532,-1.68101 -10.9174,-2.7252 -17.0821,-2.92743 -6.2858,-0.20518 -12.109,0.56945 -17.5467,2.10978 -5.4303,1.53828 -10.3404,3.80131 -14.8319,6.45301 -8.8295,5.21272 -16.4405,12.20616 -23.0792,18.30141 -6.999,6.426 -12.9605,11.8926 -19.5454,15.94722 -3.2061,1.97409 -6.4061,3.50888 -9.7469,4.56976 -3.3219,1.05488 -6.8806,1.67013 -10.8233,1.70458 -3.8254,0.0317 -7.202,-0.57916 -10.301,-1.6371 -3.1329,-1.06953 -6.153,-2.65546 -9.179,-4.72114 -3.0565,-2.08651 -6.0722,-4.62957 -9.1911,-7.57594 -3.1489,-2.97464 -6.2412,-6.20303 -9.5654,-9.68937 -3.2664,-3.42563 -6.7777,-7.12294 -10.4493,-10.64018 -3.7085,-3.55253 -7.7548,-7.09325 -12.2236,-10.25212 -4.5059,-3.18505 -9.5028,-6.0264 -15.1076,-8.12276 -5.6582,-2.11629 -11.7864,-3.4165 -18.4502,-3.62745 -6.8393,-0.21535 -13.1675,0.82532 -19.0283,2.81586 -5.8515,1.98743 -11.0491,4.8568 -15.6969,8.10956 -4.6501,3.25435 -8.8452,6.96067 -12.6539,10.67137 -3.8076,3.70975 -7.4445,7.64004 -10.7947,11.26687 -3.4626,3.7487 -6.6218,7.17598 -9.855,10.3693 -3.2261,3.18624 -6.2897,5.89928 -9.352,8.11634 -3.0629,2.21748 -6.0067,3.85164 -8.9486,4.94482 -2.9204,1.08524 -5.9851,1.69279 -9.3701,1.71963 -3.2453,0.0235 -6.0885,-0.58022 -8.741,-1.63558 -2.7235,-1.08361 -5.4717,-2.73603 -8.3495,-5.01373 -2.9215,-2.31224 -5.8543,-5.17046 -8.9396,-8.54449 -3.124,-3.41627 -6.201,-7.1331 -9.5232,-11.16224 -3.2767,-3.97399 -6.8041,-8.26688 -10.5034,-12.35915 -3.7494,-4.14756 -7.8727,-8.31359 -12.4619,-12.04955 -4.6496,-3.78508 -9.8951,-7.22632 -15.8695,-9.77971 -6.0857,-2.60092 -12.7284,-4.19334 -19.9586,-4.40985 -7.4783,-0.22285 -14.3566,1.1405 -20.6322,3.62995 -6.2726,2.48823 -11.6981,5.99226 -16.4627,9.85403 -4.7765,3.87151 -9.0375,8.23511 -12.8438,12.52019 -3.8304,4.31226 -7.4882,8.87832 -10.811,13.03125 -3.4768,4.3456 -6.604,8.26032 -9.8058,11.90993 -3.216,3.66558 -6.2124,6.71783 -9.1565,9.17735 -2.9675,2.47902 -5.6832,4.18663 -8.2487,5.28547 -2.5332,1.08496 -5.0783,1.64671 -7.8507,1.67186 -2.6179,0.0214 -4.9128,-0.52472 -7.1451,-1.53131 -2.3604,-1.06434 -4.8951,-2.76005 -7.6846,-5.25871 -2.8527,-2.55534 -5.7515,-5.75015 -8.8246,-9.55288 -3.1323,-3.87594 -6.2284,-8.10789 -9.5403,-12.6505 -3.3176,-4.55029 -6.8423,-9.39908 -10.5533,-14.03769 -3.796,-4.74492 -7.9623,-9.49497 -12.6121,-13.76434 -4.7861,-4.3945 -10.2041,-8.39968 -16.4732,-11.40177 -6.5042,-3.11465 -13.6483,-5.00378 -21.4158,-5.21173 -8.1572,-0.2177 -15.574,1.54118 -22.1695,4.46464 -6.6773,2.95972 -12.4222,7.0687 -17.3191,11.37963 -5.042,4.43874 -9.5397,9.40939 -13.5027,14.21556 -4.0818,4.95023 -7.952,10.16777 -11.4019,14.87293 -3.7492,5.11335 -6.9172,9.50031 -10.2234,13.75321 -3.3736,4.33962 -6.3815,7.86576 -9.2372,10.69568 -2.986,2.959 -5.4331,4.77909 -7.4255,5.85967 -0.4711,0.2555 -0.9072,0.46433 -1.3103,0.63522 -0.3951,0.16748 0.5373,4.68782 0.2198,9.38558 -0.3174,4.69775 -2.0538,9.40888 -3.094,9.43305 z m 0,36.23359 c 1.0402,-0.0242 3.4108,4.37455 7.0577,8.18013 3.6876,3.84796 8.2993,6.92727 9.9087,6.245 1.531,-0.64902 3.0145,-1.36996 4.4515,-2.15084 5.8889,-3.20018 11.0505,-7.43632 15.6328,-12.00267 4.3906,-4.37518 8.4523,-9.25871 12.2865,-14.23213 3.6922,-4.78921 7.2651,-9.78331 10.7748,-14.62266 3.4058,-4.6961 6.7283,-9.21352 10.0799,-13.3336 3.2557,-4.00218 6.3873,-7.43989 9.4721,-10.20426 2.9933,-2.68228 5.6959,-4.50671 8.158,-5.63611 2.2943,-1.05247 4.4882,-1.55745 6.8189,-1.52963 2.4726,0.0315 4.7773,0.56548 7.1494,1.65702 2.4006,1.10461 5.029,2.85654 7.9759,5.49201 2.898,2.59171 5.871,5.82507 9.093,9.75261 3.1863,3.88411 6.2917,8.03984 9.7797,12.70057 3.2964,4.40464 6.9595,9.29382 10.7928,13.90719 3.7847,4.55502 8.0601,9.24326 12.8803,13.42238 4.7547,4.12228 10.3006,7.98005 16.7646,10.73225 6.452,2.74706 13.6016,4.29685 21.42,4.07349 7.5156,-0.21566 14.4174,-1.96117 20.7144,-4.81717 6.1374,-2.78363 11.476,-6.51214 16.2006,-10.60748 4.6296,-4.01305 8.7793,-8.48023 12.5486,-12.92455 3.7074,-4.37133 7.2367,-8.95064 10.5272,-13.20628 3.3192,-4.29269 6.3996,-8.2616 9.522,-11.90416 3.0769,-3.58935 5.9852,-6.611 8.8614,-9.04008 2.8248,-2.38578 5.4557,-4.05991 7.9864,-5.13602 2.4346,-1.03522 5.0005,-1.61631 7.933,-1.59518 3.0817,0.0247 5.8857,0.61309 8.6066,1.69965 2.7483,1.09751 5.5865,2.78048 8.5796,5.11225 2.9985,2.33606 6.025,5.21606 9.2431,8.63728 3.2167,3.41977 6.3603,7.0907 9.8296,11.13483 3.3388,3.89195 6.9881,8.13964 10.8098,12.15108 3.8127,4.00187 8.0461,8.03782 12.7656,11.60073 4.7053,3.55226 10.0353,6.74355 16.0995,8.97543 6.0736,2.23531 12.6744,3.42962 19.8243,3.2099 6.9419,-0.21445 13.3238,-1.6569 19.1948,-4.01012 5.7932,-2.32202 10.9188,-5.46111 15.5007,-8.94633 4.5346,-3.44928 8.6232,-7.30489 12.3531,-11.15543 3.6873,-3.80671 7.2085,-7.80438 10.478,-11.50262 3.3236,-3.75943 6.4052,-7.23018 9.5382,-10.42425 3.0993,-3.15966 6.0686,-5.85947 9.0513,-8.05878 2.9446,-2.17128 5.8117,-3.79138 8.7521,-4.8787 2.8764,-1.06364 5.9921,-1.67724 9.537,-1.64997 3.6739,0.0303 6.992,0.64706 10.1148,1.72267 3.1385,1.08099 6.212,2.67175 9.3417,4.76753 3.1347,2.09912 6.2423,4.64756 9.4813,7.60447 3.2525,2.9692 6.4282,6.15345 9.8838,9.60958 3.359,3.35956 6.9795,6.9727 10.7676,10.37975 3.7965,3.41461 7.9437,6.79117 12.5139,9.73902 4.5755,2.95131 9.6316,5.51048 15.2702,7.2663 5.6465,1.75829 11.7139,2.65945 18.264,2.44908 6.4036,-0.20674 12.2913,-1.37409 17.7421,-3.26594 5.4168,-1.88006 10.2799,-4.43255 14.702,-7.31946 8.6334,-5.63613 16.037,-12.88591 22.4929,-19.12205 6.7212,-6.49249 12.5433,-12.01959 18.9588,-16.04554 3.1167,-1.95583 6.2817,-3.48998 9.6171,-4.53345 3.3151,-1.03713 6.9363,-1.63324 11.0187,-1.59676 4.1886,0.0389 7.9706,0.64206 11.4829,1.6634 3.5211,1.02387 6.8647,2.49545 10.1535,4.34416 6.7293,3.78274 12.7884,8.8578 19.7448,14.67605 6.6797,5.58683 14.1794,11.84981 22.8466,16.49444 4.3993,2.35759 9.1632,4.34038 14.3945,5.67573 5.2392,1.3374 10.8382,1.99731 16.8856,1.79742 5.9509,-0.19759 11.4118,-1.12806 16.4807,-2.61218 5.062,-1.4821 9.6585,-3.49432 13.8987,-5.80208 8.3583,-4.54909 15.5942,-10.41733 22.0798,-15.60264 6.6984,-5.35543 12.7208,-10.08986 19.4484,-13.56586 3.3178,-1.71422 6.77,-3.09761 10.4797,-4.0461 3.7099,-0.94854 7.7574,-1.48276 12.2753,-1.4364 4.6033,0.0482 8.7691,0.59795 12.6207,1.51225 3.8618,0.91672 7.4642,2.21344 10.9267,3.79023 7.0358,3.20405 13.3135,7.46389 20.1791,12.08794 6.7504,4.54651 13.9988,9.39282 22.3166,12.94721 4.2052,1.79694 8.6919,3.27054 13.5684,4.2442 4.8908,0.97651 10.1111,1.43761 15.765,1.24836 11.2624,-0.37831 20.521,-2.93562 28.6567,-6.47523 8.072,-3.51191 15.1221,-8.04208 21.6404,-12.16339 6.6963,-4.23381 12.9442,-8.1134 20.0005,-10.97371 3.5223,-1.42777 7.2309,-2.5925 11.2464,-3.38942 4.0328,-0.80035 8.409,-1.23638 13.2487,-1.1798 9.8114,0.11585 17.8542,1.85503 25.0516,4.36762 7.3305,2.55909 13.8374,5.93583 20.6026,9.3952 6.8064,3.48043 13.7906,6.99803 21.7652,9.54609 8.1103,2.59142 17.0871,4.1297 27.8305,3.77392 10.7829,-0.35782 19.616,-2.22314 27.397,-4.75151 7.8298,-2.54421 14.7241,-5.81193 21.2574,-8.84427 6.7362,-3.1265 13.1864,-6.05207 20.5241,-8.20536 7.4291,-2.18015 15.6984,-3.54041 25.7353,-3.4038 10.2558,0.14005 18.6371,1.44063 26.0454,3.2451 7.5622,1.84195 14.2792,4.25488 20.9188,6.5816 6.8632,2.40506 13.6102,4.70565 21.2999,6.34646 7.8788,1.68112 16.5313,2.61777 26.873,2.29501 10.572,-0.33017 19.1698,-1.57317 26.6821,-3.17078 7.6977,-1.63702 14.5554,-3.71973 21.0333,-5.62279 6.8635,-2.01635 13.4186,-3.86892 20.9005,-5.21157 7.7662,-1.39367 16.2621,-2.18128 26.3973,-2.00285 10.5688,0.18612 19.571,1.0009 27.4886,2.03127 8.2949,1.07948 15.8964,2.4683 22.7063,3.70019 7.5417,1.36427 14.2298,2.55761 21.3722,3.41275 7.6698,0.91828 15.2607,1.36253 23.4948,1.17118 -8.2329,0.19132 -15.8265,-0.27549 -23.4867,-1.23711 -7.127,-0.89468 -13.8174,-2.14555 -21.3362,-3.5838 -6.7871,-1.2983 -14.3958,-2.77846 -22.6833,-3.95633 -7.9184,-1.1254 -16.9372,-2.05108 -27.5366,-2.35688 -10.1846,-0.29378 -18.7526,0.37309 -26.617,1.64579 -7.5758,1.22599 -14.2201,2.96175 -21.1376,4.83776 -6.5443,1.7748 -13.3629,3.68433 -21.0048,5.14881 -7.4367,1.42516 -15.9178,2.48706 -26.3321,2.64465 -10.1332,0.15314 -18.5407,-0.93309 -26.1414,-2.73416 -7.4344,-1.76168 -13.9556,-4.16646 -20.7382,-6.74008 -6.5218,-2.47465 -13.3737,-5.14188 -21.1194,-7.22722 -7.6372,-2.05614 -16.3276,-3.6051 -26.9688,-3.95086 -10.5199,-0.34138 -19.3093,0.88492 -27.279,3.00593 -7.8222,2.08173 -14.6821,4.97623 -21.514,7.91838 -6.7081,2.88878 -13.3235,5.79307 -20.7808,8.00175 -7.3234,2.16903 -15.5587,3.69804 -25.6171,3.82499 -9.8657,0.12374 -17.9469,-1.48692 -25.1838,-4.01635 -7.2078,-2.51921 -13.5637,-5.93582 -20.273,-9.61486 -6.5298,-3.58059 -13.4941,-7.469 -21.4355,-10.48803 -7.9484,-3.02168 -16.9719,-5.22109 -27.9626,-5.58942 -5.4993,-0.1838 -10.5688,0.19085 -15.3165,1.00812 -4.7274,0.81379 -9.0913,2.0587 -13.2027,3.59348 -8.1421,3.03939 -15.2576,7.20841 -22.0376,11.22444 -6.8169,4.03789 -13.2099,7.86617 -20.3976,10.75701 -7.0422,2.83228 -14.8483,4.75672 -24.3578,4.86239 -4.6935,0.0514 -8.9184,-0.43774 -12.8001,-1.31922 -3.8729,-0.8795 -7.4591,-2.16207 -10.8806,-3.73959 -6.8934,-3.1783 -13.028,-7.49576 -19.7215,-12.28814 -6.5027,-4.6558 -13.6455,-9.84707 -21.859,-13.86966 -4.1472,-2.03108 -8.6183,-3.79464 -13.5224,-5.09639 -4.901,-1.30092 -10.1811,-2.12637 -15.9446,-2.31929 -5.8367,-0.19458 -11.234,0.36122 -16.2897,1.51082 -5.0454,1.14727 -9.6669,2.86675 -13.9695,4.93859 -8.4949,4.09058 -15.8728,9.63636 -22.5897,14.70673 -6.912,5.21765 -13.0774,9.89184 -19.9584,13.39221 -3.3754,1.71707 -6.8517,3.10868 -10.5503,4.08535 -3.6901,0.97447 -7.6753,1.55546 -12.0844,1.599 -4.3139,0.0414 -8.1595,-0.52883 -11.6795,-1.52945 -3.5292,-1.00322 -6.8396,-2.47028 -10.0546,-4.30985 -6.5663,-3.7571 -12.4832,-8.89278 -19.1915,-14.81524 -6.4693,-5.71144 -13.7933,-12.2677 -22.2933,-17.35597 -4.333,-2.59382 -9.0615,-4.86936 -14.2957,-6.54431 -5.2532,-1.68101 -10.9174,-2.7252 -17.0821,-2.92743 -6.2858,-0.20518 -12.109,0.56945 -17.5467,2.10978 -5.4303,1.53828 -10.3404,3.80131 -14.8319,6.45301 -8.8295,5.21272 -16.4405,12.20616 -23.0792,18.30141 -6.999,6.426 -12.9605,11.8926 -19.5454,15.94722 -3.2061,1.97409 -6.4061,3.50888 -9.7469,4.56976 -3.3219,1.05488 -6.8806,1.67013 -10.8233,1.70458 -3.8254,0.0317 -7.202,-0.57916 -10.301,-1.6371 -3.1329,-1.06953 -6.153,-2.65546 -9.179,-4.72114 -3.0565,-2.08651 -6.0722,-4.62957 -9.1911,-7.57594 -3.1489,-2.97464 -6.2412,-6.20303 -9.5654,-9.68937 -3.2664,-3.42563 -6.7777,-7.12294 -10.4493,-10.64018 -3.7085,-3.55253 -7.7548,-7.09325 -12.2236,-10.25212 -4.5059,-3.18505 -9.5028,-6.0264 -15.1076,-8.12276 -5.6582,-2.11629 -11.7864,-3.4165 -18.4502,-3.62745 -6.8393,-0.21535 -13.1675,0.82532 -19.0283,2.81586 -5.8515,1.98743 -11.0491,4.8568 -15.6969,8.10956 -4.6501,3.25435 -8.8452,6.96067 -12.6539,10.67137 -3.8076,3.70975 -7.4445,7.64004 -10.7947,11.26687 -3.4626,3.7487 -6.6218,7.17598 -9.855,10.3693 -3.2261,3.18624 -6.2897,5.89928 -9.352,8.11634 -3.0629,2.21748 -6.0067,3.85164 -8.9486,4.94482 -2.9204,1.08524 -5.9851,1.69279 -9.3701,1.71963 -3.2453,0.0235 -6.0885,-0.58022 -8.741,-1.63558 -2.7235,-1.08361 -5.4717,-2.73603 -8.3495,-5.01373 -2.9215,-2.31224 -5.8543,-5.17046 -8.9396,-8.54449 -3.124,-3.41627 -6.201,-7.1331 -9.5232,-11.16224 -3.2767,-3.97399 -6.8041,-8.26688 -10.5034,-12.35915 -3.7494,-4.14756 -7.8727,-8.31359 -12.4619,-12.04955 -4.6496,-3.78508 -9.8951,-7.22632 -15.8695,-9.77971 -6.0857,-2.60092 -12.7284,-4.19334 -19.9586,-4.40985 -7.4783,-0.22285 -14.3566,1.1405 -20.6322,3.62995 -6.2726,2.48823 -11.6981,5.99226 -16.4627,9.85403 -4.7765,3.87151 -9.0375,8.23511 -12.8438,12.52019 -3.8304,4.31226 -7.4882,8.87832 -10.811,13.03125 -3.4768,4.3456 -6.604,8.26032 -9.8058,11.90993 -3.216,3.66558 -6.2124,6.71783 -9.1565,9.17735 -2.9675,2.47902 -5.6832,4.18663 -8.2487,5.28547 -2.5332,1.08496 -5.0783,1.64671 -7.8507,1.67186 -2.6179,0.0214 -4.9128,-0.52472 -7.1451,-1.53131 -2.3604,-1.06434 -4.8951,-2.76005 -7.6846,-5.25871 -2.8527,-2.55534 -5.7515,-5.75015 -8.8246,-9.55288 -3.1323,-3.87594 -6.2284,-8.10789 -9.5403,-12.6505 -3.3176,-4.55029 -6.8423,-9.39908 -10.5533,-14.03769 -3.796,-4.74492 -7.9623,-9.49497 -12.6121,-13.76434 -4.7861,-4.3945 -10.2041,-8.39968 -16.4732,-11.40177 -6.5042,-3.11465 -13.6483,-5.00378 -21.4158,-5.21173 -8.1572,-0.2177 -15.574,1.54118 -22.1695,4.46464 -6.6773,2.95972 -12.4222,7.0687 -17.3191,11.37963 -5.042,4.43874 -9.5397,9.40939 -13.5027,14.21556 -4.0818,4.95023 -7.952,10.16777 -11.4019,14.87293 -3.7492,5.11335 -6.9172,9.50031 -10.2234,13.75321 -3.3736,4.33962 -6.3815,7.86576 -9.2372,10.69568 -2.986,2.959 -5.4331,4.77909 -7.4255,5.85967 -0.4711,0.2555 -0.9072,0.46433 -1.3103,0.63522 -0.3951,0.16748 0.5373,4.68782 0.2198,9.38558 -0.3174,4.69775 -2.0538,9.40888 -3.094,9.43305 z m 0,36.23359 c 1.0402,-0.0242 3.4108,4.37455 7.0577,8.18013 3.6876,3.84796 8.2993,6.92727 9.9087,6.245 1.531,-0.64902 3.0145,-1.36996 4.4515,-2.15084 5.8889,-3.20018 11.0505,-7.43632 15.6328,-12.00267 4.3906,-4.37518 8.4523,-9.25871 12.2865,-14.23213 3.6922,-4.78921 7.2651,-9.78331 10.7748,-14.62266 3.4058,-4.6961 6.7283,-9.21352 10.0799,-13.3336 3.2557,-4.00218 6.3873,-7.43989 9.4721,-10.20426 2.9933,-2.68228 5.6959,-4.50671 8.158,-5.63611 2.2943,-1.05247 4.4882,-1.55745 6.8189,-1.52963 2.4726,0.0315 4.7773,0.56548 7.1494,1.65702 2.4006,1.10461 5.029,2.85654 7.9759,5.49201 2.898,2.59171 5.871,5.82507 9.093,9.75261 3.1863,3.88411 6.2917,8.03984 9.7797,12.70057 3.2964,4.40464 6.9595,9.29382 10.7928,13.90719 3.7847,4.55502 8.0601,9.24326 12.8803,13.42238 4.7547,4.12228 10.3006,7.98005 16.7646,10.73225 6.452,2.74706 13.6016,4.29685 21.42,4.07349 7.5156,-0.21566 14.4174,-1.96117 20.7144,-4.81717 6.1374,-2.78363 11.476,-6.51214 16.2006,-10.60748 4.6296,-4.01305 8.7793,-8.48023 12.5486,-12.92455 3.7074,-4.37133 7.2367,-8.95064 10.5272,-13.20628 3.3192,-4.29269 6.3996,-8.2616 9.522,-11.90416 3.0769,-3.58935 5.9852,-6.611 8.8614,-9.04008 2.8248,-2.38578 5.4557,-4.05991 7.9864,-5.13602 2.4346,-1.03522 5.0005,-1.61631 7.933,-1.59518 3.0817,0.0247 5.8857,0.61309 8.6066,1.69965 2.7483,1.09751 5.5865,2.78048 8.5796,5.11225 2.9985,2.33606 6.025,5.21606 9.2431,8.63728 3.2167,3.41977 6.3603,7.0907 9.8296,11.13483 3.3388,3.89195 6.9881,8.13964 10.8098,12.15108 3.8127,4.00187 8.0461,8.03782 12.7656,11.60073 4.7053,3.55226 10.0353,6.74355 16.0995,8.97543 6.0736,2.23531 12.6744,3.42962 19.8243,3.2099 6.9419,-0.21445 13.3238,-1.6569 19.1948,-4.01012 5.7932,-2.32202 10.9188,-5.46111 15.5007,-8.94633 4.5346,-3.44928 8.6232,-7.30489 12.3531,-11.15543 3.6873,-3.80671 7.2085,-7.80438 10.478,-11.50262 3.3236,-3.75943 6.4052,-7.23018 9.5382,-10.42425 3.0993,-3.15966 6.0686,-5.85947 9.0513,-8.05878 2.9446,-2.17128 5.8117,-3.79138 8.7521,-4.8787 2.8764,-1.06364 5.9921,-1.67724 9.537,-1.64997 3.6739,0.0303 6.992,0.64706 10.1148,1.72267 3.1385,1.08099 6.212,2.67175 9.3417,4.76753 3.1347,2.09912 6.2423,4.64756 9.4813,7.60447 3.2525,2.9692 6.4282,6.15345 9.8838,9.60958 3.359,3.35956 6.9795,6.9727 10.7676,10.37975 3.7965,3.41461 7.9437,6.79117 12.5139,9.73902 4.5755,2.95131 9.6316,5.51048 15.2702,7.2663 5.6465,1.75829 11.7139,2.65945 18.264,2.44908 6.4036,-0.20674 12.2913,-1.37409 17.7421,-3.26594 5.4168,-1.88006 10.2799,-4.43255 14.702,-7.31946 8.6334,-5.63613 16.037,-12.88591 22.4929,-19.12205 6.7212,-6.49249 12.5433,-12.01959 18.9588,-16.04554 3.1167,-1.95583 6.2817,-3.48998 9.6171,-4.53345 3.3151,-1.03713 6.9363,-1.63324 11.0187,-1.59676 4.1886,0.0389 7.9706,0.64206 11.4829,1.6634 3.5211,1.02387 6.8647,2.49545 10.1535,4.34416 6.7293,3.78273 12.7884,8.8578 19.7448,14.67605 6.6797,5.58683 14.1794,11.84981 22.8466,16.49444 4.3993,2.35759 9.1632,4.34038 14.3945,5.67573 5.2392,1.3374 10.8382,1.99731 16.8856,1.79742 5.9509,-0.19759 11.4118,-1.12806 16.4807,-2.61218 5.062,-1.4821 9.6585,-3.49432 13.8987,-5.80208 8.3583,-4.5491 15.5942,-10.41733 22.0798,-15.60264 6.6984,-5.35543 12.7208,-10.08986 19.4484,-13.56586 3.3178,-1.71422 6.77,-3.09761 10.4797,-4.0461 3.7099,-0.94854 7.7574,-1.48276 12.2753,-1.4364 4.6033,0.0482 8.7691,0.59795 12.6207,1.51225 3.8618,0.91672 7.4642,2.21344 10.9267,3.79023 7.0358,3.20405 13.3135,7.46389 20.1791,12.08794 6.7504,4.54651 13.9988,9.39282 22.3166,12.94721 4.2052,1.79694 8.6919,3.27054 13.5684,4.2442 4.8908,0.97651 10.1111,1.43761 15.765,1.24836 11.2624,-0.37831 20.521,-2.93562 28.6567,-6.47523 8.072,-3.51191 15.1221,-8.04208 21.6404,-12.16339 6.6963,-4.23381 12.9442,-8.1134 20.0005,-10.97371 3.5223,-1.42777 7.2309,-2.5925 11.2464,-3.38942 4.0328,-0.80035 8.409,-1.23638 13.2487,-1.1798 9.8114,0.11585 17.8542,1.85503 25.0516,4.36762 7.3305,2.55909 13.8374,5.93583 20.6026,9.3952 6.8064,3.48043 13.7906,6.99803 21.7652,9.54609 8.1103,2.59142 17.0871,4.12969 27.8305,3.77392 10.7829,-0.35782 19.616,-2.22314 27.397,-4.75151 7.8298,-2.54421 14.7241,-5.81193 21.2574,-8.84427 6.7362,-3.1265 13.1864,-6.05207 20.5241,-8.20536 7.4291,-2.18015 15.6984,-3.54041 25.7353,-3.4038 10.2558,0.14005 18.6371,1.44063 26.0454,3.2451 7.5622,1.84195 14.2792,4.25488 20.9188,6.58159 6.8632,2.40507 13.6102,4.70566 21.2999,6.34646 7.8788,1.68113 16.5313,2.61778 26.873,2.29502 10.572,-0.33017 19.1698,-1.57317 26.6821,-3.17078 7.6977,-1.63702 14.5554,-3.71973 21.0333,-5.62279 6.8635,-2.01635 13.4186,-3.86892 20.9005,-5.21157 7.7662,-1.39367 16.2621,-2.18128 26.3973,-2.00285 10.5688,0.18612 19.571,1.0009 27.4886,2.03127 8.2949,1.07948 15.8964,2.46829 22.7063,3.70019 7.5417,1.36427 14.2298,2.55761 21.3722,3.41275 7.6698,0.91827 15.2607,1.36253 23.4948,1.17118 -8.2329,0.19132 -15.8265,-0.27549 -23.4867,-1.23711 -7.127,-0.89468 -13.8174,-2.14555 -21.3362,-3.5838 -6.7871,-1.2983 -14.3958,-2.77846 -22.6833,-3.95633 -7.9184,-1.1254 -16.9372,-2.05108 -27.5366,-2.35688 -10.1846,-0.29378 -18.7526,0.37309 -26.617,1.64579 -7.5758,1.22599 -14.2201,2.96175 -21.1376,4.83776 -6.5443,1.7748 -13.3629,3.68433 -21.0048,5.14881 -7.4367,1.42516 -15.9178,2.48706 -26.3321,2.64465 -10.1332,0.15314 -18.5407,-0.93309 -26.1414,-2.73416 -7.4344,-1.76168 -13.9556,-4.16646 -20.7382,-6.74008 -6.5218,-2.47465 -13.3737,-5.14188 -21.1194,-7.22722 -7.6372,-2.05614 -16.3276,-3.6051 -26.9688,-3.95086 -10.5199,-0.34138 -19.3093,0.88492 -27.279,3.00593 -7.8222,2.08173 -14.6821,4.97623 -21.514,7.91838 -6.7081,2.88878 -13.3235,5.79307 -20.7808,8.00175 -7.3234,2.16903 -15.5587,3.69804 -25.6171,3.82499 -9.8657,0.12374 -17.9469,-1.48692 -25.1838,-4.01635 -7.2078,-2.51921 -13.5637,-5.93582 -20.273,-9.61486 -6.5298,-3.58059 -13.4941,-7.469 -21.4355,-10.48803 -7.9484,-3.02168 -16.9719,-5.22109 -27.9626,-5.58942 -5.4993,-0.1838 -10.5688,0.19085 -15.3165,1.00812 -4.7274,0.81379 -9.0913,2.0587 -13.2027,3.59347 -8.1421,3.0394 -15.2576,7.20842 -22.0376,11.22444 -6.8169,4.0379 -13.2099,7.86618 -20.3976,10.75702 -7.0422,2.83228 -14.8483,4.75672 -24.3578,4.86239 -4.6935,0.0514 -8.9184,-0.43774 -12.8001,-1.31922 -3.8729,-0.8795 -7.4591,-2.16207 -10.8806,-3.73959 -6.8934,-3.1783 -13.028,-7.49576 -19.7215,-12.28814 -6.5027,-4.6558 -13.6455,-9.84707 -21.859,-13.86966 -4.1472,-2.03108 -8.6183,-3.79464 -13.5224,-5.09639 -4.901,-1.30092 -10.1811,-2.12637 -15.9446,-2.31929 -5.8367,-0.19458 -11.234,0.36122 -16.2897,1.51082 -5.0454,1.14727 -9.6669,2.86675 -13.9695,4.93859 -8.4949,4.09058 -15.8728,9.63636 -22.5897,14.70673 -6.912,5.21765 -13.0774,9.89184 -19.9584,13.39221 -3.3754,1.71706 -6.8517,3.10868 -10.5503,4.08535 -3.6901,0.97447 -7.6753,1.55546 -12.0844,1.599 -4.3139,0.0414 -8.1595,-0.52883 -11.6795,-1.52945 -3.5292,-1.00322 -6.8396,-2.47028 -10.0546,-4.30985 -6.5663,-3.7571 -12.4832,-8.89278 -19.1915,-14.81524 -6.4693,-5.71144 -13.7933,-12.2677 -22.2933,-17.35597 -4.333,-2.59382 -9.0615,-4.86936 -14.2957,-6.54431 -5.2532,-1.68101 -10.9174,-2.7252 -17.0821,-2.92743 -6.2858,-0.20518 -12.109,0.56945 -17.5467,2.10978 -5.4303,1.53828 -10.3404,3.80131 -14.8319,6.45301 -8.8295,5.21272 -16.4405,12.20616 -23.0792,18.30141 -6.999,6.426 -12.9605,11.8926 -19.5454,15.94722 -3.2061,1.97409 -6.4061,3.50888 -9.7469,4.56976 -3.3219,1.05488 -6.8806,1.67013 -10.8233,1.70458 -3.8254,0.0317 -7.202,-0.57916 -10.301,-1.6371 -3.1329,-1.06953 -6.153,-2.65546 -9.179,-4.72114 -3.0565,-2.08651 -6.0722,-4.62957 -9.1911,-7.57594 -3.1489,-2.97464 -6.2412,-6.20303 -9.5654,-9.68937 -3.2664,-3.42563 -6.7777,-7.12294 -10.4493,-10.64018 -3.7085,-3.55253 -7.7548,-7.09325 -12.2236,-10.25212 -4.5059,-3.18505 -9.5028,-6.0264 -15.1076,-8.12276 -5.6582,-2.11629 -11.7864,-3.4165 -18.4502,-3.62745 -6.8393,-0.21535 -13.1675,0.82532 -19.0283,2.81586 -5.8515,1.98743 -11.0491,4.8568 -15.6969,8.10956 -4.6501,3.25435 -8.8452,6.96067 -12.6539,10.67137 -3.8076,3.70975 -7.4445,7.64003 -10.7947,11.26687 -3.4626,3.7487 -6.6218,7.17598 -9.855,10.3693 -3.2261,3.18624 -6.2897,5.89928 -9.352,8.11634 -3.0629,2.21748 -6.0067,3.85164 -8.9486,4.94482 -2.9204,1.08524 -5.9851,1.69279 -9.3701,1.71963 -3.2453,0.0235 -6.0885,-0.58022 -8.741,-1.63558 -2.7235,-1.08361 -5.4717,-2.73603 -8.3495,-5.01373 -2.9215,-2.31224 -5.8543,-5.17046 -8.9396,-8.54449 -3.124,-3.41627 -6.201,-7.1331 -9.5232,-11.16224 -3.2767,-3.97399 -6.8041,-8.26688 -10.5034,-12.35915 -3.7494,-4.14756 -7.8727,-8.31359 -12.4619,-12.04955 -4.6496,-3.78508 -9.8951,-7.22632 -15.8695,-9.77971 -6.0857,-2.60092 -12.7284,-4.19334 -19.9586,-4.40985 -7.4783,-0.22285 -14.3566,1.1405 -20.6322,3.62995 -6.2726,2.48823 -11.6981,5.99226 -16.4627,9.85403 -4.7765,3.87151 -9.0375,8.23511 -12.8438,12.52019 -3.8304,4.31226 -7.4882,8.87832 -10.811,13.03125 -3.4768,4.3456 -6.604,8.26032 -9.8058,11.90993 -3.216,3.66558 -6.2124,6.71783 -9.1565,9.17735 -2.9675,2.47902 -5.6832,4.18663 -8.2487,5.28547 -2.5332,1.08496 -5.0783,1.6467 -7.8507,1.67186 -2.6179,0.0214 -4.9128,-0.52472 -7.1451,-1.53131 -2.3604,-1.06434 -4.8951,-2.76005 -7.6846,-5.25871 -2.8527,-2.55534 -5.7515,-5.75015 -8.8246,-9.55288 -3.1323,-3.87594 -6.2284,-8.10789 -9.5403,-12.6505 -3.3176,-4.55029 -6.8423,-9.39908 -10.5533,-14.03769 -3.796,-4.74492 -7.9623,-9.49497 -12.6121,-13.76434 -4.7861,-4.3945 -10.2041,-8.39968 -16.4732,-11.40177 -6.5042,-3.11465 -13.6483,-5.00378 -21.4158,-5.21173 -8.1572,-0.2177 -15.574,1.54118 -22.1695,4.46464 -6.6773,2.95972 -12.4222,7.0687 -17.3191,11.37963 -5.042,4.43874 -9.5397,9.40939 -13.5027,14.21556 -4.0818,4.95023 -7.952,10.16777 -11.4019,14.87293 -3.7492,5.11335 -6.9172,9.50031 -10.2234,13.75321 -3.3736,4.33962 -6.3815,7.86576 -9.2372,10.69568 -2.986,2.959 -5.4331,4.77909 -7.4255,5.85967 -0.4711,0.2555 -0.9072,0.46433 -1.3103,0.63522 -0.3951,0.16748 0.5373,4.68782 0.2198,9.38558 -0.3174,4.69775 -2.0538,9.40888 -3.094,9.43305 z"
         id="use17"
         inkscape:linked-fill="path21"
         transform="matrix(0.3255034,0,0,0.29083797,-587.61599,216.8409)"
         sodipodi:nodetypes="czzzzzzzzzzzzzzzc"
         clip-path="url(#clipPath55)" />
    </pattern>
    <clipPath
       clipPathUnits="userSpaceOnUse"
       id="clipPath25">
      <rect
         style="fill:#ff0000;stroke:none;stroke-width:3;stroke-linecap:square;stroke-linejoin:miter;paint-order:stroke markers fill;stop-color:#000000"
         id="rect25-8"
         width="78"
         height="45.033199"
         x="763.61322"
         y="452.82422" />
    </clipPath>
    <clipPath
       clipPathUnits="userSpaceOnUse"
       id="clipPath98">
      <rect
         style="fill:#000000;stroke:none;stroke-width:0.999995;stroke-linecap:butt;stroke-linejoin:bevel;paint-order:stroke markers fill;stop-color:#000000"
         id="rect98"
         width="46.19186"
         height="80.006783"
         x="74.999985"
         y="399.99661" />
    </clipPath>
    <linearGradient
       id="linearGradient87"
       inkscape:collect="always">
      <stop
         style="stop-color:#e600e6;stop-opacity:1;"
         offset="0"
         id="stop87" />
      <stop
         style="stop-color:#ff00ff;stop-opacity:0;"
         offset="1"
         id="stop88" />
    </linearGradient>
    <clipPath
       clipPathUnits="userSpaceOnUse"
       id="clipPath33">
      <rect
         style="fill:#000000;stroke:none;stroke-width:0.999995;stroke-linecap:butt;stroke-linejoin:bevel;paint-order:stroke markers fill;stop-color:#000000"
         id="rect33"
         width="46.19186"
         height="80.006783"
         x="74.999985"
         y="399.99661" />
    </clipPath>
    <linearGradient
       id="swatch64"
       inkscape:swatch="solid">
      <stop
         style="stop-color:#000000;stop-opacity:1;"
         offset="0"
         id="stop64" />
    </linearGradient>
    <linearGradient
       id="swatch32"
       inkscape:swatch="solid">
      <stop
         style="stop-color:#ff0c0c;stop-opacity:1;"
         offset="0"
         id="stop32" />
    </linearGradient>
    <linearGradient
       id="linearGradient29"
       inkscape:swatch="gradient">
      <stop
         style="stop-color:#ff0000;stop-opacity:1;"
         offset="0"
         id="stop29" />
      <stop
         style="stop-color:#ff0000;stop-opacity:0;"
         offset="1"
         id="stop30" />
    </linearGradient>
    <radialGradient
       inkscape:collect="always"
       xlink:href="#linearGradient87"
       id="radialGradient88"
       cx="136.0596"
       cy="249.47127"
       fx="136.0596"
       fy="249.47127"
       r="23.237055"
       gradientTransform="matrix(1,0,0,0.53251572,0,116.6239)"
       gradientUnits="userSpaceOnUse" />
    <meshgradient
       inkscape:collect="always"
       id="meshgradient88"
       gradientUnits="userSpaceOnUse"
       x="94.514577"
       y="240.545">
      <meshrow
         id="meshrow88">
        <meshpatch
           id="meshpatch88">
          <stop
             path="c 9.05028,-4.45518  23.7237,-4.45518  32.774,0"
             style="stop-color:#ffffff;stop-opacity:1"
             id="stop89" />
          <stop
             path="c 9.05028,4.45518  9.05028,11.6785  0,16.1336"
             style="stop-color:#00ffff;stop-opacity:1"
             id="stop90" />
          <stop
             path="c -9.05028,4.45518  -23.7237,4.45518  -32.774,0"
             style="stop-color:#ffffff;stop-opacity:1"
             id="stop91" />
          <stop
             path="c -9.05028,-4.45518  -9.05028,-11.6785  -1.42109e-14,-16.1336"
             style="stop-color:#00ffff;stop-opacity:1"
             id="stop92" />
        </meshpatch>
      </meshrow>
    </meshgradient>
    <linearGradient
       inkscape:collect="always"
       xlink:href="#linearGradient117"
       id="linearGradient119"
       gradientUnits="userSpaceOnUse"
       x1="35.370829"
       y1="249.25788"
       x2="79.353924"
       y2="249.25788" />
  </defs>
  <g
     inkscape:label="Capa 1"
     inkscape:groupmode="layer"
     id="layer1">
    <rect
       style="fill:#0000ff;stroke:#000000;stroke-width:0.665001;stroke-dasharray:none;stroke-opacity:1"
       id="rect14"
       width="35.925034"
       height="24.828196"
       x="59.561794"
       y="17.056856" />
    <rect
       style="fill:#0000ff;stroke:#000000;stroke-width:0.665001;stroke-dasharray:none;stroke-opacity:1"
       id="rect15"
       width="38.366199"
       height="30.587746"
       x="10.195442"
       y="47.593422" />
    <rect
       style="fill:#0000ff;stroke:#000000;stroke-width:0.665001;stroke-dasharray:none;stroke-opacity:1"
       id="rect16"
       width="56.813534"
       height="19.707018"
       x="18.24687"
       y="23.414967" />
    <rect
       style="fill:#0000ff;stroke:#000000;stroke-width:0.665001;stroke-dasharray:none;stroke-opacity:1"
       id="rect17"
       width="28.671215"
       height="14.725169"
       x="56.873249"
       y="55.764275" />
    <rect
       style="fill:#0000ff;stroke:#000000;stroke-width:0.665001;stroke-dasharray:none;stroke-opacity:1"
       id="rect18"
       width="37.082344"
       height="23.574205"
       x="106.30358"
       y="14.843175" />
    <rect
       style="fill:#0000ff;stroke:#000000;stroke-width:0.665001;stroke-dasharray:none;stroke-opacity:1"
       id="rect19"
       width="34.432182"
       height="19.303236"
       x="125.13479"
       y="24.181297" />
    <rect
       style="fill:#0000ff;stroke:#000000;stroke-width:0.665001;stroke-dasharray:none;stroke-opacity:1"
       id="rect20"
       width="26.437628"
       height="15.731775"
       x="155.03868"
       y="15.035113" />
    <rect
       style="fill:#0000ff;stroke:#000000;stroke-width:0.665001;stroke-dasharray:none;stroke-opacity:1"
       id="rect21"
       width="16.72843"
       height="6.299819"
       x="172.5903"
       y="41.747143" />
    <rect
       style="fill:#0000ff;stroke:#000000;stroke-width:0.665001;stroke-dasharray:none;stroke-opacity:1"
       id="rect22"
       width="20.548698"
       height="12.096335"
       x="99.253067"
       y="54.416447" />
    <rect
       style="fill:#0000ff;stroke:#000000;stroke-width:0.665001;stroke-dasharray:none;stroke-opacity:1"
       id="rect23"
       width="32.83839"
       height="31.083941"
       x="111.48589"
       y="52.418873" />
    <rect
       style="fill:#0000ff;stroke:#000000;stroke-width:0.665001;stroke-dasharray:none;stroke-opacity:1"
       id="rect24"
       width="31.884392"
       height="12.322394"
       x="130.61996"
       y="61.094456" />
    <rect
       style="fill:#0000ff;stroke:#000000;stroke-width:0.665001;stroke-dasharray:none;stroke-opacity:1"
       id="rect25"
       width="6.0168886"
       height="4.9178681"
       x="177.1058"
       y="61.57785" />
    <rect
       style="fill:#0000ff;stroke:#000000;stroke-width:0.665001;stroke-dasharray:none;stroke-opacity:1"
       id="rect26"
       width="11.018641"
       height="3.4790468"
       x="92.923401"
       y="72.080399" />
    <rect
       style="fill:#ff0000;stroke:#000000;stroke-width:0.665001;stroke-dasharray:none;stroke-opacity:1"
       id="rect27"
       width="2.1454358"
       height="2.6274128"
       x="36.30891"
       y="101.89613" />
    <ellipse
       style="fill:#ff0000;stroke:#000000;stroke-width:0.665001;stroke-dasharray:none;stroke-opacity:1"
       id="path27"
       cx="28.745859"
       cy="100.46015"
       rx="19.100637"
       ry="7.1798887" />
    <ellipse
       style="fill:#ff0000;stroke:#000000;stroke-width:0.665001;stroke-dasharray:none;stroke-opacity:1"
       id="path28"
       cx="49.158775"
       cy="96.044876"
       rx="5.166676"
       ry="13.572833" />
    <ellipse
       style="opacity:0.5;fill:#ff0000;fill-opacity:1;stroke:#000000;stroke-width:0.665001;stroke-dasharray:none;stroke-opacity:1"
       id="path30"
       cx="86.501312"
       cy="92.687386"
       rx="14.831801"
       ry="14.611428" />
    <ellipse
       style="opacity:0.5;fill:#ff0000;fill-opacity:1;stroke:#000000;stroke-width:0.665001;stroke-dasharray:none;stroke-opacity:1"
       id="path32"
       cx="121.94579"
       cy="96.523293"
       rx="13.341797"
       ry="4.4302044" />
    <ellipse
       style="opacity:0.5;fill:#ff0000;fill-opacity:1;stroke:#000000;stroke-width:0.665001;stroke-dasharray:none;stroke-opacity:1"
       id="path33"
       cx="72.991745"
       cy="103.72878"
       rx="13.347484"
       ry="6.1448469" />
    <path
       sodipodi:type="star"
       style="opacity:0.5;fill:#ffff00;fill-opacity:1;stroke:#000000;stroke-width:0.665001;stroke-dasharray:none;stroke-opacity:1"
       id="path34"
       inkscape:flatsided="false"
       sodipodi:sides="5"
       sodipodi:cx="69.86245"
       sodipodi:cy="143.06461"
       sodipodi:r1="12.007452"
       sodipodi:r2="6.003726"
       sodipodi:arg1="0.90027157"
       sodipodi:arg2="1.5285901"
       inkscape:rounded="0"
       inkscape:randomized="0"
       d="m 77.323847,152.47239 -7.208078,-3.4094 -6.894958,4.00499 1.015121,-7.90885 -5.939638,-5.31988 7.835457,-1.47854 3.22406,-7.29286 3.827458,6.99507 7.932216,0.81264 -5.469958,5.80173 z"
       inkscape:transform-center-x="0.15656087"
       inkscape:transform-center-y="-0.99669288"
       transform="translate(-42.883129,-15.588178)" />
    <path
       sodipodi:type="star"
       style="opacity:0.5;fill:#ffff00;fill-opacity:1;stroke:#000000;stroke-width:0.665001;stroke-dasharray:none;stroke-opacity:1"
       id="path35"
       inkscape:flatsided="false"
       sodipodi:sides="5"
       sodipodi:cx="79.810501"
       sodipodi:cy="135.53497"
       sodipodi:r1="10.456456"
       sodipodi:r2="5.2282281"
       sodipodi:arg1="1.3468918"
       sodipodi:arg2="1.9752104"
       inkscape:rounded="0"
       inkscape:randomized="0"
       d="m 82.132236,145.73041 -4.378939,-5.38895 -6.921781,0.55218 3.772037,-5.8299 -2.664105,-6.41237 6.710186,1.78588 5.275275,-4.51524 0.375085,6.93363 5.924403,3.6218 -6.47837,2.49934 z"
       inkscape:transform-center-x="-0.71745433"
       inkscape:transform-center-y="0.29123576"
       transform="translate(-28.891586,-9.9039809)" />
    <path
       sodipodi:type="star"
       style="opacity:0.5;fill:#ffff00;fill-opacity:1;stroke:#000000;stroke-width:0.665001;stroke-dasharray:none;stroke-opacity:1"
       id="path36"
       inkscape:flatsided="false"
       sodipodi:sides="5"
       sodipodi:cx="87.534927"
       sodipodi:cy="155.269"
       sodipodi:r1="19.96493"
       sodipodi:r2="9.9824657"
       sodipodi:arg1="0.20859652"
       sodipodi:arg2="0.83691505"
       inkscape:rounded="0"
       inkscape:randomized="0"
       d="m 107.06707,159.40348 -12.846318,3.2783 -4.582184,12.44101 -7.087584,-11.20452 -13.248075,-0.51343 8.465947,-10.20308 -3.605577,-12.75833 12.319828,4.89867 11.019706,-7.37165 -0.851875,13.23063 z"
       inkscape:transform-center-x="-0.65005961"
       inkscape:transform-center-y="1.2776221"
       transform="translate(-8.0699103,-24.865162)" />
    <path
       sodipodi:type="star"
       style="opacity:0.5;fill:#ffff00;fill-opacity:1;stroke:#000000;stroke-width:0.665001;stroke-dasharray:none;stroke-opacity:1"
       id="path37"
       inkscape:flatsided="false"
       sodipodi:sides="5"
       sodipodi:cx="121.2804"
       sodipodi:cy="135.92453"
       sodipodi:r1="18.960447"
       sodipodi:r2="9.4802256"
       sodipodi:arg1="0.35464575"
       sodipodi:arg2="0.98296428"
       inkscape:rounded="0"
       inkscape:randomized="0"
       d="m 139.06093,142.5087 -12.52319,1.30475 -6.02477,11.05599 -5.11077,-11.50707 -12.37663,-2.31341 9.36457,-8.41652 -1.62441,-12.48575 10.89839,6.30538 11.37269,-5.40321 -2.62899,12.31346 z"
       inkscape:transform-center-x="0.23715114"
       inkscape:transform-center-y="1.5835337"
       transform="translate(12.574047,-16.512322)" />
    <path
       sodipodi:type="star"
       style="opacity:0.5;fill:#ffff00;fill-opacity:1;stroke:#000000;stroke-width:0.665001;stroke-dasharray:none;stroke-opacity:1"
       id="path39"
       inkscape:flatsided="false"
       sodipodi:sides="5"
       sodipodi:cx="132.16966"
       sodipodi:cy="150.38098"
       sodipodi:r1="16.86541"
       sodipodi:r2="8.4327068"
       sodipodi:arg1="0.54513263"
       sodipodi:arg2="1.1734512"
       inkscape:rounded="0"
       inkscape:randomized="0"
       d="m 146.59057,159.12623 -11.15769,-0.96952 -7.12413,8.6418 -2.52585,-10.91119 -10.42033,-4.10499 9.59663,-5.77397 0.68403,-11.17883 8.45689,7.34268 10.84307,-2.8039 -4.36998,10.312 z"
       inkscape:transform-center-x="1.1930905"
       inkscape:transform-center-y="0.4330381"
       transform="translate(-19.171014,-7.9504826)" />
    <path
       sodipodi:type="star"
       style="opacity:0.5;fill:#ffff00;fill-opacity:1;stroke:#000000;stroke-width:0.665001;stroke-dasharray:none;stroke-opacity:1"
       id="path40"
       inkscape:flatsided="false"
       sodipodi:sides="5"
       sodipodi:cx="112.11573"
       sodipodi:cy="156.81589"
       sodipodi:r1="17.317303"
       sodipodi:r2="8.6586533"
       sodipodi:arg1="-2.8172199"
       sodipodi:arg2="-2.1889014"
       inkscape:rounded="0"
       inkscape:randomized="0"
       d="m 95.701511,151.29662 11.396599,-1.53734 5.19449,-10.25979 4.98384,10.36374 11.36282,1.76981 -8.31642,7.94248 1.82813,11.35359 -10.12367,-5.45502 -10.23298,5.2471 2.05964,-11.31388 z"
       inkscape:transform-center-x="-0.054653569"
       inkscape:transform-center-y="-1.6015911"
       transform="translate(52.394704,-55.897921)" />
    <path
       sodipodi:type="spiral"
       style="fill:none;fill-rule:evenodd;stroke:#000000;stroke-width:0.264583"
       id="path41"
       sodipodi:cx="26.835722"
       sodipodi:cy="188.73155"
       sodipodi:expansion="1"
       sodipodi:revolution="3"
       sodipodi:radius="18.889254"
       sodipodi:argument="-17.81896"
       sodipodi:t0="0"
       d="m 26.835722,188.73155 c 0.487089,0.81222 -0.854542,1.05731 -1.349961,0.80958 -1.342555,-0.67134 -1.11545,-2.54933 -0.269188,-3.5095 1.513763,-1.71751 4.2206,-1.28575 5.669031,0.2712 2.125631,2.28489 1.467269,5.91677 -0.811584,7.82856 -3.037352,2.54813 -7.62207,1.65394 -9.988102,-1.35197 -2.977408,-3.78262 -1.843331,-9.33179 1.892357,-12.14763 4.524418,-3.41036 11.044023,-2.03433 14.307172,2.43274 3.845508,5.26429 2.226337,12.75782 -2.973128,16.46671 -6.002989,4.28206 -14.472656,2.41901 -18.626243,-3.51352 -4.7195707,-6.74091 -2.61216,-16.18822 4.0539,-20.78577 7.478312,-5.15776 17.90433,-2.80565 22.945314,4.59428 5.596447,8.21533 2.999384,19.62084 -5.134673,25.10485"
       transform="translate(-1.8923627,-26.319623)" />
    <path
       sodipodi:type="spiral"
       style="fill:none;fill-rule:evenodd;stroke:#000000;stroke-width:0.264583"
       id="path42"
       sodipodi:cx="60.830006"
       sodipodi:cy="199.3791"
       sodipodi:expansion="1"
       sodipodi:revolution="3"
       sodipodi:radius="16.529776"
       sodipodi:argument="-17.35668"
       sodipodi:t0="0"
       d="m 60.830006,199.3791 c 0.06451,0.82627 -1.081956,0.49462 -1.373302,0.10723 -0.789529,-1.04979 0.121293,-2.43207 1.158851,-2.85383 1.855948,-0.75442 3.807539,0.64017 4.334356,2.42493 0.773125,2.6192 -1.159983,5.20688 -3.691005,5.81488 -3.373453,0.81037 -6.61539,-1.67933 -7.295409,-4.95708 -0.855733,-4.12472 2.198256,-8.02843 6.223157,-8.77594 4.874695,-0.90533 9.444057,2.71691 10.256463,7.48924 0.957394,5.62402 -3.235383,10.8613 -8.75531,11.73699 -6.372973,1.01102 -12.279623,-3.75374 -13.217516,-10.02139 -1.065694,-7.1217 4.272016,-13.6987 11.287463,-14.69804 7.870271,-1.12111 15.118335,4.79023 16.17857,12.55354 1.177062,8.61874 -5.30841,16.53838 -13.819616,17.65909"
       transform="translate(-2.0572869,-43.212977)" />
    <path
       sodipodi:type="spiral"
       style="fill:none;fill-rule:evenodd;stroke:#000000;stroke-width:0.264583"
       id="path43"
       sodipodi:cx="96.648415"
       sodipodi:cy="183.95444"
       sodipodi:expansion="1"
       sodipodi:revolution="3"
       sodipodi:radius="14.50859"
       sodipodi:argument="-21.77536"
       sodipodi:t0="0"
       d="m 96.648415,183.95444 c -0.710567,-0.15576 -0.140611,-1.03468 0.258878,-1.18101 1.082593,-0.39656 2.012453,0.7199 2.103139,1.69876 0.162216,1.75096 -1.505345,3.03619 -3.138654,3.02527 -2.396946,-0.016 -4.079741,-2.29764 -3.947398,-4.57854 0.176392,-3.04008 3.09187,-5.13111 6.018429,-4.86953 3.682771,0.32918 6.186401,3.8869 5.791661,7.45832 -0.47809,4.32546 -4.682361,7.24393 -8.898207,6.71379 -4.968229,-0.62475 -8.302859,-5.47808 -7.635918,-10.33809 0.770009,-5.61108 6.273971,-9.36273 11.777979,-8.55805 6.254006,0.91433 10.423256,7.06999 9.480176,13.21787 -1.05799,6.89698 -7.8661,11.48425 -14.657752,10.4023 -7.540025,-1.20117 -12.545621,-8.66227 -11.324438,-16.09764"
       transform="translate(-2.4923454,-23.5543)" />
    <path
       sodipodi:type="spiral"
       style="fill:none;fill-rule:evenodd;stroke:#000000;stroke-width:0.264583"
       id="path44"
       sodipodi:cx="128.4603"
       sodipodi:cy="187.76476"
       sodipodi:expansion="1"
       sodipodi:revolution="3"
       sodipodi:radius="13.592348"
       sodipodi:argument="-17.798243"
       sodipodi:t0="0"
       d="m 128.4603,187.76476 c 0.33831,0.59159 -0.63054,0.74791 -0.98327,0.5623 -0.95586,-0.50299 -0.76448,-1.85068 -0.14134,-2.52884 1.11464,-1.21305 3.05557,-0.86209 4.0744,0.27962 1.49518,1.67549 0.9674,4.27855 -0.70057,5.61998 -2.22314,1.78791 -5.50818,1.07626 -7.16555,-1.12154 -2.08564,-2.7657 -1.18704,-6.74102 1.54249,-8.71112 3.30583,-2.38606 7.97569,-1.29892 10.2567,1.96346 2.68808,3.84459 1.4115,9.2115 -2.38442,11.80226 -4.38254,2.99114 -10.44807,1.52456 -13.34784,-2.80537 -3.29489,-4.91995 -1.63794,-11.68518 3.22634,-14.89341 5.45698,-3.59915 12.92267,-1.75156 16.43898,3.64729 3.90377,5.99375 1.86535,14.16047 -4.06826,17.98456"
       transform="translate(-3.7363856,-21.696059)" />
    <path
       sodipodi:type="spiral"
       style="fill:none;fill-rule:evenodd;stroke:#000000;stroke-width:0.264583"
       id="path45"
       sodipodi:cx="154.95193"
       sodipodi:cy="165.26398"
       sodipodi:expansion="1"
       sodipodi:revolution="3"
       sodipodi:radius="12.404572"
       sodipodi:argument="-18.775677"
       sodipodi:t0="0"
       d="m 154.95193,165.26398 c 0.62025,0.0459 0.24413,0.85873 -0.0763,1.03089 -0.86833,0.46655 -1.79036,-0.36596 -1.98548,-1.18349 -0.34903,-1.46237 0.90696,-2.75182 2.29069,-2.94009 2.03068,-0.27628 3.73087,1.45136 3.89467,3.39789 0.21832,2.59441 -1.99645,4.71678 -4.50508,4.84927 -3.15686,0.16672 -5.7061,-2.54174 -5.80386,-5.61228 -0.11841,-3.71882 3.08713,-6.69736 6.71947,-6.75845 4.28059,-0.072 7.68985,3.63256 7.71305,7.82666 0.0268,4.84226 -4.17804,8.68316 -8.93386,8.66765 -5.40387,-0.0176 -9.67703,-4.72354 -9.62224,-10.04106 0.0615,-5.96545 5.26905,-10.67131 11.14825,-10.57683 6.52703,0.10489 11.66592,5.81458 11.53143,12.25544"
       transform="translate(-9.1319648,-17.762049)" />
    <path
       sodipodi:type="spiral"
       style="fill:none;fill-rule:evenodd;stroke:#000000;stroke-width:0.264583"
       id="path46"
       sodipodi:cx="188.47847"
       sodipodi:cy="182.73741"
       sodipodi:expansion="1"
       sodipodi:revolution="3"
       sodipodi:radius="16.044992"
       sodipodi:argument="-15.884955"
       sodipodi:t0="0"
       d="m 188.47847,182.73741 c -0.7919,0.14164 -0.58163,-0.99759 -0.23542,-1.31619 0.93821,-0.86341 2.36081,-0.11635 2.86781,0.84535 0.9069,1.72025 -0.25279,3.73921 -1.92613,4.41942 -2.4557,0.99824 -5.14076,-0.62053 -5.97104,-3.0069 -1.10662,-3.18066 0.98695,-6.55112 4.08768,-7.52265 3.90196,-1.22257 7.96581,1.35252 9.07427,5.16845 1.34248,4.62161 -1.71758,9.38298 -6.24923,10.62588 -5.3404,1.46472 -10.80169,-2.08231 -12.1775,-7.33 -1.58841,-6.05867 2.44683,-12.22144 8.41078,-13.72911 6.77662,-1.71311 13.6419,2.8112 15.28072,9.49156 1.83851,7.49435 -3.17545,15.06289 -10.57233,16.83233 -8.21193,1.96442 -16.48428,-3.53962 -18.38394,-11.6531"
       transform="translate(-11.917193,-53.192311)" />
    <path
       sodipodi:type="spiral"
       style="fill:none;fill-rule:evenodd;stroke:#000000;stroke-width:0.264583"
       id="path47"
       sodipodi:cx="156.6609"
       sodipodi:cy="185.82973"
       sodipodi:expansion="1"
       sodipodi:revolution="3"
       sodipodi:radius="11.710258"
       sodipodi:argument="-17.843626"
       sodipodi:t0="0"
       d="m 156.6609,185.82973 c 0.3143,0.49593 -0.51344,0.66833 -0.82426,0.52238 -0.84232,-0.39554 -0.73029,-1.56291 -0.22049,-2.17091 0.9119,-1.08758 2.59607,-0.86139 3.51755,0.0814 1.3523,1.38357 0.99981,3.64451 -0.38328,4.8642 -1.84346,1.62565 -4.69853,1.14157 -6.21084,-0.68517 -1.9031,-2.29877 -1.2851,-5.75524 0.98706,-7.55749 2.75188,-2.18276 6.81347,-1.42964 8.90412,1.28895 2.46376,3.20377 1.57485,7.87267 -1.59083,10.25077 -3.65491,2.74561 -8.93251,1.72048 -11.59742,-1.89272 -3.02804,-4.10555 -1.86641,-9.99278 2.19461,-12.94406 4.55586,-3.31088 11.05339,-2.01256 14.29071,2.4965 3.59403,5.00591 2.15888,12.11424 -2.79839,15.63734"
       transform="translate(11.584501,-25.217759)" />
    <g
       id="g47"
       transform="translate(-23.164736,-34.164892)">
      <rect
         style="fill:#0000ff;fill-opacity:1;stroke:#000000;stroke-width:0.778747;stroke-dasharray:none;stroke-opacity:1"
         id="rect47"
         width="29.467394"
         height="29.210056"
         x="197.57079"
         y="103.91284"
         transform="rotate(42.763385)" />
      <ellipse
         style="fill:#ff0000;fill-opacity:1;stroke:#000000;stroke-width:0.665001;stroke-dasharray:none;stroke-opacity:1"
         id="path29"
         cx="96.584427"
         cy="228.46478"
         rx="14.369729"
         ry="14.332052" />
      <path
         sodipodi:type="star"
         style="opacity:0.5;fill:#ffff00;fill-opacity:1;stroke:#000000;stroke-width:0.665001;stroke-dasharray:none;stroke-opacity:1"
         id="path38"
         inkscape:flatsided="false"
         sodipodi:sides="5"
         sodipodi:cx="158.72672"
         sodipodi:cy="140.20972"
         sodipodi:r1="17.458347"
         sodipodi:r2="8.7291756"
         sodipodi:arg1="0.86477583"
         sodipodi:arg2="1.4930944"
         inkscape:rounded="0"
         inkscape:randomized="0"
         d="m 170.05388,153.49464 -10.64957,-4.58209 -9.81203,6.17521 1.06693,-11.54429 -8.90505,-7.42355 11.30897,-2.55267 4.3084,-10.7632 5.9224,9.96665 11.56779,0.77151 -7.64873,8.7124 z"
         inkscape:transform-center-x="0.3455455"
         inkscape:transform-center-y="-1.0640615"
         transform="matrix(0.8251312,0,0,0.84194798,-43.82319,125.28633)" />
    </g>
    <rect
       style="fill:#0000ff;fill-opacity:1;stroke:#000000;stroke-width:0.778747;stroke-dasharray:none;stroke-opacity:1"
       id="rect47-8"
       width="29.467394"
       height="29.210056"
       x="213.42717"
       y="47.239758"
       transform="rotate(42.763385)" />
    <ellipse
       style="fill:#ff0000;fill-opacity:1;stroke:#000000;stroke-width:0.665001;stroke-dasharray:none;stroke-opacity:1"
       id="path29-7"
       cx="160.78052"
       cy="186.93187"
       rx="14.369729"
       ry="14.332052" />
    <path
       sodipodi:type="star"
       style="opacity:0.5;fill:#ffff00;fill-opacity:1;stroke:#000000;stroke-width:0.665001;stroke-dasharray:none;stroke-opacity:1"
       id="path38-1"
       inkscape:flatsided="false"
       sodipodi:sides="5"
       sodipodi:cx="158.72672"
       sodipodi:cy="140.20972"
       sodipodi:r1="17.458347"
       sodipodi:r2="8.7291756"
       sodipodi:arg1="0.86477583"
       sodipodi:arg2="1.4930944"
       inkscape:rounded="0"
       inkscape:randomized="0"
       d="m 170.05388,153.49464 -10.64957,-4.58209 -9.81203,6.17521 1.06693,-11.54429 -8.90505,-7.42355 11.30897,-2.55267 4.3084,-10.7632 5.9224,9.96665 11.56779,0.77151 -7.64873,8.7124 z"
       inkscape:transform-center-x="0.3455455"
       inkscape:transform-center-y="-1.0640615"
       transform="matrix(0.8251312,0,0,0.84194798,23.614493,101.30078)" />
    <ellipse
       style="opacity:1;fill:#5e5e5e;fill-opacity:1;stroke:#000000;stroke-width:0.665001;stroke-dasharray:1.33000195,0.66500097,0.33250049,0.66500097;stroke-opacity:1;stroke-dashoffset:0"
       id="path48"
       cx="32.122536"
       cy="248.85565"
       rx="23.081564"
       ry="12.49656" />
    <ellipse
       style="opacity:1;fill:url(#linearGradient119);fill-opacity:1;stroke:#000000;stroke-width:0.665001;stroke-dasharray:1.33000195, 0.66500097;stroke-opacity:1;stroke-dashoffset:0"
       id="path49"
       cx="57.362331"
       cy="249.25871"
       rx="21.659092"
       ry="12.754609" />
    <ellipse
       style="opacity:1;fill:url(#pattern116);fill-opacity:1;stroke:#000000;stroke-width:0.665001;stroke-dasharray:5.3200078, 1.33000195, 0.66500097, 1.33000195;stroke-opacity:1;stroke-dashoffset:0"
       id="path50"
       cx="84.303978"
       cy="248.76608"
       rx="22.566887"
       ry="12.276188" />
    <ellipse
       style="opacity:1;fill:url(#meshgradient88);fill-opacity:1;stroke:#000000;stroke-width:0.665001;stroke-dasharray:0.33250049, 0.33250049;stroke-opacity:1;stroke-linecap:butt;stroke-linejoin:bevel;stroke-dashoffset:0"
       id="path51"
       cx="110.90156"
       cy="248.61182"
       rx="23.17469"
       ry="11.408203" />
    <ellipse
       style="opacity:0.53649554;fill:url(#radialGradient88);fill-opacity:1;stroke:#000000;stroke-width:0.665001;stroke-dasharray:none;stroke-opacity:1"
       id="path52"
       cx="136.0596"
       cy="249.47127"
       rx="22.904554"
       ry="12.041596" />
    <ellipse
       style="opacity:1;fill:#ffd5d5;fill-opacity:1;stroke:#000000;stroke-width:0.665001;stroke-dasharray:5.3200078,0.66500097;stroke-opacity:1;stroke-dashoffset:0"
       id="path53"
       cx="167.86794"
       cy="249.41655"
       rx="23.316154"
       ry="11.706773" />
  </g>
  <script
     id="mesh_polyfill"
     type="text/javascript">
!function(){const t=&quot;http://www.w3.org/2000/svg&quot;,e=&quot;http://www.w3.org/1999/xlink&quot;,s=&quot;http://www.w3.org/1999/xhtml&quot;,r=2;if(document.createElementNS(t,&quot;meshgradient&quot;).x)return;const n=(t,e,s,r)=&gt;{let n=new x(.5*(e.x+s.x),.5*(e.y+s.y)),o=new x(.5*(t.x+e.x),.5*(t.y+e.y)),i=new x(.5*(s.x+r.x),.5*(s.y+r.y)),a=new x(.5*(n.x+o.x),.5*(n.y+o.y)),h=new x(.5*(n.x+i.x),.5*(n.y+i.y)),l=new x(.5*(a.x+h.x),.5*(a.y+h.y));return[[t,o,a,l],[l,h,i,r]]},o=t=&gt;{let e=t[0].distSquared(t[1]),s=t[2].distSquared(t[3]),r=.25*t[0].distSquared(t[2]),n=.25*t[1].distSquared(t[3]),o=e&gt;s?e:s,i=r&gt;n?r:n;return 18*(o&gt;i?o:i)},i=(t,e)=&gt;Math.sqrt(t.distSquared(e)),a=(t,e)=&gt;t.scale(2/3).add(e.scale(1/3)),h=t=&gt;{let e,s,r,n,o,i,a,h=new g;return t.match(/(\w+\(\s*[^)]+\))+/g).forEach(t=&gt;{let l=t.match(/[\w.-]+/g),d=l.shift();switch(d){case&quot;translate&quot;:2===l.length?e=new g(1,0,0,1,l[0],l[1]):(console.error(&quot;mesh.js: translate does not have 2 arguments!&quot;),e=new g(1,0,0,1,0,0)),h=h.append(e);break;case&quot;scale&quot;:1===l.length?s=new g(l[0],0,0,l[0],0,0):2===l.length?s=new g(l[0],0,0,l[1],0,0):(console.error(&quot;mesh.js: scale does not have 1 or 2 arguments!&quot;),s=new g(1,0,0,1,0,0)),h=h.append(s);break;case&quot;rotate&quot;:if(3===l.length&amp;&amp;(e=new g(1,0,0,1,l[1],l[2]),h=h.append(e)),l[0]){r=l[0]*Math.PI/180;let t=Math.cos(r),e=Math.sin(r);Math.abs(t)&lt;1e-16&amp;&amp;(t=0),Math.abs(e)&lt;1e-16&amp;&amp;(e=0),a=new g(t,e,-e,t,0,0),h=h.append(a)}else console.error(&quot;math.js: No argument to rotate transform!&quot;);3===l.length&amp;&amp;(e=new g(1,0,0,1,-l[1],-l[2]),h=h.append(e));break;case&quot;skewX&quot;:l[0]?(r=l[0]*Math.PI/180,n=Math.tan(r),o=new g(1,0,n,1,0,0),h=h.append(o)):console.error(&quot;math.js: No argument to skewX transform!&quot;);break;case&quot;skewY&quot;:l[0]?(r=l[0]*Math.PI/180,n=Math.tan(r),i=new g(1,n,0,1,0,0),h=h.append(i)):console.error(&quot;math.js: No argument to skewY transform!&quot;);break;case&quot;matrix&quot;:6===l.length?h=h.append(new g(...l)):console.error(&quot;math.js: Incorrect number of arguments for matrix!&quot;);break;default:console.error(&quot;mesh.js: Unhandled transform type: &quot;+d)}}),h},l=t=&gt;{let e=[],s=t.split(/[ ,]+/);for(let t=0,r=s.length-1;t&lt;r;t+=2)e.push(new x(parseFloat(s[t]),parseFloat(s[t+1])));return e},d=(t,e)=&gt;{for(let s in e)t.setAttribute(s,e[s])},c=(t,e,s,r,n)=&gt;{let o,i,a=[0,0,0,0];for(let h=0;h&lt;3;++h)e[h]&lt;t[h]&amp;&amp;e[h]&lt;s[h]||t[h]&lt;e[h]&amp;&amp;s[h]&lt;e[h]?a[h]=0:(a[h]=.5*((e[h]-t[h])/r+(s[h]-e[h])/n),o=Math.abs(3*(e[h]-t[h])/r),i=Math.abs(3*(s[h]-e[h])/n),a[h]&gt;o?a[h]=o:a[h]&gt;i&amp;&amp;(a[h]=i));return a},u=[[1,0,0,0,0,0,0,0,0,0,0,0,0,0,0,0],[0,0,0,0,1,0,0,0,0,0,0,0,0,0,0,0],[-3,3,0,0,-2,-1,0,0,0,0,0,0,0,0,0,0],[2,-2,0,0,1,1,0,0,0,0,0,0,0,0,0,0],[0,0,0,0,0,0,0,0,1,0,0,0,0,0,0,0],[0,0,0,0,0,0,0,0,0,0,0,0,1,0,0,0],[0,0,0,0,0,0,0,0,-3,3,0,0,-2,-1,0,0],[0,0,0,0,0,0,0,0,2,-2,0,0,1,1,0,0],[-3,0,3,0,0,0,0,0,-2,0,-1,0,0,0,0,0],[0,0,0,0,-3,0,3,0,0,0,0,0,-2,0,-1,0],[9,-9,-9,9,6,3,-6,-3,6,-6,3,-3,4,2,2,1],[-6,6,6,-6,-3,-3,3,3,-4,4,-2,2,-2,-2,-1,-1],[2,0,-2,0,0,0,0,0,1,0,1,0,0,0,0,0],[0,0,0,0,2,0,-2,0,0,0,0,0,1,0,1,0],[-6,6,6,-6,-4,-2,4,2,-3,3,-3,3,-2,-1,-2,-1],[4,-4,-4,4,2,2,-2,-2,2,-2,2,-2,1,1,1,1]],f=t=&gt;{let e=[];for(let s=0;s&lt;16;++s){e[s]=0;for(let r=0;r&lt;16;++r)e[s]+=u[s][r]*t[r]}return e},p=(t,e,s)=&gt;{const r=e*e,n=s*s,o=e*e*e,i=s*s*s;return t[0]+t[1]*e+t[2]*r+t[3]*o+t[4]*s+t[5]*s*e+t[6]*s*r+t[7]*s*o+t[8]*n+t[9]*n*e+t[10]*n*r+t[11]*n*o+t[12]*i+t[13]*i*e+t[14]*i*r+t[15]*i*o},y=t=&gt;{let e=[],s=[],r=[];for(let s=0;s&lt;4;++s)e[s]=[],e[s][0]=n(t[0][s],t[1][s],t[2][s],t[3][s]),e[s][1]=[],e[s][1].push(...n(...e[s][0][0])),e[s][1].push(...n(...e[s][0][1])),e[s][2]=[],e[s][2].push(...n(...e[s][1][0])),e[s][2].push(...n(...e[s][1][1])),e[s][2].push(...n(...e[s][1][2])),e[s][2].push(...n(...e[s][1][3]));for(let t=0;t&lt;8;++t){s[t]=[];for(let r=0;r&lt;4;++r)s[t][r]=[],s[t][r][0]=n(e[0][2][t][r],e[1][2][t][r],e[2][2][t][r],e[3][2][t][r]),s[t][r][1]=[],s[t][r][1].push(...n(...s[t][r][0][0])),s[t][r][1].push(...n(...s[t][r][0][1])),s[t][r][2]=[],s[t][r][2].push(...n(...s[t][r][1][0])),s[t][r][2].push(...n(...s[t][r][1][1])),s[t][r][2].push(...n(...s[t][r][1][2])),s[t][r][2].push(...n(...s[t][r][1][3]))}for(let t=0;t&lt;8;++t){r[t]=[];for(let e=0;e&lt;8;++e)r[t][e]=[],r[t][e][0]=s[t][0][2][e],r[t][e][1]=s[t][1][2][e],r[t][e][2]=s[t][2][2][e],r[t][e][3]=s[t][3][2][e]}return r};class x{constructor(t,e){this.x=t||0,this.y=e||0}toString(){return`(x=${this.x}, y=${this.y})`}clone(){return new x(this.x,this.y)}add(t){return new x(this.x+t.x,this.y+t.y)}scale(t){return void 0===t.x?new x(this.x*t,this.y*t):new x(this.x*t.x,this.y*t.y)}distSquared(t){let e=this.x-t.x,s=this.y-t.y;return e*e+s*s}transform(t){let e=this.x*t.a+this.y*t.c+t.e,s=this.x*t.b+this.y*t.d+t.f;return new x(e,s)}}class g{constructor(t,e,s,r,n,o){void 0===t?(this.a=1,this.b=0,this.c=0,this.d=1,this.e=0,this.f=0):(this.a=t,this.b=e,this.c=s,this.d=r,this.e=n,this.f=o)}toString(){return`affine: ${this.a} ${this.c} ${this.e} \n       ${this.b} ${this.d} ${this.f}`}append(t){t instanceof g||console.error(&quot;mesh.js: argument to Affine.append is not affine!&quot;);let e=this.a*t.a+this.c*t.b,s=this.b*t.a+this.d*t.b,r=this.a*t.c+this.c*t.d,n=this.b*t.c+this.d*t.d,o=this.a*t.e+this.c*t.f+this.e,i=this.b*t.e+this.d*t.f+this.f;return new g(e,s,r,n,o,i)}}class w{constructor(t,e){this.nodes=t,this.colors=e}paintCurve(t,e){if(o(this.nodes)&gt;r){const s=n(...this.nodes);let r=[[],[]],o=[[],[]];for(let t=0;t&lt;4;++t)r[0][t]=this.colors[0][t],r[1][t]=(this.colors[0][t]+this.colors[1][t])/2,o[0][t]=r[1][t],o[1][t]=this.colors[1][t];let i=new w(s[0],r),a=new w(s[1],o);i.paintCurve(t,e),a.paintCurve(t,e)}else{let s=Math.round(this.nodes[0].x);if(s&gt;=0&amp;&amp;s&lt;e){let r=4*(~~this.nodes[0].y*e+s);t[r]=Math.round(this.colors[0][0]),t[r+1]=Math.round(this.colors[0][1]),t[r+2]=Math.round(this.colors[0][2]),t[r+3]=Math.round(this.colors[0][3])}}}}class m{constructor(t,e){this.nodes=t,this.colors=e}split(){let t=[[],[],[],[]],e=[[],[],[],[]],s=[[[],[]],[[],[]]],r=[[[],[]],[[],[]]];for(let s=0;s&lt;4;++s){const r=n(this.nodes[0][s],this.nodes[1][s],this.nodes[2][s],this.nodes[3][s]);t[0][s]=r[0][0],t[1][s]=r[0][1],t[2][s]=r[0][2],t[3][s]=r[0][3],e[0][s]=r[1][0],e[1][s]=r[1][1],e[2][s]=r[1][2],e[3][s]=r[1][3]}for(let t=0;t&lt;4;++t)s[0][0][t]=this.colors[0][0][t],s[0][1][t]=this.colors[0][1][t],s[1][0][t]=(this.colors[0][0][t]+this.colors[1][0][t])/2,s[1][1][t]=(this.colors[0][1][t]+this.colors[1][1][t])/2,r[0][0][t]=s[1][0][t],r[0][1][t]=s[1][1][t],r[1][0][t]=this.colors[1][0][t],r[1][1][t]=this.colors[1][1][t];return[new m(t,s),new m(e,r)]}paint(t,e){let s,n=!1;for(let t=0;t&lt;4;++t)if((s=o([this.nodes[0][t],this.nodes[1][t],this.nodes[2][t],this.nodes[3][t]]))&gt;r){n=!0;break}if(n){let s=this.split();s[0].paint(t,e),s[1].paint(t,e)}else{new w([...this.nodes[0]],[...this.colors[0]]).paintCurve(t,e)}}}class b{constructor(t){this.readMesh(t),this.type=t.getAttribute(&quot;type&quot;)||&quot;bilinear&quot;}readMesh(t){let e=[[]],s=[[]],r=Number(t.getAttribute(&quot;x&quot;)),n=Number(t.getAttribute(&quot;y&quot;));e[0][0]=new x(r,n);let o=t.children;for(let t=0,r=o.length;t&lt;r;++t){e[3*t+1]=[],e[3*t+2]=[],e[3*t+3]=[],s[t+1]=[];let r=o[t].children;for(let n=0,o=r.length;n&lt;o;++n){let o=r[n].children;for(let r=0,i=o.length;r&lt;i;++r){let i=r;0!==t&amp;&amp;++i;let h,d=o[r].getAttribute(&quot;path&quot;),c=&quot;l&quot;;null!=d&amp;&amp;(c=(h=d.match(/\s*([lLcC])\s*(.*)/))[1]);let u=l(h[2]);switch(c){case&quot;l&quot;:0===i?(e[3*t][3*n+3]=u[0].add(e[3*t][3*n]),e[3*t][3*n+1]=a(e[3*t][3*n],e[3*t][3*n+3]),e[3*t][3*n+2]=a(e[3*t][3*n+3],e[3*t][3*n])):1===i?(e[3*t+3][3*n+3]=u[0].add(e[3*t][3*n+3]),e[3*t+1][3*n+3]=a(e[3*t][3*n+3],e[3*t+3][3*n+3]),e[3*t+2][3*n+3]=a(e[3*t+3][3*n+3],e[3*t][3*n+3])):2===i?(0===n&amp;&amp;(e[3*t+3][3*n+0]=u[0].add(e[3*t+3][3*n+3])),e[3*t+3][3*n+1]=a(e[3*t+3][3*n],e[3*t+3][3*n+3]),e[3*t+3][3*n+2]=a(e[3*t+3][3*n+3],e[3*t+3][3*n])):(e[3*t+1][3*n]=a(e[3*t][3*n],e[3*t+3][3*n]),e[3*t+2][3*n]=a(e[3*t+3][3*n],e[3*t][3*n]));break;case&quot;L&quot;:0===i?(e[3*t][3*n+3]=u[0],e[3*t][3*n+1]=a(e[3*t][3*n],e[3*t][3*n+3]),e[3*t][3*n+2]=a(e[3*t][3*n+3],e[3*t][3*n])):1===i?(e[3*t+3][3*n+3]=u[0],e[3*t+1][3*n+3]=a(e[3*t][3*n+3],e[3*t+3][3*n+3]),e[3*t+2][3*n+3]=a(e[3*t+3][3*n+3],e[3*t][3*n+3])):2===i?(0===n&amp;&amp;(e[3*t+3][3*n+0]=u[0]),e[3*t+3][3*n+1]=a(e[3*t+3][3*n],e[3*t+3][3*n+3]),e[3*t+3][3*n+2]=a(e[3*t+3][3*n+3],e[3*t+3][3*n])):(e[3*t+1][3*n]=a(e[3*t][3*n],e[3*t+3][3*n]),e[3*t+2][3*n]=a(e[3*t+3][3*n],e[3*t][3*n]));break;case&quot;c&quot;:0===i?(e[3*t][3*n+1]=u[0].add(e[3*t][3*n]),e[3*t][3*n+2]=u[1].add(e[3*t][3*n]),e[3*t][3*n+3]=u[2].add(e[3*t][3*n])):1===i?(e[3*t+1][3*n+3]=u[0].add(e[3*t][3*n+3]),e[3*t+2][3*n+3]=u[1].add(e[3*t][3*n+3]),e[3*t+3][3*n+3]=u[2].add(e[3*t][3*n+3])):2===i?(e[3*t+3][3*n+2]=u[0].add(e[3*t+3][3*n+3]),e[3*t+3][3*n+1]=u[1].add(e[3*t+3][3*n+3]),0===n&amp;&amp;(e[3*t+3][3*n+0]=u[2].add(e[3*t+3][3*n+3]))):(e[3*t+2][3*n]=u[0].add(e[3*t+3][3*n]),e[3*t+1][3*n]=u[1].add(e[3*t+3][3*n]));break;case&quot;C&quot;:0===i?(e[3*t][3*n+1]=u[0],e[3*t][3*n+2]=u[1],e[3*t][3*n+3]=u[2]):1===i?(e[3*t+1][3*n+3]=u[0],e[3*t+2][3*n+3]=u[1],e[3*t+3][3*n+3]=u[2]):2===i?(e[3*t+3][3*n+2]=u[0],e[3*t+3][3*n+1]=u[1],0===n&amp;&amp;(e[3*t+3][3*n+0]=u[2])):(e[3*t+2][3*n]=u[0],e[3*t+1][3*n]=u[1]);break;default:console.error(&quot;mesh.js: &quot;+c+&quot; invalid path type.&quot;)}if(0===t&amp;&amp;0===n||r&gt;0){let e=window.getComputedStyle(o[r]).stopColor.match(/^rgb\s*\(\s*(\d+)\s*,\s*(\d+)\s*,\s*(\d+)\s*\)$/i),a=window.getComputedStyle(o[r]).stopOpacity,h=255;a&amp;&amp;(h=Math.floor(255*a)),e&amp;&amp;(0===i?(s[t][n]=[],s[t][n][0]=Math.floor(e[1]),s[t][n][1]=Math.floor(e[2]),s[t][n][2]=Math.floor(e[3]),s[t][n][3]=h):1===i?(s[t][n+1]=[],s[t][n+1][0]=Math.floor(e[1]),s[t][n+1][1]=Math.floor(e[2]),s[t][n+1][2]=Math.floor(e[3]),s[t][n+1][3]=h):2===i?(s[t+1][n+1]=[],s[t+1][n+1][0]=Math.floor(e[1]),s[t+1][n+1][1]=Math.floor(e[2]),s[t+1][n+1][2]=Math.floor(e[3]),s[t+1][n+1][3]=h):3===i&amp;&amp;(s[t+1][n]=[],s[t+1][n][0]=Math.floor(e[1]),s[t+1][n][1]=Math.floor(e[2]),s[t+1][n][2]=Math.floor(e[3]),s[t+1][n][3]=h))}}e[3*t+1][3*n+1]=new x,e[3*t+1][3*n+2]=new x,e[3*t+2][3*n+1]=new x,e[3*t+2][3*n+2]=new x,e[3*t+1][3*n+1].x=(-4*e[3*t][3*n].x+6*(e[3*t][3*n+1].x+e[3*t+1][3*n].x)+-2*(e[3*t][3*n+3].x+e[3*t+3][3*n].x)+3*(e[3*t+3][3*n+1].x+e[3*t+1][3*n+3].x)+-1*e[3*t+3][3*n+3].x)/9,e[3*t+1][3*n+2].x=(-4*e[3*t][3*n+3].x+6*(e[3*t][3*n+2].x+e[3*t+1][3*n+3].x)+-2*(e[3*t][3*n].x+e[3*t+3][3*n+3].x)+3*(e[3*t+3][3*n+2].x+e[3*t+1][3*n].x)+-1*e[3*t+3][3*n].x)/9,e[3*t+2][3*n+1].x=(-4*e[3*t+3][3*n].x+6*(e[3*t+3][3*n+1].x+e[3*t+2][3*n].x)+-2*(e[3*t+3][3*n+3].x+e[3*t][3*n].x)+3*(e[3*t][3*n+1].x+e[3*t+2][3*n+3].x)+-1*e[3*t][3*n+3].x)/9,e[3*t+2][3*n+2].x=(-4*e[3*t+3][3*n+3].x+6*(e[3*t+3][3*n+2].x+e[3*t+2][3*n+3].x)+-2*(e[3*t+3][3*n].x+e[3*t][3*n+3].x)+3*(e[3*t][3*n+2].x+e[3*t+2][3*n].x)+-1*e[3*t][3*n].x)/9,e[3*t+1][3*n+1].y=(-4*e[3*t][3*n].y+6*(e[3*t][3*n+1].y+e[3*t+1][3*n].y)+-2*(e[3*t][3*n+3].y+e[3*t+3][3*n].y)+3*(e[3*t+3][3*n+1].y+e[3*t+1][3*n+3].y)+-1*e[3*t+3][3*n+3].y)/9,e[3*t+1][3*n+2].y=(-4*e[3*t][3*n+3].y+6*(e[3*t][3*n+2].y+e[3*t+1][3*n+3].y)+-2*(e[3*t][3*n].y+e[3*t+3][3*n+3].y)+3*(e[3*t+3][3*n+2].y+e[3*t+1][3*n].y)+-1*e[3*t+3][3*n].y)/9,e[3*t+2][3*n+1].y=(-4*e[3*t+3][3*n].y+6*(e[3*t+3][3*n+1].y+e[3*t+2][3*n].y)+-2*(e[3*t+3][3*n+3].y+e[3*t][3*n].y)+3*(e[3*t][3*n+1].y+e[3*t+2][3*n+3].y)+-1*e[3*t][3*n+3].y)/9,e[3*t+2][3*n+2].y=(-4*e[3*t+3][3*n+3].y+6*(e[3*t+3][3*n+2].y+e[3*t+2][3*n+3].y)+-2*(e[3*t+3][3*n].y+e[3*t][3*n+3].y)+3*(e[3*t][3*n+2].y+e[3*t+2][3*n].y)+-1*e[3*t][3*n].y)/9}}this.nodes=e,this.colors=s}paintMesh(t,e){let s=(this.nodes.length-1)/3,r=(this.nodes[0].length-1)/3;if(&quot;bilinear&quot;===this.type||s&lt;2||r&lt;2){let n;for(let o=0;o&lt;s;++o)for(let s=0;s&lt;r;++s){let r=[];for(let t=3*o,e=3*o+4;t&lt;e;++t)r.push(this.nodes[t].slice(3*s,3*s+4));let i=[];i.push(this.colors[o].slice(s,s+2)),i.push(this.colors[o+1].slice(s,s+2)),(n=new m(r,i)).paint(t,e)}}else{let n,o,a,h,l,d,u;const x=s,g=r;s++,r++;let w=new Array(s);for(let t=0;t&lt;s;++t){w[t]=new Array(r);for(let e=0;e&lt;r;++e)w[t][e]=[],w[t][e][0]=this.nodes[3*t][3*e],w[t][e][1]=this.colors[t][e]}for(let t=0;t&lt;s;++t)for(let e=0;e&lt;r;++e)0!==t&amp;&amp;t!==x&amp;&amp;(n=i(w[t-1][e][0],w[t][e][0]),o=i(w[t+1][e][0],w[t][e][0]),w[t][e][2]=c(w[t-1][e][1],w[t][e][1],w[t+1][e][1],n,o)),0!==e&amp;&amp;e!==g&amp;&amp;(n=i(w[t][e-1][0],w[t][e][0]),o=i(w[t][e+1][0],w[t][e][0]),w[t][e][3]=c(w[t][e-1][1],w[t][e][1],w[t][e+1][1],n,o));for(let t=0;t&lt;r;++t){w[0][t][2]=[],w[x][t][2]=[];for(let e=0;e&lt;4;++e)n=i(w[1][t][0],w[0][t][0]),o=i(w[x][t][0],w[x-1][t][0]),w[0][t][2][e]=n&gt;0?2*(w[1][t][1][e]-w[0][t][1][e])/n-w[1][t][2][e]:0,w[x][t][2][e]=o&gt;0?2*(w[x][t][1][e]-w[x-1][t][1][e])/o-w[x-1][t][2][e]:0}for(let t=0;t&lt;s;++t){w[t][0][3]=[],w[t][g][3]=[];for(let e=0;e&lt;4;++e)n=i(w[t][1][0],w[t][0][0]),o=i(w[t][g][0],w[t][g-1][0]),w[t][0][3][e]=n&gt;0?2*(w[t][1][1][e]-w[t][0][1][e])/n-w[t][1][3][e]:0,w[t][g][3][e]=o&gt;0?2*(w[t][g][1][e]-w[t][g-1][1][e])/o-w[t][g-1][3][e]:0}for(let s=0;s&lt;x;++s)for(let r=0;r&lt;g;++r){let n=i(w[s][r][0],w[s+1][r][0]),o=i(w[s][r+1][0],w[s+1][r+1][0]),c=i(w[s][r][0],w[s][r+1][0]),x=i(w[s+1][r][0],w[s+1][r+1][0]),g=[[],[],[],[]];for(let t=0;t&lt;4;++t){(d=[])[0]=w[s][r][1][t],d[1]=w[s+1][r][1][t],d[2]=w[s][r+1][1][t],d[3]=w[s+1][r+1][1][t],d[4]=w[s][r][2][t]*n,d[5]=w[s+1][r][2][t]*n,d[6]=w[s][r+1][2][t]*o,d[7]=w[s+1][r+1][2][t]*o,d[8]=w[s][r][3][t]*c,d[9]=w[s+1][r][3][t]*x,d[10]=w[s][r+1][3][t]*c,d[11]=w[s+1][r+1][3][t]*x,d[12]=0,d[13]=0,d[14]=0,d[15]=0,u=f(d);for(let e=0;e&lt;9;++e){g[t][e]=[];for(let s=0;s&lt;9;++s)g[t][e][s]=p(u,e/8,s/8),g[t][e][s]&gt;255?g[t][e][s]=255:g[t][e][s]&lt;0&amp;&amp;(g[t][e][s]=0)}}h=[];for(let t=3*s,e=3*s+4;t&lt;e;++t)h.push(this.nodes[t].slice(3*r,3*r+4));l=y(h);for(let s=0;s&lt;8;++s)for(let r=0;r&lt;8;++r)(a=new m(l[s][r],[[[g[0][s][r],g[1][s][r],g[2][s][r],g[3][s][r]],[g[0][s][r+1],g[1][s][r+1],g[2][s][r+1],g[3][s][r+1]]],[[g[0][s+1][r],g[1][s+1][r],g[2][s+1][r],g[3][s+1][r]],[g[0][s+1][r+1],g[1][s+1][r+1],g[2][s+1][r+1],g[3][s+1][r+1]]]])).paint(t,e)}}}transform(t){if(t instanceof x)for(let e=0,s=this.nodes.length;e&lt;s;++e)for(let s=0,r=this.nodes[0].length;s&lt;r;++s)this.nodes[e][s]=this.nodes[e][s].add(t);else if(t instanceof g)for(let e=0,s=this.nodes.length;e&lt;s;++e)for(let s=0,r=this.nodes[0].length;s&lt;r;++s)this.nodes[e][s]=this.nodes[e][s].transform(t)}scale(t){for(let e=0,s=this.nodes.length;e&lt;s;++e)for(let s=0,r=this.nodes[0].length;s&lt;r;++s)this.nodes[e][s]=this.nodes[e][s].scale(t)}}document.querySelectorAll(&quot;rect,circle,ellipse,path,text&quot;).forEach((r,n)=&gt;{let o=r.getAttribute(&quot;id&quot;);o||(o=&quot;patchjs_shape&quot;+n,r.setAttribute(&quot;id&quot;,o));const i=r.style.fill.match(/^url\(\s*&quot;?\s*#([^\s&quot;]+)&quot;?\s*\)/),a=r.style.stroke.match(/^url\(\s*&quot;?\s*#([^\s&quot;]+)&quot;?\s*\)/);if(i&amp;&amp;i[1]){const a=document.getElementById(i[1]);if(a&amp;&amp;&quot;meshgradient&quot;===a.nodeName){const i=r.getBBox();let l=document.createElementNS(s,&quot;canvas&quot;);d(l,{width:i.width,height:i.height});const c=l.getContext(&quot;2d&quot;);let u=c.createImageData(i.width,i.height);const f=new b(a);&quot;objectBoundingBox&quot;===a.getAttribute(&quot;gradientUnits&quot;)&amp;&amp;f.scale(new x(i.width,i.height));const p=a.getAttribute(&quot;gradientTransform&quot;);null!=p&amp;&amp;f.transform(h(p)),&quot;userSpaceOnUse&quot;===a.getAttribute(&quot;gradientUnits&quot;)&amp;&amp;f.transform(new x(-i.x,-i.y)),f.paintMesh(u.data,l.width),c.putImageData(u,0,0);const y=document.createElementNS(t,&quot;image&quot;);d(y,{width:i.width,height:i.height,x:i.x,y:i.y});let g=l.toDataURL();y.setAttributeNS(e,&quot;xlink:href&quot;,g),r.parentNode.insertBefore(y,r),r.style.fill=&quot;none&quot;;const w=document.createElementNS(t,&quot;use&quot;);w.setAttributeNS(e,&quot;xlink:href&quot;,&quot;#&quot;+o);const m=&quot;patchjs_clip&quot;+n,M=document.createElementNS(t,&quot;clipPath&quot;);M.setAttribute(&quot;id&quot;,m),M.appendChild(w),r.parentElement.insertBefore(M,r),y.setAttribute(&quot;clip-path&quot;,&quot;url(#&quot;+m+&quot;)&quot;),u=null,l=null,g=null}}if(a&amp;&amp;a[1]){const o=document.getElementById(a[1]);if(o&amp;&amp;&quot;meshgradient&quot;===o.nodeName){const i=parseFloat(r.style.strokeWidth.slice(0,-2))*(parseFloat(r.style.strokeMiterlimit)||parseFloat(r.getAttribute(&quot;stroke-miterlimit&quot;))||1),a=r.getBBox(),l=Math.trunc(a.width+i),c=Math.trunc(a.height+i),u=Math.trunc(a.x-i/2),f=Math.trunc(a.y-i/2);let p=document.createElementNS(s,&quot;canvas&quot;);d(p,{width:l,height:c});const y=p.getContext(&quot;2d&quot;);let g=y.createImageData(l,c);const w=new b(o);&quot;objectBoundingBox&quot;===o.getAttribute(&quot;gradientUnits&quot;)&amp;&amp;w.scale(new x(l,c));const m=o.getAttribute(&quot;gradientTransform&quot;);null!=m&amp;&amp;w.transform(h(m)),&quot;userSpaceOnUse&quot;===o.getAttribute(&quot;gradientUnits&quot;)&amp;&amp;w.transform(new x(-u,-f)),w.paintMesh(g.data,p.width),y.putImageData(g,0,0);const M=document.createElementNS(t,&quot;image&quot;);d(M,{width:l,height:c,x:0,y:0});let S=p.toDataURL();M.setAttributeNS(e,&quot;xlink:href&quot;,S);const k=&quot;pattern_clip&quot;+n,A=document.createElementNS(t,&quot;pattern&quot;);d(A,{id:k,patternUnits:&quot;userSpaceOnUse&quot;,width:l,height:c,x:u,y:f}),A.appendChild(M),o.parentNode.appendChild(A),r.style.stroke=&quot;url(#&quot;+k+&quot;)&quot;,g=null,p=null,S=null}}})}();
</script>
</svg>
