<?xml version="1.0" encoding="UTF-8" standalone="no"?>
<!-- Created with Inkscape (http://www.inkscape.org/) -->

<svg
   width="297mm"
   height="210mm"
   viewBox="0 0 297 210"
   version="1.1"
   id="svg1"
   inkscape:version="1.3.2 (1:1.3.2+202311252150+091e20ef0f)"
   sodipodi:docname="Reto8_Noche_Estrellada.svg"
   xmlns:inkscape="http://www.inkscape.org/namespaces/inkscape"
   xmlns:sodipodi="http://sodipodi.sourceforge.net/DTD/sodipodi-0.dtd"
   xmlns="http://www.w3.org/2000/svg"
   xmlns:svg="http://www.w3.org/2000/svg">
  <sodipodi:namedview
     id="namedview1"
     pagecolor="#ffffff"
     bordercolor="#000000"
     borderopacity="0.25"
     inkscape:showpageshadow="2"
     inkscape:pageopacity="0.0"
     inkscape:pagecheckerboard="0"
     inkscape:deskcolor="#d1d1d1"
     inkscape:document-units="mm"
     inkscape:zoom="0.48756441"
     inkscape:cx="592.7422"
     inkscape:cy="410.20221"
     inkscape:window-width="1162"
     inkscape:window-height="1016"
     inkscape:window-x="20"
     inkscape:window-y="20"
     inkscape:window-maximized="0"
     inkscape:current-layer="layer1" />
  <defs
     id="defs1" />
  <g
     inkscape:label="Capa 1"
     inkscape:groupmode="layer"
     id="layer1">
    <rect
       style="fill:#000000;stroke:#000000;stroke-width:2.11667;stroke-linejoin:bevel"
       id="rect1"
       width="296.19244"
       height="208.97838"
       x="0.17806141"
       y="0.43031508"
       ry="0.50238752" />
    <path
       sodipodi:type="star"
       style="fill:#ffff00;stroke:#000000;stroke-width:2.11667;stroke-linejoin:bevel"
       id="path1"
       inkscape:flatsided="false"
       sodipodi:sides="5"
       sodipodi:cx="20.347754"
       sodipodi:cy="26.851236"
       sodipodi:r1="21.470087"
       sodipodi:r2="10.735046"
       sodipodi:arg1="2.9707467"
       sodipodi:arg2="3.5990653"
       inkscape:rounded="0"
       inkscape:randomized="0"
       d="M -0.80975684,30.501496 10.716574,22.109759 10.33812,7.8572404 21.880968,16.226243 35.31897,11.462042 l -4.392458,13.564065 8.683596,11.30808 -14.257537,0.01405 -8.071245,11.75298 -4.419183,-13.555382 z"
       inkscape:transform-center-x="0.2339503"
       inkscape:transform-center-y="0.27849316"
       transform="matrix(0.24689265,0,0,0.24689265,18.370012,18.54612)" />
    <path
       sodipodi:type="star"
       style="fill:#ffff00;stroke:#000000;stroke-width:2.11667;stroke-linejoin:bevel"
       id="path2"
       inkscape:flatsided="false"
       sodipodi:sides="5"
       sodipodi:cx="82.510262"
       sodipodi:cy="32.788734"
       sodipodi:r1="9.1646738"
       sodipodi:r2="4.5823379"
       sodipodi:arg1="0.55168529"
       sodipodi:arg2="1.1800038"
       inkscape:rounded="0"
       inkscape:randomized="0"
       d="m 90.315287,37.592153 -6.059515,-0.566555 -3.901948,4.670494 -1.333667,-5.938016 -5.647672,-2.26771 5.235263,-3.103341 0.411494,-6.072016 4.569238,4.020046 5.901989,-1.485003 -2.411318,5.587867 z"
       inkscape:transform-center-x="0.66637673"
       inkscape:transform-center-y="0.21681563"
       transform="translate(48.152893,63.550965)" />
    <path
       sodipodi:type="star"
       style="fill:#ffff00;stroke:#000000;stroke-width:2.11667;stroke-linejoin:bevel"
       id="path3"
       inkscape:flatsided="false"
       sodipodi:sides="8"
       sodipodi:cx="57.16407"
       sodipodi:cy="69.337959"
       sodipodi:r1="39.648441"
       sodipodi:r2="12.130348"
       sodipodi:arg1="0.95589185"
       sodipodi:arg2="0.75894533"
       inkscape:rounded="0"
       inkscape:randomized="0"
       d="M 80.036483,101.72394 65.965392,77.685538 50.436963,108.41154 57.484915,81.464064 24.778091,92.210372 48.816491,78.139281 18.090487,62.610852 45.037966,69.658804 34.291658,36.95198 l 14.07109,24.0384 15.528429,-30.726004 -7.047952,26.947479 32.706824,-10.746308 -24.0384,14.07109 30.726005,15.52843 -26.94748,-7.047952 z"
       inkscape:transform-center-x="-0.59374255"
       inkscape:transform-center-y="-0.82369525"
       transform="matrix(0.58897111,0,0,0.58897111,36.829492,-7.8754977)" />
    <path
       sodipodi:type="star"
       style="fill:#ffff00;stroke:#000000;stroke-width:2.11667;stroke-linejoin:bevel"
       id="path4"
       inkscape:flatsided="false"
       sodipodi:sides="7"
       sodipodi:cx="134.22862"
       sodipodi:cy="38.336197"
       sodipodi:r1="28.095697"
       sodipodi:r2="36.512756"
       sodipodi:arg1="0.97561616"
       sodipodi:arg2="-1.8861632"
       inkscape:rounded="0"
       inkscape:randomized="0"
       d="M 149.9807,61.600769 122.90363,3.6241529 125.86091,65.156889 154.30658,7.8393585 108.04218,48.516481 170.59041,35.019305 109.94237,24.210111 159.49308,64.696939 130.13061,10.540972 129.37109,74.524396 153.40474,17.802204 102.90693,57.101401 162.23886,40.525951 100.02864,25.547824 Z"
       transform="matrix(0.59628456,0,0,0.59628456,-54.553221,36.120886)" />
    <path
       style="fill:#e3dbdb;stroke:#000000;stroke-width:2.11667;stroke-linejoin:bevel"
       id="path5"
       sodipodi:type="arc"
       sodipodi:cx="-211.24023"
       sodipodi:cy="-157.93491"
       sodipodi:rx="23.622812"
       sodipodi:ry="23.622812"
       sodipodi:start="2.2001356"
       sodipodi:end="5.0508593"
       sodipodi:arc-type="arc"
       d="m -225.14488,-138.83783 a 23.622812,23.622812 0 0 1 -7.00591,-30.08733 23.622812,23.622812 0 0 1 28.75438,-11.29229"
       sodipodi:open="true"
       transform="rotate(149.62475)" />
    <path
       sodipodi:type="star"
       style="fill:#ffff00;stroke:#000000;stroke-width:2.11667;stroke-linejoin:bevel"
       id="path9"
       inkscape:flatsided="false"
       sodipodi:sides="5"
       sodipodi:cx="90.917313"
       sodipodi:cy="104.19772"
       sodipodi:r1="11.56984"
       sodipodi:r2="26.768778"
       sodipodi:arg1="1.6092812"
       sodipodi:arg2="2.2375997"
       inkscape:rounded="0"
       inkscape:randomized="0"
       d="m 90.472159,115.759 -16.110726,9.4737 5.422895,-17.88571 -13.988517,-12.394678 18.686093,-0.36951 7.465347,-17.134036 6.125745,17.657346 18.602354,1.805258 -14.90017,11.28235 4.03154,18.24975 z"
       inkscape:transform-center-x="-0.010582708"
       inkscape:transform-center-y="1.2844179"
       transform="matrix(0.36601363,0.14611969,-0.16593204,0.32231147,233.01095,145.8312)" />
    <path
       sodipodi:type="star"
       style="fill:#ffff00;stroke:#000000;stroke-width:2.11667;stroke-linejoin:bevel"
       id="path10"
       inkscape:flatsided="false"
       sodipodi:sides="5"
       sodipodi:cx="65.024216"
       sodipodi:cy="63.506451"
       sodipodi:r1="16.321075"
       sodipodi:r2="7.0541973"
       sodipodi:arg1="0.44366537"
       sodipodi:arg2="1.0719839"
       inkscape:rounded="0"
       inkscape:randomized="0"
       d="M 79.765156,70.512319 68.398824,69.701103 62.91644,79.69085 60.175562,68.630147 48.980599,66.503092 l 9.672376,-6.024676 -1.436484,-11.304339 8.718735,7.33725 10.307167,-4.859411 -4.283901,10.559345 z"
       inkscape:transform-center-x="0.65133931"
       inkscape:transform-center-y="0.92601218"
       transform="translate(0.59777759,19.73302)" />
    <path
       sodipodi:type="star"
       style="fill:#ffff00;stroke:#000000;stroke-width:2.11667;stroke-linejoin:bevel"
       id="path11"
       inkscape:flatsided="false"
       sodipodi:sides="5"
       sodipodi:cx="38.573608"
       sodipodi:cy="92.129822"
       sodipodi:r1="7.808238"
       sodipodi:r2="3.37483"
       sodipodi:arg1="1.1844421"
       sodipodi:arg2="1.8127606"
       inkscape:rounded="0"
       inkscape:randomized="0"
       d="m 41.515861,99.362507 -3.750896,-3.956167 -5.160843,1.756753 2.603448,-4.789837 -3.265559,-4.365387 5.359914,0.995885 3.142617,-4.45471 0.709162,5.405327 5.207803,1.612225 -4.921629,2.344791 z"
       inkscape:transform-center-x="-0.57814959"
       inkscape:transform-center-y="-0.17404762"
       transform="translate(-10.319083,8.7313684)" />
    <path
       sodipodi:type="star"
       style="fill:#ffff00;stroke:#000000;stroke-width:2.11667;stroke-linejoin:bevel"
       id="path12"
       inkscape:flatsided="false"
       sodipodi:sides="5"
       sodipodi:cx="63.646355"
       sodipodi:cy="119.01497"
       sodipodi:r1="9.1917582"
       sodipodi:r2="3.9728072"
       sodipodi:arg1="1.0927093"
       sodipodi:arg2="1.7210278"
       inkscape:rounded="0"
       inkscape:randomized="0"
       d="m 67.875313,127.17612 -4.823556,-4.23309 -5.860295,2.61585 2.535345,-5.89557 -4.298754,-4.76513 6.390486,0.58943 3.203519,-5.56087 1.414192,6.25986 6.278637,1.32832 -5.516467,3.27938 z"
       inkscape:transform-center-x="-0.42511484"
       inkscape:transform-center-y="-0.46354093"
       transform="translate(-17.312233,6.5479964)" />
    <path
       sodipodi:type="star"
       style="fill:#ffff00;stroke:#000000;stroke-width:2.11667;stroke-linejoin:bevel"
       id="path13"
       inkscape:flatsided="false"
       sodipodi:sides="5"
       sodipodi:cx="135.63615"
       sodipodi:cy="134.74161"
       sodipodi:r1="10.223628"
       sodipodi:r2="4.4187956"
       sodipodi:arg1="0.82631442"
       sodipodi:arg2="1.454633"
       inkscape:rounded="0"
       inkscape:randomized="0"
       d="m 142.56359,142.26046 -6.41529,-3.12984 -5.52231,4.52283 0.99422,-7.06848 -6.00794,-3.8544 7.02975,-1.23872 1.80919,-6.90497 3.35041,6.30291 7.12609,-0.41311 -4.95909,5.13413 z"
       inkscape:transform-center-x="0.36616891"
       inkscape:transform-center-y="-0.62144609"
       transform="translate(-3.2029856,14.416615)" />
    <path
       sodipodi:type="star"
       style="fill:#ffff00;stroke:#000000;stroke-width:2.11667;stroke-linejoin:bevel"
       id="path14"
       inkscape:flatsided="false"
       sodipodi:sides="5"
       sodipodi:cx="212.42514"
       sodipodi:cy="109.75154"
       sodipodi:r1="9.9434805"
       sodipodi:r2="4.2977118"
       sodipodi:arg1="0.71856929"
       sodipodi:arg2="1.3468878"
       inkscape:rounded="0"
       inkscape:randomized="0"
       d="m 219.91008,116.29742 -6.53067,-2.35545 -4.86679,4.95096 0.22207,-6.93891 -6.21256,-3.09867 6.66791,-1.93303 1.02723,-6.86604 3.89892,5.74423 6.84742,-1.14478 -4.25825,5.48316 z"
       inkscape:transform-center-x="0.68227287"
       inkscape:transform-center-y="-0.27693898"
       transform="translate(9.4096976,2.8383836)" />
    <path
       sodipodi:type="star"
       style="fill:#ffff00;stroke:#000000;stroke-width:2.11667;stroke-linejoin:bevel"
       id="path15"
       inkscape:flatsided="false"
       sodipodi:sides="5"
       sodipodi:cx="190.71223"
       sodipodi:cy="56.01939"
       sodipodi:r1="10.194095"
       sodipodi:r2="4.4060311"
       sodipodi:arg1="0.7867215"
       sodipodi:arg2="1.41504"
       inkscape:rounded="0"
       inkscape:randomized="0"
       d="m 197.911,63.237236 -6.51527,-2.865152 -5.32353,4.724179 0.71159,-7.081773 -6.13802,-3.60313 6.95506,-1.511624 1.53002,-6.951036 3.58687,6.147538 7.08364,-0.692846 -4.73826,5.311011 z"
       inkscape:transform-center-x="0.4886764"
       inkscape:transform-center-y="-0.49690945"
       transform="translate(7.7117549,15.241209)" />
    <path
       sodipodi:type="star"
       style="fill:#ffff00;stroke:#000000;stroke-width:2.11667;stroke-linejoin:bevel"
       id="path16"
       inkscape:flatsided="false"
       sodipodi:sides="5"
       sodipodi:cx="120.12786"
       sodipodi:cy="26.755846"
       sodipodi:r1="7.418385"
       sodipodi:r2="3.2063303"
       sodipodi:arg1="0.79408657"
       sodipodi:arg2="1.4224051"
       inkscape:rounded="0"
       inkscape:randomized="0"
       d="m 125.32768,32.046814 -4.72577,-2.119875 -3.89923,3.409226 0.55578,-5.149552 -4.44729,-2.654874 5.06926,-1.062724 1.15064,-5.050028 2.5772,4.492753 5.15843,-0.466215 -3.47646,3.839397 z"
       inkscape:transform-center-x="0.33892754"
       inkscape:transform-center-y="-0.37827016"
       transform="translate(-24.954034,71.408984)" />
    <path
       sodipodi:type="star"
       style="fill:#ffff00;stroke:#000000;stroke-width:2.11667;stroke-linejoin:bevel"
       id="path17"
       inkscape:flatsided="false"
       sodipodi:sides="5"
       sodipodi:cx="199.50932"
       sodipodi:cy="17.744667"
       sodipodi:r1="10.756048"
       sodipodi:r2="4.6489148"
       sodipodi:arg1="0.99356187"
       sodipodi:arg2="1.6218804"
       inkscape:rounded="0"
       inkscape:randomized="0"
       d="m 205.37899,26.757967 -6.10705,-4.37045 -6.52095,3.724799 2.26936,-7.158693 -5.55757,-5.050765 7.50959,-0.05387 3.08618,-6.8463428 2.37182,7.1254018 7.46494,0.819492 -6.04373,4.457607 z"
       inkscape:transform-center-x="-0.16971694"
       inkscape:transform-center-y="-0.86435865"
       transform="translate(-7.8664987,14.346662)" />
    <path
       sodipodi:type="star"
       style="fill:#ffff00;stroke:#000000;stroke-width:2.11667;stroke-linejoin:bevel"
       id="path18"
       inkscape:flatsided="false"
       sodipodi:sides="5"
       sodipodi:cx="243.24884"
       sodipodi:cy="71.290276"
       sodipodi:r1="7.1130328"
       sodipodi:r2="3.0743525"
       sodipodi:arg1="1.0471976"
       sodipodi:arg2="1.6755161"
       inkscape:rounded="0"
       inkscape:randomized="0"
       d="m 246.80536,77.450343 -3.87788,-3.102557 -4.43819,2.228503 1.75238,-4.64682 -3.49091,-3.532325 4.9609,0.230664 2.2807,-4.411599 1.31362,4.789377 4.90046,0.805807 -4.14904,2.729334 z"
       inkscape:transform-center-x="-0.22975552"
       inkscape:transform-center-y="-0.45700078"
       transform="translate(1.6258703,3.2538603)" />
    <path
       sodipodi:type="star"
       style="fill:#ffff00;stroke:#000000;stroke-width:2.11667;stroke-linejoin:bevel"
       id="path19"
       inkscape:flatsided="false"
       sodipodi:sides="5"
       sodipodi:cx="260.88541"
       sodipodi:cy="104.7955"
       sodipodi:r1="10.721133"
       sodipodi:r2="4.6338234"
       sodipodi:arg1="1.0471976"
       sodipodi:arg2="1.6755161"
       inkscape:rounded="0"
       inkscape:randomized="0"
       d="m 266.24597,114.08028 -5.84493,-4.67634 -6.68947,3.35892 2.64127,-7.00393 -5.26168,-5.32411 7.47733,0.34767 3.43758,-6.64939 1.97997,7.2188 7.38622,1.21455 -6.25365,4.1138 z"
       inkscape:transform-center-x="-0.34630077"
       inkscape:transform-center-y="-0.68881525"
       transform="translate(3.9809444,2.8659408)" />
    <path
       sodipodi:type="star"
       style="fill:#ffff00;stroke:#000000;stroke-width:2.11667;stroke-linejoin:bevel"
       id="path20"
       inkscape:flatsided="false"
       sodipodi:sides="5"
       sodipodi:cx="250.33102"
       sodipodi:cy="136.53284"
       sodipodi:r1="4.7398858"
       sodipodi:r2="2.0486448"
       sodipodi:arg1="1.3089969"
       sodipodi:arg2="1.9373155"
       inkscape:rounded="0"
       inkscape:randomized="0"
       d="m 251.5578,141.11121 -1.96094,-2.6658 -3.24104,0.66895 1.92937,-2.68874 -1.63775,-2.87569 3.15336,1.00407 2.22885,-2.44623 0.0195,3.3093 3.01525,1.36383 -3.14129,1.04119 z"
       inkscape:transform-center-x="-0.37909046"
       inkscape:transform-center-y="0.07665503"
       transform="translate(-81.920967,-56.167776)" />
    <path
       sodipodi:type="star"
       style="fill:#ffff00;stroke:#000000;stroke-width:2.11667;stroke-linejoin:bevel"
       id="path21"
       inkscape:flatsided="false"
       sodipodi:sides="5"
       sodipodi:cx="206.81197"
       sodipodi:cy="153.77934"
       sodipodi:r1="13.343901"
       sodipodi:r2="5.7674203"
       sodipodi:arg1="0.78539816"
       sodipodi:arg2="1.4137167"
       inkscape:rounded="0"
       inkscape:randomized="0"
       d="m 216.24753,163.21491 -8.53334,-3.73915 -6.96023,6.19309 0.9192,-9.27115 -8.04081,-4.7058 9.10143,-1.99074 1.99074,-9.10143 4.7058,8.0408 9.27115,-0.91919 -6.19309,6.96023 z"
       inkscape:transform-center-x="0.64505894"
       inkscape:transform-center-y="-0.64505827"
       transform="translate(5.0556722,15.817788)" />
    <path
       sodipodi:type="star"
       style="fill:#ffff00;stroke:#000000;stroke-width:2.11667;stroke-linejoin:bevel"
       id="path22"
       inkscape:flatsided="false"
       sodipodi:sides="5"
       sodipodi:cx="165.59499"
       sodipodi:cy="168.39098"
       sodipodi:r1="10.759687"
       sodipodi:r2="4.6504865"
       sodipodi:arg1="1.0471976"
       sodipodi:arg2="1.6755161"
       inkscape:rounded="0"
       inkscape:randomized="0"
       d="m 170.97483,177.70914 -5.86595,-4.69315 -6.71353,3.37099 2.65077,-7.02911 -5.2806,-5.34325 7.50422,0.34892 3.44994,-6.67331 1.98709,7.24476 7.41278,1.21892 -6.27613,4.12859 z"
       inkscape:transform-center-x="-0.34754732"
       inkscape:transform-center-y="-0.69129311"
       transform="translate(0.91786417,15.557056)" />
    <path
       sodipodi:type="star"
       style="fill:#ffff00;stroke:#000000;stroke-width:2.11667;stroke-linejoin:bevel"
       id="path23"
       inkscape:flatsided="false"
       sodipodi:sides="5"
       sodipodi:cx="114.47441"
       sodipodi:cy="176.06882"
       sodipodi:r1="8.4447861"
       sodipodi:r2="3.6499541"
       sodipodi:arg1="1.0471976"
       sodipodi:arg2="1.6755161"
       inkscape:rounded="0"
       inkscape:randomized="0"
       d="m 118.6968,183.38222 -4.60391,-3.68344 -5.26914,2.64574 2.08047,-5.51683 -4.1445,-4.19368 5.88971,0.27385 2.7077,-5.23757 1.55958,5.68608 5.81795,0.95668 -4.92585,3.24034 z"
       inkscape:transform-center-x="-0.27277419"
       inkscape:transform-center-y="-0.54256489"
       transform="translate(-10.658247,5.9205419)" />
    <path
       sodipodi:type="star"
       style="fill:#ffff00;stroke:#000000;stroke-width:2.11667;stroke-linejoin:bevel"
       id="path24"
       inkscape:flatsided="false"
       sodipodi:sides="5"
       sodipodi:cx="61.384548"
       sodipodi:cy="171.67239"
       sodipodi:r1="10.15863"
       sodipodi:r2="4.3907013"
       sodipodi:arg1="1.0471976"
       sodipodi:arg2="1.6755161"
       inkscape:rounded="0"
       inkscape:randomized="0"
       d="m 66.463863,180.47003 -5.538268,-4.43099 -6.338498,3.18269 2.502697,-6.63646 -4.985616,-5.04476 7.08502,0.32942 3.257217,-6.30052 1.876086,6.84006 6.998687,1.15083 -5.925535,3.89795 z"
       inkscape:transform-center-x="-0.32813385"
       inkscape:transform-center-y="-0.65267631" />
    <path
       sodipodi:type="star"
       style="fill:#ffff00;stroke:#000000;stroke-width:2.11667;stroke-linejoin:bevel"
       id="path25"
       inkscape:flatsided="false"
       sodipodi:sides="5"
       sodipodi:cx="18.461153"
       sodipodi:cy="154.26901"
       sodipodi:r1="9.6941853"
       sodipodi:r2="4.1899619"
       sodipodi:arg1="1.0471976"
       sodipodi:arg2="1.6755161"
       inkscape:rounded="0"
       inkscape:randomized="0"
       d="m 23.308245,162.66442 -5.285062,-4.2284 -6.048706,3.03718 2.388275,-6.33305 -4.7576777,-4.81412 6.7610977,0.31437 3.1083,-6.01247 1.790313,6.52733 6.678712,1.09822 -5.654623,3.71974 z"
       inkscape:transform-center-x="-0.31313234"
       inkscape:transform-center-y="-0.62283635" />
    <path
       sodipodi:type="star"
       style="fill:#ffff00;stroke:#000000;stroke-width:2.11667;stroke-linejoin:bevel"
       id="path26"
       inkscape:flatsided="false"
       sodipodi:sides="5"
       sodipodi:cx="76.367149"
       sodipodi:cy="142.86459"
       sodipodi:r1="13.244492"
       sodipodi:r2="5.7244539"
       sodipodi:arg1="0.78539816"
       sodipodi:arg2="1.4137167"
       inkscape:rounded="0"
       inkscape:randomized="0"
       d="m 85.732419,152.22986 -8.469768,-3.71129 -6.908375,6.14695 0.912348,-9.20208 -7.980905,-4.67074 9.03363,-1.97591 1.975905,-9.03363 4.670743,7.98091 9.202081,-0.91235 -6.146952,6.90838 z"
       inkscape:transform-center-x="0.64025172"
       inkscape:transform-center-y="-0.64025256" />
    <path
       sodipodi:type="star"
       style="fill:#ffff00;stroke:#ffff00;stroke-width:2.11667;stroke-linejoin:bevel"
       id="path27"
       inkscape:flatsided="false"
       sodipodi:sides="11"
       sodipodi:cx="143.61288"
       sodipodi:cy="189.95123"
       sodipodi:r1="9.7201748"
       sodipodi:r2="0.65862465"
       sodipodi:arg1="2.0413959"
       sodipodi:arg2="-0.13454565"
       inkscape:rounded="0"
       inkscape:randomized="0"
       d="m 139.20556,198.61479 5.06,-8.75191 -9.04423,4.99382 8.98838,-4.62693 -10.30835,-0.68861 10.06302,0.96706 -8.29964,-6.15241 7.94271,6.25403 -3.65586,-9.66287 3.30065,9.55538 2.14864,-10.10543 -2.38934,9.82296 7.27095,-7.33958 -7.32073,6.97182 10.08479,-2.24347 -9.92784,1.90718 9.69678,3.56492 -9.38294,-3.76297 6.23011,8.24147 -5.85901,-8.23841 0.78543,10.30142 -0.4749,-10.09821 z"
       inkscape:transform-center-x="-0.52332456"
       inkscape:transform-center-y="-1.0495408"
       transform="matrix(2.066251,0,0,2.0833205,-44.016295,-244.85405)" />
    <path
       sodipodi:type="star"
       style="fill:#ffff00;stroke:#000000;stroke-width:2.11667;stroke-linejoin:bevel"
       id="path28"
       inkscape:flatsided="false"
       sodipodi:sides="11"
       sodipodi:cx="105.27668"
       sodipodi:cy="46.717804"
       sodipodi:r1="31.436159"
       sodipodi:r2="41.878124"
       sodipodi:arg1="-0.17579636"
       sodipodi:arg2="2.9702671"
       inkscape:rounded="0"
       inkscape:randomized="0"
       d="M 136.22833,41.219862 64.011667,53.857549 134.28728,58.826367 66.702304,30.414589 123.13556,72.588489 81.640034,12.147785 106.31378,78.136851 104.08223,4.8567172 89.162726,73.709888 126.90366,10.856249 77.127737,60.713128 142.85867,28.241571 74.029839,43.272952 146.88167,51.492967 80.852592,26.926492 137.69538,73.228282 95.42982,16.863634 118.21638,86.546707 113.13336,16.279264 94.629114,87.219738 128.34245,25.358915 74.422379,75.03369 Z"
       inkscape:transform-center-x="0.24179379"
       inkscape:transform-center-y="-0.24179311"
       transform="translate(67.158828,78.25587)" />
    <path
       sodipodi:type="star"
       style="fill:#ffff00;stroke:#000000;stroke-width:2.11667;stroke-linejoin:bevel"
       id="path29"
       inkscape:flatsided="false"
       sodipodi:sides="7"
       sodipodi:cx="104.40546"
       sodipodi:cy="56.659565"
       sodipodi:r1="33.653423"
       sodipodi:r2="25.578382"
       sodipodi:arg1="0.65730863"
       sodipodi:arg2="-0.24064263"
       inkscape:rounded="0"
       inkscape:randomized="0"
       d="M 131.04684,77.221419 129.2468,50.563551 104.94018,90.30874 124.65984,72.280506 78.430867,78.057546 104.82091,82.234573 71.48095,49.693236 84.669142,72.930138 89.323857,26.574714 79.37922,51.373629 118.52352,26.110698 92.934564,33.797538 137.09199,48.650602 115.12772,33.437019 Z"
       inkscape:transform-center-x="0.42768021"
       inkscape:transform-center-y="0.075405967"
       transform="translate(31.396041,-12.856457)" />
    <path
       sodipodi:type="star"
       style="fill:#ffff00;stroke:#ffff00;stroke-width:2.11667;stroke-linejoin:bevel"
       id="path30"
       inkscape:flatsided="false"
       sodipodi:sides="11"
       sodipodi:cx="47.926083"
       sodipodi:cy="205.24332"
       sodipodi:r1="35.839378"
       sodipodi:r2="2.4284229"
       sodipodi:arg1="2.9753355"
       sodipodi:arg2="3.2609348"
       inkscape:rounded="0"
       inkscape:randomized="0"
       d="m 12.58089,211.17446 32.934043,-6.22027 -30.529735,-13.83033 31.068809,12.57266 -18.206003,-28.14044 19.339449,27.37387 -0.101995,-33.51615 1.46995,33.48406 18.034396,-28.25073 -16.866247,28.9633 30.444994,-14.01589 -29.847531,15.24689 33.189522,4.66889 -33.352434,-3.31029 25.39661,21.87133 -26.268175,-20.81648 9.540455,32.12978 -10.843956,-31.71359 -9.344728,32.18725 8.023143,-32.54185 -25.263026,22.02549 24.34295,-23.03831 z"
       inkscape:transform-center-x="-0.058155414"
       inkscape:transform-center-y="-0.29520226"
       transform="matrix(0.48612161,0,0,0.48612161,5.6009936,85.226067)" />
    <path
       sodipodi:type="star"
       style="fill:#ffff00;stroke:#ffff00;stroke-width:2.11667;stroke-linejoin:bevel"
       id="path31"
       inkscape:flatsided="false"
       sodipodi:sides="5"
       sodipodi:cx="223.56882"
       sodipodi:cy="23.639771"
       sodipodi:r1="7.0306091"
       sodipodi:r2="3.0387278"
       sodipodi:arg1="1.0471976"
       sodipodi:arg2="1.6755161"
       inkscape:rounded="0"
       inkscape:randomized="0"
       d="m 227.08412,29.728457 -3.83294,-3.066605 -4.38676,2.202679 1.73207,-4.592974 -3.45045,-3.491393 4.90341,0.227991 2.25427,-4.360479 1.2984,4.73388 4.84367,0.796469 -4.10096,2.697707 z"
       inkscape:transform-center-x="-0.22709339"
       inkscape:transform-center-y="-0.45170461" />
    <path
       sodipodi:type="star"
       style="fill:#ffff00;stroke:#ffff00;stroke-width:2.11667;stroke-linejoin:bevel"
       id="path32"
       inkscape:flatsided="false"
       sodipodi:sides="5"
       sodipodi:cx="104.53264"
       sodipodi:cy="123.64457"
       sodipodi:r1="7.1480451"
       sodipodi:r2="3.0894854"
       sodipodi:arg1="0.78539816"
       sodipodi:arg2="1.4137167"
       inkscape:rounded="0"
       inkscape:randomized="0"
       d="m 109.58707,128.699 -4.57113,-2.00298 -3.72845,3.3175 0.4924,-4.96635 -4.307292,-2.5208 4.875442,-1.0664 1.0664,-4.87544 2.5208,4.30729 4.96635,-0.4924 -3.3175,3.72845 z"
       inkscape:transform-center-x="0.34554431"
       inkscape:transform-center-y="-0.34554455" />
    <path
       sodipodi:type="star"
       style="fill:#ffff00;stroke:#ffff00;stroke-width:2.11667;stroke-linejoin:bevel"
       id="path33"
       inkscape:flatsided="false"
       sodipodi:sides="5"
       sodipodi:cx="88.248505"
       sodipodi:cy="61.263721"
       sodipodi:r1="6.40909"
       sodipodi:r2="2.7700987"
       sodipodi:arg1="1.3089969"
       sodipodi:arg2="1.9373155"
       inkscape:rounded="0"
       inkscape:randomized="0"
       d="m 89.907299,67.454427 -2.651509,-3.604596 -4.3824,0.904531 2.608812,-3.635616 -2.214496,-3.888395 4.263844,1.357661 3.013767,-3.307692 0.02639,4.474698 4.077106,1.844129 -4.247535,1.407854 z"
       inkscape:transform-center-x="-0.51259463"
       inkscape:transform-center-y="0.10365152" />
    <path
       sodipodi:type="star"
       style="fill:#ffff00;stroke:#ffff00;stroke-width:2.11667;stroke-linejoin:bevel"
       id="path34"
       inkscape:flatsided="false"
       sodipodi:sides="5"
       sodipodi:cx="101.41445"
       sodipodi:cy="14.793935"
       sodipodi:r1="3.1500516"
       sodipodi:r2="1.3614966"
       sodipodi:arg1="1.3089969"
       sodipodi:arg2="1.9373155"
       inkscape:rounded="0"
       inkscape:randomized="0"
       d="m 102.22975,17.836651 -1.30322,-1.77165 -2.153934,0.444575 1.282224,-1.786896 -1.088418,-1.911137 2.095668,0.667287 1.48126,-1.625722 0.013,2.199303 2.00389,0.906385 -2.08766,0.691956 z"
       inkscape:transform-center-x="-0.25193823"
       inkscape:transform-center-y="0.050944655" />
    <path
       sodipodi:type="star"
       style="fill:#ffff00;stroke:#ffff00;stroke-width:2.11667;stroke-linejoin:bevel"
       id="path35"
       inkscape:flatsided="false"
       sodipodi:sides="5"
       sodipodi:cx="168.90396"
       sodipodi:cy="13.271934"
       sodipodi:r1="7.8007927"
       sodipodi:r2="3.3716123"
       sodipodi:arg1="1.0471976"
       sodipodi:arg2="1.6755161"
       inkscape:rounded="0"
       inkscape:randomized="0"
       d="m 172.80436,20.027618 -4.25283,-3.402542 -4.86732,2.443976 1.92182,-5.096121 -3.82845,-3.873866 5.44058,0.252967 2.50121,-4.8381575 1.44064,5.2524625 5.37428,0.883721 -4.55021,2.993234 z"
       inkscape:transform-center-x="-0.25197183"
       inkscape:transform-center-y="-0.50118741" />
    <path
       sodipodi:type="star"
       style="fill:#ffff00;stroke:#ffff00;stroke-width:2.11667;stroke-linejoin:bevel"
       id="path36"
       inkscape:flatsided="false"
       sodipodi:sides="5"
       sodipodi:cx="275.15359"
       sodipodi:cy="75.358131"
       sodipodi:r1="5.5804076"
       sodipodi:r2="2.4119308"
       sodipodi:arg1="1.3089969"
       sodipodi:arg2="1.9373155"
       inkscape:rounded="0"
       inkscape:randomized="0"
       d="m 276.59791,80.748391 -2.30867,-3.138528 -3.81577,0.787576 2.2715,-3.165538 -1.92817,-3.385634 3.71254,1.182118 2.62409,-2.880013 0.023,3.896128 3.54994,1.605687 -3.69833,1.225822 z"
       inkscape:transform-center-x="-0.44631467"
       inkscape:transform-center-y="0.090249311" />
    <path
       sodipodi:type="star"
       style="fill:#ffff00;stroke:#ffff00;stroke-width:2.11667;stroke-linejoin:bevel"
       id="path37"
       inkscape:flatsided="false"
       sodipodi:sides="5"
       sodipodi:cx="278.01956"
       sodipodi:cy="173.12656"
       sodipodi:r1="7.8838239"
       sodipodi:r2="3.4074998"
       sodipodi:arg1="1.0471976"
       sodipodi:arg2="1.6755161"
       inkscape:rounded="0"
       inkscape:randomized="0"
       d="m 281.96147,179.95415 -4.29809,-3.43876 -4.91913,2.46999 1.94227,-5.15036 -3.86919,-3.9151 5.49848,0.25565 2.52784,-4.88965 1.45597,5.30837 5.43149,0.89313 -4.59864,3.02509 z"
       inkscape:transform-center-x="-0.25465246"
       inkscape:transform-center-y="-0.50652404" />
    <path
       sodipodi:type="star"
       style="fill:#ffff00;stroke:#ffff00;stroke-width:2.11667;stroke-linejoin:bevel"
       id="path38"
       inkscape:flatsided="false"
       sodipodi:sides="5"
       sodipodi:cx="136.41412"
       sodipodi:cy="173.43817"
       sodipodi:r1="4.0412946"
       sodipodi:r2="1.7467045"
       sodipodi:arg1="1.3089969"
       sodipodi:arg2="1.9373155"
       inkscape:rounded="0"
       inkscape:randomized="0"
       d="m 137.46009,177.34176 -1.67193,-2.2729 -2.76335,0.57036 1.645,-2.29246 -1.39636,-2.45186 2.68859,0.85608 1.90035,-2.08568 0.0166,2.82155 2.57085,1.16283 -2.67831,0.88773 z"
       inkscape:transform-center-x="-0.32321893"
       inkscape:transform-center-y="0.065356458" />
    <path
       sodipodi:type="star"
       style="fill:#ffff00;stroke:none;stroke-width:2.11667;stroke-linejoin:bevel"
       id="path39"
       inkscape:flatsided="false"
       sodipodi:sides="4"
       sodipodi:cx="98.003723"
       sodipodi:cy="144.92503"
       sodipodi:r1="14.096347"
       sodipodi:r2="1.4096348"
       sodipodi:arg1="2.115368"
       sodipodi:arg2="2.9007662"
       inkscape:rounded="0"
       inkscape:randomized="0"
       d="m 90.701086,156.98233 5.933683,-11.72109 -10.688346,-7.63884 11.721095,5.93368 7.638842,-10.68835 -5.933682,11.7211 10.688342,7.63884 -11.721091,-5.93368 z"
       inkscape:transform-center-x="-1.9669401"
       inkscape:transform-center-y="-0.085628289"
       transform="matrix(0.5793119,0,0,0.5793119,46.854893,75.501439)" />
    <path
       sodipodi:type="star"
       style="fill:#ffff00;stroke:none;stroke-width:2.11667;stroke-linejoin:bevel"
       id="path40"
       inkscape:flatsided="false"
       sodipodi:sides="4"
       sodipodi:cx="98.003723"
       sodipodi:cy="144.92503"
       sodipodi:r1="14.096347"
       sodipodi:r2="1.4096348"
       sodipodi:arg1="2.115368"
       sodipodi:arg2="2.9007662"
       inkscape:rounded="0"
       inkscape:randomized="0"
       d="m 90.701086,156.98233 5.933683,-11.72109 -10.688346,-7.63884 11.721095,5.93368 7.638842,-10.68835 -5.933682,11.7211 10.688342,7.63884 -11.721091,-5.93368 z"
       inkscape:transform-center-x="-1.9669401"
       inkscape:transform-center-y="-0.085628289"
       transform="matrix(0.5793119,0,0,0.5793119,223.64231,41.097431)" />
    <path
       sodipodi:type="star"
       style="fill:#ffff00;stroke:none;stroke-width:2.11667;stroke-linejoin:bevel"
       id="path41"
       inkscape:flatsided="false"
       sodipodi:sides="4"
       sodipodi:cx="98.003723"
       sodipodi:cy="144.92503"
       sodipodi:r1="14.096347"
       sodipodi:r2="1.4096348"
       sodipodi:arg1="2.115368"
       sodipodi:arg2="2.9007662"
       inkscape:rounded="0"
       inkscape:randomized="0"
       d="m 90.701086,156.98233 5.933683,-11.72109 -10.688346,-7.63884 11.721095,5.93368 7.638842,-10.68835 -5.933682,11.7211 10.688342,7.63884 -11.721091,-5.93368 z"
       inkscape:transform-center-x="-1.9669401"
       inkscape:transform-center-y="-0.085628289"
       transform="matrix(0.5793119,0,0,0.5793119,168.93507,-26.559545)" />
    <path
       sodipodi:type="star"
       style="fill:#ffff00;stroke:none;stroke-width:2.11667;stroke-linejoin:bevel"
       id="path42"
       inkscape:flatsided="false"
       sodipodi:sides="4"
       sodipodi:cx="98.003723"
       sodipodi:cy="144.92503"
       sodipodi:r1="14.096347"
       sodipodi:r2="1.4096348"
       sodipodi:arg1="2.115368"
       sodipodi:arg2="2.9007662"
       inkscape:rounded="0"
       inkscape:randomized="0"
       d="m 90.701086,156.98233 5.933683,-11.72109 -10.688346,-7.63884 11.721095,5.93368 7.638842,-10.68835 -5.933682,11.7211 10.688342,7.63884 -11.721091,-5.93368 z"
       inkscape:transform-center-x="-1.9669401"
       inkscape:transform-center-y="-0.085628289"
       transform="matrix(0.5793119,0,0,0.5793119,-40.738602,40.319473)" />
    <path
       sodipodi:type="star"
       style="fill:#ffff00;stroke:none;stroke-width:2.11667;stroke-linejoin:bevel"
       id="path43"
       inkscape:flatsided="false"
       sodipodi:sides="4"
       sodipodi:cx="98.003723"
       sodipodi:cy="144.92503"
       sodipodi:r1="14.096347"
       sodipodi:r2="1.4096348"
       sodipodi:arg1="2.115368"
       sodipodi:arg2="2.9007662"
       inkscape:rounded="0"
       inkscape:randomized="0"
       d="m 90.701086,156.98233 5.933683,-11.72109 -10.688346,-7.63884 11.721095,5.93368 7.638842,-10.68835 -5.933682,11.7211 10.688342,7.63884 -11.721091,-5.93368 z"
       inkscape:transform-center-x="-1.9669401"
       inkscape:transform-center-y="-0.085628289"
       transform="matrix(0.5793119,0,0,0.5793119,143.45745,110.27641)" />
    <path
       sodipodi:type="star"
       style="fill:#ffff00;stroke:none;stroke-width:2.11667;stroke-linejoin:bevel"
       id="path44"
       inkscape:flatsided="false"
       sodipodi:sides="4"
       sodipodi:cx="98.003723"
       sodipodi:cy="144.92503"
       sodipodi:r1="14.096347"
       sodipodi:r2="1.4096348"
       sodipodi:arg1="2.115368"
       sodipodi:arg2="2.9007662"
       inkscape:rounded="0"
       inkscape:randomized="0"
       d="m 90.701086,156.98233 5.933683,-11.72109 -10.688346,-7.63884 11.721095,5.93368 7.638842,-10.68835 -5.933682,11.7211 10.688342,7.63884 -11.721091,-5.93368 z"
       inkscape:transform-center-x="-1.9669401"
       inkscape:transform-center-y="-0.085628289"
       transform="matrix(0.5793119,0,0,0.5793119,51.162283,-3.9860217)" />
    <path
       sodipodi:type="star"
       style="fill:#ffff00;stroke:#000000;stroke-width:2.11667;stroke-linejoin:bevel"
       id="path45"
       inkscape:flatsided="false"
       sodipodi:sides="5"
       sodipodi:cx="243.24884"
       sodipodi:cy="71.290276"
       sodipodi:r1="7.1130328"
       sodipodi:r2="3.0743525"
       sodipodi:arg1="1.0471976"
       sodipodi:arg2="1.6755161"
       inkscape:rounded="0"
       inkscape:randomized="0"
       d="m 246.80536,77.450343 -3.87788,-3.102557 -4.43819,2.228503 1.75238,-4.64682 -3.49091,-3.532325 4.9609,0.230664 2.2807,-4.411599 1.31362,4.789377 4.90046,0.805807 -4.14904,2.729334 z"
       inkscape:transform-center-x="-0.22975552"
       inkscape:transform-center-y="-0.45700078"
       transform="translate(-164.58598,121.60322)" />
    <path
       sodipodi:type="star"
       style="fill:#ffff00;stroke:#ffff00;stroke-width:2.11667;stroke-linejoin:bevel"
       id="path46"
       inkscape:flatsided="false"
       sodipodi:sides="5"
       sodipodi:cx="223.56882"
       sodipodi:cy="23.639771"
       sodipodi:r1="7.0306091"
       sodipodi:r2="3.0387278"
       sodipodi:arg1="1.0471976"
       sodipodi:arg2="1.6755161"
       inkscape:rounded="0"
       inkscape:randomized="0"
       d="m 227.08412,29.728457 -3.83294,-3.066605 -4.38676,2.202679 1.73207,-4.592974 -3.45045,-3.491393 4.90341,0.227991 2.25427,-4.360479 1.2984,4.73388 4.84367,0.796469 -4.10096,2.697707 z"
       inkscape:transform-center-x="-0.22709339"
       inkscape:transform-center-y="-0.45170461"
       transform="translate(-84.598248,171.88225)" />
    <path
       sodipodi:type="star"
       style="fill:#ffff00;stroke:#000000;stroke-width:2.11667;stroke-linejoin:bevel"
       id="path47"
       inkscape:flatsided="false"
       sodipodi:sides="5"
       sodipodi:cx="20.347754"
       sodipodi:cy="26.851236"
       sodipodi:r1="21.470087"
       sodipodi:r2="10.735046"
       sodipodi:arg1="2.9707467"
       sodipodi:arg2="3.5990653"
       inkscape:rounded="0"
       inkscape:randomized="0"
       d="M -0.80975684,30.501496 10.716574,22.109759 10.33812,7.8572404 21.880968,16.226243 35.31897,11.462042 l -4.392458,13.564065 8.683596,11.30808 -14.257537,0.01405 -8.071245,11.75298 -4.419183,-13.555382 z"
       inkscape:transform-center-x="0.2339503"
       inkscape:transform-center-y="0.27849316"
       transform="matrix(0.24689265,0,0,0.24689265,213.68642,132.42911)" />
    <path
       sodipodi:type="star"
       style="fill:#ffff00;stroke:#000000;stroke-width:2.11667;stroke-linejoin:bevel"
       id="path48"
       inkscape:flatsided="false"
       sodipodi:sides="5"
       sodipodi:cx="20.347754"
       sodipodi:cy="26.851236"
       sodipodi:r1="21.470087"
       sodipodi:r2="10.735046"
       sodipodi:arg1="2.9707467"
       sodipodi:arg2="3.5990653"
       inkscape:rounded="0"
       inkscape:randomized="0"
       d="M -0.80975684,30.501496 10.716574,22.109759 10.33812,7.8572404 21.880968,16.226243 35.31897,11.462042 l -4.392458,13.564065 8.683596,11.30808 -14.257537,0.01405 -8.071245,11.75298 -4.419183,-13.555382 z"
       inkscape:transform-center-x="0.2339503"
       inkscape:transform-center-y="0.27849316"
       transform="matrix(0.24689265,0,0,0.24689265,213.34725,82.101325)" />
    <path
       sodipodi:type="star"
       style="fill:#ffff00;stroke:none;stroke-width:2.11667;stroke-linejoin:bevel"
       id="path49"
       inkscape:flatsided="false"
       sodipodi:sides="4"
       sodipodi:cx="98.003723"
       sodipodi:cy="144.92503"
       sodipodi:r1="14.096347"
       sodipodi:r2="1.4096348"
       sodipodi:arg1="2.115368"
       sodipodi:arg2="2.9007662"
       inkscape:rounded="0"
       inkscape:randomized="0"
       d="m 90.701086,156.98233 5.933683,-11.72109 -10.688346,-7.63884 11.721095,5.93368 7.638842,-10.68835 -5.933682,11.7211 10.688342,7.63884 -11.721091,-5.93368 z"
       inkscape:transform-center-x="-1.9669401"
       inkscape:transform-center-y="-0.085628289"
       transform="matrix(0.5793119,0,0,0.5793119,184.9394,16.168834)" />
  </g>
</svg>
