<?xml version="1.0" encoding="UTF-8" standalone="no"?>
<!-- Created with Inkscape (http://www.inkscape.org/) -->

<svg
   width="297mm"
   height="210mm"
   viewBox="0 0 297 210"
   version="1.1"
   id="svg1"
   inkscape:version="1.3.2 (1:1.3.2+202311252150+091e20ef0f)"
   sodipodi:docname="Reto6_Margarita.svg"
   xmlns:inkscape="http://www.inkscape.org/namespaces/inkscape"
   xmlns:sodipodi="http://sodipodi.sourceforge.net/DTD/sodipodi-0.dtd"
   xmlns="http://www.w3.org/2000/svg"
   xmlns:svg="http://www.w3.org/2000/svg">
  <sodipodi:namedview
     id="namedview1"
     pagecolor="#ffffff"
     bordercolor="#000000"
     borderopacity="0.25"
     inkscape:showpageshadow="2"
     inkscape:pageopacity="0.0"
     inkscape:pagecheckerboard="0"
     inkscape:deskcolor="#d1d1d1"
     inkscape:document-units="mm"
     inkscape:zoom="0.48756441"
     inkscape:cx="635.81343"
     inkscape:cy="330.21278"
     inkscape:window-width="1162"
     inkscape:window-height="1016"
     inkscape:window-x="20"
     inkscape:window-y="20"
     inkscape:window-maximized="0"
     inkscape:current-layer="layer1" />
  <defs
     id="defs1" />
  <g
     inkscape:label="Capa 1"
     inkscape:groupmode="layer"
     id="layer1">
    <circle
       style="fill:#ffff00;stroke:#000000;stroke-width:2.11667;stroke-linejoin:bevel;stroke-dasharray:none"
       id="path1"
       cx="147.02832"
       cy="103.55911"
       r="25.181759" />
    <path
       style="fill:none;stroke:#000000;stroke-width:2.11667;stroke-linejoin:bevel;stroke-dasharray:none"
       d="m 137.2262,80.620545 c 0,0 -19.18798,-48.925056 -5.14575,-51.327168 14.04223,-2.402113 16.24368,49.432548 16.24368,49.432548 0,0 6.75902,-53.535644 20.32221,-49.015851 13.5632,4.519794 -9.49254,51.472571 -9.49254,51.472571 0,0 24.03076,-46.938825 36.10574,-38.895218 12.07499,8.043606 -28.7431,44.217838 -28.7431,44.217838 0,0 36.19859,-30.247346 44.8099,-20.148342 8.61132,10.099002 -39.47228,28.510762 -39.47228,28.510762 0,0 47.69324,-19.05593 49.95117,-2.16742 2.25792,16.888505 -48.95739,10.406925 -48.95739,10.406925 0,0 53.34664,4.90371 45.45293,20.41516 -7.89371,15.51144 -47.09124,-10.43092 -47.09124,-10.43092 0,0 40.57957,29.5669 32.12464,38.13226 -8.45494,8.56536 -40.09884,-27.59492 -40.09884,-27.59492 0,0 27.14616,39.95448 16.65289,46.50217 -10.49327,6.5477 -27.02985,-41.39389 -27.02985,-41.39389 0,0 6.01844,48.7363 -4.88795,48.13 -10.90638,-0.6063 -5.01984,-47.11074 -5.01984,-47.11074 0,0 -11.05389,46.44127 -23.30205,40.9832 -12.24816,-5.45807 13.86042,-45.44396 13.86042,-45.44396 0,0 -30.56107,41.53924 -38.438052,31.2163 -7.87698,-10.32295 30.423382,-38.51899 30.423382,-38.51899 0,0 -41.350582,26.75423 -48.752049,15.43128 -7.401464,-11.32295 44.952309,-26.04656 44.952309,-26.04656 0,0 -51.724506,7.73083 -50.415836,-6.01661 1.308671,-13.747445 51.355656,-4.519215 51.355656,-4.519215 0,0 -51.095845,-14.92447 -43.723208,-30.152073 7.372636,-15.227605 50.913478,19.076623 50.913478,19.076623 0,0 -39.217882,-36.477101 -28.10157,-44.862371 11.11632,-8.38527 35.50314,39.716611 35.50314,39.716611 z"
       id="path2"
       sodipodi:nodetypes="czczczczczczczczczczczczczczczc" />
  </g>
</svg>
