<?xml version="1.0" encoding="UTF-8" standalone="no"?>
<!-- Created with Inkscape (http://www.inkscape.org/) -->

<svg
   width="297mm"
   height="210mm"
   viewBox="0 0 297 210"
   version="1.1"
   id="svg1"
   inkscape:version="1.3.2 (1:1.3.2+202311252150+091e20ef0f)"
   sodipodi:docname="Reto5_Mosaico.svg"
   xmlns:inkscape="http://www.inkscape.org/namespaces/inkscape"
   xmlns:sodipodi="http://sodipodi.sourceforge.net/DTD/sodipodi-0.dtd"
   xmlns="http://www.w3.org/2000/svg"
   xmlns:svg="http://www.w3.org/2000/svg">
  <sodipodi:namedview
     id="namedview1"
     pagecolor="#ffffff"
     bordercolor="#000000"
     borderopacity="0.25"
     inkscape:showpageshadow="2"
     inkscape:pageopacity="0.0"
     inkscape:pagecheckerboard="0"
     inkscape:deskcolor="#d1d1d1"
     inkscape:document-units="mm"
     inkscape:zoom="0.48756441"
     inkscape:cx="568.13006"
     inkscape:cy="408.1512"
     inkscape:window-width="1162"
     inkscape:window-height="1016"
     inkscape:window-x="20"
     inkscape:window-y="20"
     inkscape:window-maximized="0"
     inkscape:current-layer="layer1" />
  <defs
     id="defs1" />
  <g
     inkscape:label="Capa 1"
     inkscape:groupmode="layer"
     id="layer1">
    <path
       style="fill:#00ff00;stroke:#000000;stroke-width:2.11667;stroke-linejoin:bevel"
       d="M 10.15162,7.777468 8.8627946,23.169181 105.20462,22.480253 114.28575,7.5633703 Z"
       id="path1" />
    <path
       style="fill:#000080;stroke:#000000;stroke-width:2.11667;stroke-linejoin:bevel"
       d="M 118.84539,21.744689 125.34251,8.9348671 227.8974,7.7795876 215.31228,21.397046 Z"
       id="path2" />
    <path
       style="fill:#800080;stroke:#000000;stroke-width:2.11667;stroke-linejoin:bevel"
       d="m 227.15548,20.924335 8.75893,-12.8077024 52.2356,-0.4154768 1.11709,57.2276652 -17.91425,-14.827853 0.30525,-28.91378 z"
       id="path3" />
    <path
       style="fill:#ff0000;stroke:#000000;stroke-width:2.11667;stroke-linejoin:bevel"
       d="m 210.46434,26.550228 39.51904,-0.527825 -0.94119,37.789294 z"
       id="path4" />
    <path
       style="fill:#00ff00;stroke:#000000;stroke-width:2.11667;stroke-linejoin:bevel"
       d="m 254.30773,29.39497 12.2714,-0.625335 -0.0424,27.251877 26.09025,19.279385 0.12507,23.911105 -38.5715,-33.030393 z"
       id="path5" />
    <path
       style="fill:#008080;stroke:#000000;stroke-width:2.11667;stroke-linejoin:bevel"
       d="m 254.38192,77.159944 0.65501,45.089806 31.37061,-20.74415 z"
       id="path6" />
    <path
       style="fill:#ff00ff;stroke:#000000;stroke-width:2.11667;stroke-linejoin:bevel"
       d="m 263.01154,128.3208 25.74259,-19.03985 -12.08487,53.76606 -28.11037,16.47916 19.7648,-31.90478 z"
       id="path7" />
    <path
       style="fill:#ff0000;stroke:#000000;stroke-width:2.11667;stroke-linejoin:bevel"
       d="m 256.4699,136.52011 -35.33671,15.38323 15.77963,30.49725 z"
       id="path8" />
    <path
       style="fill:#0000ff;stroke:#000000;stroke-width:2.11667;stroke-linejoin:bevel"
       d="M 227.57944,93.988865 248.2494,113.9275 247.36757,73.942119 Z"
       id="path9" />
    <path
       style="fill:none;stroke:#000000;stroke-width:2.11667;stroke-linejoin:bevel"
       d="m 237.87944,69.100546 -27.20524,26.32765 30.11146,32.034094 -40.47082,32.61279 21.02609,7.86862 -36.62978,10.74304"
       id="path10" />
    <path
       style="fill:#00ffff;stroke:#000000;stroke-width:2.11667;stroke-linejoin:bevel"
       d="m 227.554,175.00681 -49.67913,8.98786 -11.5634,11.61215 z"
       id="path11" />
    <path
       style="fill:#550000;stroke:#000000;stroke-width:2.11667;stroke-linejoin:bevel"
       d="m 288.47856,169.4763 -5.32063,33.1915 -51.17783,0.48755 27.81785,-22.01814 z"
       id="path12" />
    <path
       style="fill:#ffff00;stroke:#000000;stroke-width:2.11667;stroke-linejoin:bevel"
       d="m 292.03131,113.09655 -10.5565,52.79097 12.7759,-0.17806 z"
       id="path13" />
    <path
       style="fill:#800080;stroke:#000000;stroke-width:2.11667;stroke-linejoin:bevel"
       d="m 242.42001,185.66929 -20.77807,13.32705 -41.52011,1.30367 42.91068,-15.67789 z"
       id="path14" />
    <path
       style="fill:#000080;stroke:#000000;stroke-width:2.11667;stroke-linejoin:bevel"
       d="m 153.2282,197.05674 20.78655,6.68367 54.66061,-0.4494 -0.87335,3.88768 -85.19178,-0.69741 -87.869066,-0.36672 -26.662576,-10.32121 0.599898,-19.05044 78.257994,19.6461 z"
       id="path15" />
    <path
       style="fill:#ff00ff;stroke:#000000;stroke-width:2.11667;stroke-linejoin:bevel"
       d="m 112.2126,191.75518 27.04202,-18.11139 24.13368,18.19406 z"
       id="path16" />
    <path
       style="fill:#ff0000;stroke:#000000;stroke-width:2.11667;stroke-linejoin:bevel"
       d="m 38.558774,172.92306 65.397296,17.6514 27.81785,-16.65086 z"
       id="path17" />
    <path
       style="fill:#808000;stroke:#000000;stroke-width:2.11667;stroke-linejoin:bevel"
       d="m 7.891936,204.62223 30.948767,0.79068 -17.494532,-8.46215 -7.749911,-18.64558 0.105989,-43.98117 -8.4557968,0.55327 z"
       id="path18" />
    <path
       style="fill:#0000ff;stroke:#000000;stroke-width:2.11667;stroke-linejoin:bevel"
       d="m 18.528985,175.88015 4.303151,15.23909 4.792819,-48.92025 -9.555962,-7.02706 z"
       id="path19" />
    <path
       style="fill:#ff00ff;stroke:#000000;stroke-width:2.11667;stroke-linejoin:bevel"
       d="m 32.587358,145.90224 -1.672505,27.41934 23.900503,-19.56979 z"
       id="path20" />
    <path
       style="fill:#ff6600;stroke:#000000;stroke-width:2.11667;stroke-linejoin:bevel"
       d="m 47.044247,167.13395 28.761158,-25.82526 19.425652,-0.32857 35.495693,28.22697 z"
       id="path21" />
    <path
       style="fill:#aa4400;stroke:#000000;stroke-width:2.11667;stroke-linejoin:bevel"
       d="M 121.97206,116.54543 155.5324,115.77595 166.11433,86.578119 139.86724,64.133904 114.03985,85.734447 Z"
       id="path22" />
    <path
       style="fill:#800000;stroke:#000000;stroke-width:2.11667;stroke-linejoin:bevel"
       d="m 111.18239,92.60253 5.68101,23.69277 -23.923825,-7.37259 z"
       id="path23" />
    <path
       style="fill:#008080;stroke:#000000;stroke-width:2.11667;stroke-linejoin:bevel"
       d="M 113.09231,79.716396 131.94562,63.362305 96.437211,55.989714 Z"
       id="path24" />
    <path
       style="fill:#808000;stroke:#000000;stroke-width:2.11667;stroke-linejoin:bevel"
       d="m 149.21546,64.271688 18.16226,16.725053 1.86965,-21.477596 z"
       id="path25" />
    <path
       style="fill:#ff6600;stroke:#000000;stroke-width:2.11667;stroke-linejoin:bevel"
       d="m 168.28923,92.127701 -7.0737,21.257139 27.5126,-0.0466 z"
       id="path26" />
    <path
       style="fill:#ffff00;stroke:#000000;stroke-width:2.11667;stroke-linejoin:bevel"
       d="m 128.01131,119.7145 10.53318,14.67947 12.49822,-15.39808 z"
       id="path27" />
    <path
       style="fill:#00ffff;stroke:#000000;stroke-width:2.11667;stroke-linejoin:bevel"
       d="m 93.723893,116.09604 37.645147,21.5645 -10.52894,-17.11933 z"
       id="path28" />
    <path
       style="fill:#ff00ff;stroke:#000000;stroke-width:2.11667;stroke-linejoin:bevel"
       d="m 147.51964,133.51002 39.5699,-14.3827 -29.50095,-1.26763 z"
       id="path29" />
    <path
       style="fill:#0000ff;stroke:#000000;stroke-width:2.11667;stroke-linejoin:bevel"
       d="M 85.505511,58.145528 84.4753,102.97249 109.02869,85.168466 Z"
       id="path30" />
    <path
       style="fill:#ff00ff;stroke:#000000;stroke-width:2.11667;stroke-linejoin:bevel"
       d="M 96.087447,45.00926 140.95468,58.656397 182.47267,46.060672 Z"
       id="path31" />
    <path
       style="fill:none;stroke:#000000;stroke-width:2.11667;stroke-linejoin:bevel"
       d="M 68.755021,55.281708 98.391645,28.190936 144.42052,41.619733 193.17119,34.020328 213.9111,62.226102"
       id="path32" />
    <path
       style="fill:#008080;stroke:#000000;stroke-width:2.11667;stroke-linejoin:bevel"
       d="m 187.58133,51.72684 -15.91529,32.875646 25.13421,30.755874 z"
       id="path33" />
    <path
       style="fill:#00ffff;stroke:#000000;stroke-width:2.11667;stroke-linejoin:bevel"
       d="m 201.62699,70.961709 -1.28247,27.258235 27.79242,-28.265128 z"
       id="path34" />
    <path
       style="fill:#ffff00;stroke:#000000;stroke-width:2.11667;stroke-linejoin:bevel"
       d="m 206.82468,31.044157 -5.98201,5.977777 21.40976,27.281552 15.39808,1.786972 4.73134,-3.997902 z"
       id="path35" />
    <path
       style="fill:#ff6600;stroke:#000000;stroke-width:2.11667;stroke-linejoin:bevel"
       d="m 121.44424,25.551812 62.98074,1.513523 -37.7045,9.948121 z"
       id="path36" />
    <path
       style="fill:#00ffff;stroke:#000000;stroke-width:2.11667;stroke-linejoin:bevel"
       d="M 6.7514951,30.916972 7.3026375,72.848313 35.417262,73.482128 Z"
       id="path37" />
    <path
       style="fill:#800080;stroke:#000000;stroke-width:2.11667;stroke-linejoin:bevel"
       d="M 12.763187,31.042038 33.305961,64.733802 33.90374,31.459635 Z"
       id="path38" />
    <path
       style="fill:#ffff00;stroke:#000000;stroke-width:2.11667;stroke-linejoin:bevel"
       d="M 40.282153,30.387028 39.688616,73.380377 87.377277,29.242348 Z"
       id="path39" />
    <path
       style="fill:#008000;stroke:#000000;stroke-width:2.11667;stroke-linejoin:bevel"
       d="M 9.3121876,80.462558 9.7891379,129.05424 39.374889,81.331667 Z"
       id="path40" />
    <path
       style="fill:#008080;stroke:#000000;stroke-width:2.11667;stroke-linejoin:bevel"
       d="m 19.665187,128.96733 11.66726,12.16753 10.660367,-49.700327 z"
       id="path41" />
    <path
       style="fill:none;stroke:#000000;stroke-width:2.11667;stroke-linejoin:bevel"
       d="M 45.49045,81.405859 62.887473,109.10925 49.043198,145.3617 82.058752,128.51582 130.20952,153.43806"
       id="path42" />
    <path
       style="fill:#ff0000;stroke:#000000;stroke-width:2.11667;stroke-linejoin:bevel"
       d="M 50.872569,76.322631 60.956356,62.086198 77.119667,62.232462 77.306209,96.163758 61.293401,95.553262 Z"
       id="path43" />
    <path
       style="fill:#800080;stroke:#000000;stroke-width:2.11667;stroke-linejoin:bevel"
       d="m 65.906038,111.78441 8.271378,-10.84267 14.459008,13.397 -12.16329,9.9566 -16.981546,10.39964 z"
       id="path44" />
    <path
       style="fill:#00ff00;stroke:#000000;stroke-width:2.11667;stroke-linejoin:bevel"
       d="M 45.072852,100.64709 40.390262,142.54028 57.06656,110.5189 Z"
       id="path45" />
    <path
       style="fill:#008000;stroke:#000000;stroke-width:2.11667;stroke-linejoin:bevel"
       d="m 148.88477,151.00667 19.87505,22.14321 59.88375,-43.0633 -12.09758,-12.67204 z"
       id="path46" />
    <path
       style="fill:#0000ff;stroke:#000000;stroke-width:2.11667;stroke-linejoin:bevel"
       d="m 131.93714,161.74971 6.22791,-19.03561 30.39551,39.08448 z"
       id="path47" />
    <path
       style="fill:#dd55ff;stroke:#000000;stroke-width:2.11667;stroke-linejoin:bevel"
       d="m 200.67733,103.72501 0.70164,16.21419 15.9683,-7.4701 -8.41129,-11.86229 z"
       id="path48" />
    <path
       style="fill:#ff0000;stroke:#000000;stroke-width:2.11667;stroke-linejoin:bevel"
       d="m 146.44915,139.51535 4.29467,6.09648 45.40142,-23.19673 z"
       id="path49" />
  </g>
</svg>
